{
copyright = "2009 - 2011, The League of Moveable Type";
customParameters = (
{
name = glyphOrder;
value = (
    ".notdef",
    NULL,
    uni000D,
    space,
    Acircumflex,
    Adieresis,
    Agrave,
    Aring,
    Atilde,
    AE,
    B,
    C,
    Ccedilla,
    D,
    E,
    Eacute,
    Ecircumflex,
    Edieresis,
    Egrave,
    F,
    G,
    H,
    I,
    Iacute,
    Icircumflex,
    Idieresis,
    Igrave,
    J,
    K,
    L,
    M,
    N,
    Ntilde,
    O,
    Oacute,
    Ocircumflex,
    Odieresis,
    Ograve,
    Oslash,
    Otilde,
    OE,
    P,
    Q,
    R,
    S,
    T,
    U,
    Uacute,
    Ucircumflex,
    Udieresis,
    Ugrave,
    V,
    W,
    X,
    Y,
    Ydieresis,
    Z,
    a,
    aacute,
    acircumflex,
    adieresis,
    agrave,
    aring,
    atilde,
    ae,
    b,
    c,
    ccedilla,
    d,
    e,
    eacute,
    ecircumflex,
    edieresis,
    egrave,
    f,
    g,
    h,
    i,
    dotlessi,
    iacute,
    icircumflex,
    idieresis,
    igrave,
    j,
    k,
    l,
    m,
    n,
    ntilde,
    o,
    oacute,
    ocircumflex,
    odieresis,
    ograve,
    oslash,
    otilde,
    oe,
    p,
    q,
    r,
    s,
    germandbls,
    t,
    u,
    uacute,
    ucircumflex,
    udieresis,
    ugrave,
    v,
    w,
    x,
    y,
    ydieresis,
    z,
    fi,
    fl,
    zero,
    one,
    two,
    three,
    four,
    five,
    six,
    seven,
    eight,
    nine,
    asterisk,
    backslash,
    bullet,
    colon,
    comma,
    ellipsis,
    exclam,
    exclamdown,
    numbersign,
    period,
    periodcentered,
    question,
    questiondown,
    quotedbl,
    quotesingle,
    semicolon,
    slash,
    underscore,
    braceleft,
    braceright,
    bracketleft,
    bracketright,
    parenleft,
    parenright,
    emdash,
    endash,
    hyphen,
    quotedblbase,
    quotedblleft,
    quotedblright,
    quoteleft,
    quoteright,
    quotesinglbase,
    Euro,
    cent,
    dollar,
    sterling,
    yen,
    asciitilde,
    equal,

glyphs = (
{
glyphname = uni0093;
layers = (
{
layerId = "E10EC336-1202-48FF-9A55-15876E80CDFD";
name = Regular;
paths = (
{
closed = 1;
nodes = (
"154 605 LINE",
"237 735 LINE",
"287 735 LINE",
"224 605 LINE",
"259 605 LINE",
"236 494 LINE",
"131 494 LINE"
);
},
{
closed = 1;
nodes = (
"302 605 LINE",
"385 735 LINE",
"435 735 LINE",
"372 605 LINE",
"407 605 LINE",
"384 494 LINE",
"279 494 LINE"
);
}
);
width = 305;
}
);
unicode = 0093;
},
{
glyphname = uni0094;
layers = (
{
layerId = "E10EC336-1202-48FF-9A55-15876E80CDFD";
name = Regular;
paths = (
{
closed = 1;
nodes = (
"263 624 LINE",
"181 494 LINE",
"131 494 LINE",
"193 624 LINE",
"158 624 LINE",
"182 735 LINE",
"287 735 LINE"
);
},
{
closed = 1;
nodes = (
"411 624 LINE",
"329 494 LINE",
"279 494 LINE",
"341 624 LINE",
"306 624 LINE",
"330 735 LINE",
"435 735 LINE"
);
}
);
width = 305;
}
);
unicode = 0094;
},
{
glyphname = Acircumflex;
lastChange = "2012-08-26 16:25:30 +0000";
layers = (
{
layerId = "E10EC336-1202-48FF-9A55-15876E80CDFD";
name = Regular;
paths = (
{
closed = 1;
nodes = (
"430 890 LINE",
"480 800 LINE",
"388 800 LINE",
"364 835 LINE",
"327 800 LINE",
"235 800 LINE",
"323 890 LINE"
);
},
{
closed = 1;
nodes = (
"10 0 LINE",
"277 735 LINE",
"409 735 LINE",
"364 0 LINE",
"259 0 LINE",
"270 150 LINE",
"166 150 LINE",
"115 0 LINE"
);
},
{
closed = 1;
nodes = (
"298 496 LINE",
"299 515 LINE",
"293 515 LINE",
"286 496 LINE",
"206 264 LINE",
"280 264 LINE"
);
}
);
width = 374;
}
);
unicode = 00C2;
},
{
glyphname = Adieresis;
lastChange = "2012-08-26 16:25:30 +0000";
layers = (
{
layerId = "E10EC336-1202-48FF-9A55-15876E80CDFD";
name = Regular;
paths = (
{
closed = 1;
nodes = (
"260 898 LINE",
"353 898 LINE",
"333 800 LINE",
"240 800 LINE"
);
},
{
closed = 1;
nodes = (
"401 898 LINE",
"494 898 LINE",
"474 800 LINE",
"381 800 LINE"
);
},
{
closed = 1;
nodes = (
"10 0 LINE",
"277 735 LINE",
"409 735 LINE",
"364 0 LINE",
"259 0 LINE",
"270 150 LINE",
"166 150 LINE",
"115 0 LINE"
);
},
{
closed = 1;
nodes = (
"298 496 LINE",
"299 515 LINE",
"293 515 LINE",
"286 496 LINE",
"206 264 LINE",
"280 264 LINE"
);
}
);
width = 374;
}
);
unicode = 00C4;
},
{
glyphname = Agrave;
lastChange = "2012-08-26 16:25:30 +0000";
layers = (
{
layerId = "E10EC336-1202-48FF-9A55-15876E80CDFD";
name = Regular;
paths = (
{
closed = 1;
nodes = (
"363 890 LINE",
"396 800 LINE",
"318 800 LINE",
"258 890 LINE"
);
},
{
closed = 1;
nodes = (
"10 0 LINE",
"277 735 LINE",
"409 735 LINE",
"364 0 LINE",
"259 0 LINE",
"270 150 LINE",
"166 150 LINE",
"115 0 LINE"
);
},
{
closed = 1;
nodes = (
"298 496 LINE",
"299 515 LINE",
"293 515 LINE",
"286 496 LINE",
"206 264 LINE",
"280 264 LINE"
);
}
);
width = 374;
}
);
unicode = 00C0;
},
{
glyphname = Aring;
lastChange = "2012-08-26 16:25:30 +0000";
layers = (
{
layerId = "E10EC336-1202-48FF-9A55-15876E80CDFD";
name = Regular;
paths = (
{
closed = 1;
nodes = (
"304 901 OFFCURVE",
"344 930 OFFCURVE",
"385 930 CURVE SMOOTH",
"426 930 OFFCURVE",
"453 901 OFFCURVE",
"444 860 CURVE SMOOTH",
"436 819 OFFCURVE",
"396 790 OFFCURVE",
"355 790 CURVE SMOOTH",
"314 790 OFFCURVE",
"287 819 OFFCURVE",
"295 860 CURVE SMOOTH"
);
},
{
closed = 1;
nodes = (
"329 841 OFFCURVE",
"344 825 OFFCURVE",
"363 825 CURVE SMOOTH",
"382 825 OFFCURVE",
"403 841 OFFCURVE",
"407 860 CURVE SMOOTH",
"411 879 OFFCURVE",
"397 895 OFFCURVE",
"378 895 CURVE SMOOTH",
"359 895 OFFCURVE",
"337 879 OFFCURVE",
"333 860 CURVE SMOOTH"
);
},
{
closed = 1;
nodes = (
"10 0 LINE",
"277 735 LINE",
"409 735 LINE",
"364 0 LINE",
"259 0 LINE",
"270 150 LINE",
"166 150 LINE",
"115 0 LINE"
);
},
{
closed = 1;
nodes = (
"298 496 LINE",
"299 515 LINE",
"293 515 LINE",
"286 496 LINE",
"206 264 LINE",
"280 264 LINE"
);
}
);
width = 374;
}
);
unicode = 00C5;
},
{
glyphname = Atilde;
lastChange = "2012-08-26 16:25:30 +0000";
layers = (
{
layerId = "E10EC336-1202-48FF-9A55-15876E80CDFD";
name = Regular;
paths = (
{
closed = 1;
nodes = (
"275 871 LINE",
"286 878 OFFCURVE",
"298 883 OFFCURVE",
"311 887 CURVE SMOOTH",
"317 889 OFFCURVE",
"324 890 OFFCURVE",
"332 890 CURVE SMOOTH",
"346 890 OFFCURVE",
"360 887 OFFCURVE",
"374 882 CURVE",
"388 875 OFFCURVE",
"402 872 OFFCURVE",
"416 871 CURVE",
"431 871 OFFCURVE",
"442 875 OFFCURVE",
"454 879 CURVE SMOOTH",
"457 880 OFFCURVE",
"460 882 OFFCURVE",
"463 883 CURVE SMOOTH",
"466 884 OFFCURVE",
"469 886 OFFCURVE",
"472 887 CURVE",
"456 813 LINE",
"447 806 OFFCURVE",
"435 800 OFFCURVE",
"420 797 CURVE",
"413 795 OFFCURVE",
"406 794 OFFCURVE",
"399 794 CURVE SMOOTH",
"384 794 OFFCURVE",
"370 797 OFFCURVE",
"358 803 CURVE",
"346 808 OFFCURVE",
"332 812 OFFCURVE",
"315 813 CURVE",
"300 813 OFFCURVE",
"288 809 OFFCURVE",
"277 805 CURVE SMOOTH",
"274 804 OFFCURVE",
"271 802 OFFCURVE",
"268 801 CURVE SMOOTH",
"265 800 OFFCURVE",
"262 798 OFFCURVE",
"259 797 CURVE"
);
},
{
closed = 1;
nodes = (
"10 0 LINE",
"277 735 LINE",
"409 735 LINE",
"364 0 LINE",
"259 0 LINE",
"270 150 LINE",
"166 150 LINE",
"115 0 LINE"
);
},
{
closed = 1;
nodes = (
"298 496 LINE",
"299 515 LINE",
"293 515 LINE",
"286 496 LINE",
"206 264 LINE",
"280 264 LINE"
);
}
);
width = 374;
}
);
unicode = 00C3;
},
{
glyphname = AE;
lastChange = "2012-08-26 16:25:31 +0000";
layers = (
{
anchors = (
{
name = top;
position = "{269, 735}";
}
);
layerId = "E10EC336-1202-48FF-9A55-15876E80CDFD";
name = Regular;
paths = (
{
closed = 1;
nodes = (
"301 150 LINE",
"190 150 LINE",
"115 0 LINE",
"8 0 LINE",
"369 735 LINE",
"673 735 LINE",
"649 624 LINE",
"510 624 LINE",
"469 431 LINE",
"569 431 LINE",
"544 313 LINE",
"444 313 LINE",
"401 111 LINE",
"540 111 LINE",
"517 0 LINE",
"270 0 LINE"
);
},
{
closed = 1;
nodes = (
"248 264 LINE",
"326 264 LINE",
"379 515 LINE",
"374 515 LINE"
);
}
);
width = 537;
}
);
unicode = 00C6;
},
{
glyphname = B;
lastChange = "2012-08-26 16:25:30 +0000";
layers = (
{
layerId = "E10EC336-1202-48FF-9A55-15876E80CDFD";
name = Regular;
paths = (
{
closed = 1;
nodes = (
"40 0 LINE",
"196 735 LINE",
"291 735 LINE SMOOTH",
"355 735 OFFCURVE",
"402 723 OFFCURVE",
"429 692 CURVE SMOOTH",
"456 661 OFFCURVE",
"462 613 OFFCURVE",
"446 540 CURVE SMOOTH",
"439 505 OFFCURVE",
"430 479 OFFCURVE",
"414 455 CURVE SMOOTH",
"398 431 OFFCURVE",
"378 411 OFFCURVE",
"347 388 CURVE",
"394 359 OFFCURVE",
"400 280 OFFCURVE",
"384 208 CURVE SMOOTH",
"372 152 OFFCURVE",
"352 105 OFFCURVE",
"319 66 CURVE SMOOTH",
"284 27 OFFCURVE",
"237 3 OFFCURVE",
"173 0 CURVE"
);
},
{
closed = 1;
nodes = (
"239 432 LINE",
"248 432 OFFCURVE",
"269 431 OFFCURVE",
"290 443 CURVE SMOOTH",
"310 455 OFFCURVE",
"329 479 OFFCURVE",
"340 530 CURVE SMOOTH",
"345 555 OFFCURVE",
"346 575 OFFCURVE",
"343 588 CURVE SMOOTH",
"336 615 OFFCURVE",
"320 626 OFFCURVE",
"302 627 CURVE",
"293 628 OFFCURVE",
"286 628 OFFCURVE",
"281 628 CURVE"
);
},
{
closed = 1;
nodes = (
"170 107 LINE",
"179 107 OFFCURVE",
"200 105 OFFCURVE",
"221 118 CURVE SMOOTH",
"241 131 OFFCURVE",
"262 160 OFFCURVE",
"274 220 CURVE SMOOTH",
"281 250 OFFCURVE",
"283 273 OFFCURVE",
"280 289 CURVE SMOOTH",
"274 320 OFFCURVE",
"258 332 OFFCURVE",
"239 333 CURVE",
"230 333 OFFCURVE",
"223 333 OFFCURVE",
"218 333 CURVE"
);
}
);
width = 364;
}
);
unicode = 0042;
},
{
glyphname = C;
lastChange = "2012-08-26 16:25:31 +0000";
layers = (
{
anchors = (
{
name = bottom;
position = "{173, 0}";
},
{
name = top;
position = "{173, 735}";
}
);
layerId = "E10EC336-1202-48FF-9A55-15876E80CDFD";
name = Regular;
paths = (
{
closed = 1;
nodes = (
"374 252 LINE",
"353 151 LINE",
"345 121 OFFCURVE",
"333 94 OFFCURVE",
"318 71 CURVE",
"303 51 OFFCURVE",
"286 32 OFFCURVE",
"263 17 CURVE",
"239 0 OFFCURVE",
"210 -8 OFFCURVE",
"175 -8 CURVE SMOOTH",
"140 -8 OFFCURVE",
"114 0 OFFCURVE",
"96 17 CURVE SMOOTH",
"79 32 OFFCURVE",
"70 51 OFFCURVE",
"66 71 CURVE",
"59 94 OFFCURVE",
"59 120 OFFCURVE",
"65 151 CURVE SMOOTH",
"157 584 LINE SMOOTH",
"164 613 OFFCURVE",
"175 639 OFFCURVE",
"191 663 CURVE",
"206 683 OFFCURVE",
"222 703 OFFCURVE",
"245 718 CURVE SMOOTH",
"268 733 OFFCURVE",
"298 743 OFFCURVE",
"334 743 CURVE SMOOTH",
"370 743 OFFCURVE",
"395 733 OFFCURVE",
"412 718 CURVE SMOOTH",
"429 703 OFFCURVE",
"439 683 OFFCURVE",
"443 663 CURVE",
"450 641 OFFCURVE",
"450 615 OFFCURVE",
"445 584 CURVE",
"423 483 LINE",
"322 483 LINE",
"344 584 LINE SMOOTH",
"348 603 OFFCURVE",
"346 619 OFFCURVE",
"337 630 CURVE SMOOTH",
"333 635 OFFCURVE",
"325 638 OFFCURVE",
"314 638 CURVE SMOOTH",
"295 638 OFFCURVE",
"283 624 OFFCURVE",
"275 611 CURVE",
"272 604 OFFCURVE",
"268 595 OFFCURVE",
"265 584 CURVE",
"173 151 LINE",
"170 132 OFFCURVE",
"172 116 OFFCURVE",
"180 105 CURVE",
"184 100 OFFCURVE",
"190 97 OFFCURVE",
"199 97 CURVE SMOOTH",
"222 97 OFFCURVE",
"234 109 OFFCURVE",
"242 124 CURVE SMOOTH",
"245 130 OFFCURVE",
"249 139 OFFCURVE",
"252 151 CURVE",
"273 252 LINE"
);
}
);
width = 346;
}
);
unicode = 0043;
},
{
glyphname = Ccedilla;
lastChange = "2012-08-26 16:25:30 +0000";
layers = (
{
layerId = "E10EC336-1202-48FF-9A55-15876E80CDFD";
name = Regular;
paths = (
{
closed = 1;
nodes = (
"374 252 LINE",
"353 151 LINE",
"345 121 OFFCURVE",
"333 94 OFFCURVE",
"318 71 CURVE",
"303 51 OFFCURVE",
"286 32 OFFCURVE",
"263 17 CURVE",
"239 0 OFFCURVE",
"210 -8 OFFCURVE",
"175 -8 CURVE SMOOTH",
"140 -8 OFFCURVE",
"114 0 OFFCURVE",
"96 17 CURVE SMOOTH",
"79 32 OFFCURVE",
"70 51 OFFCURVE",
"66 71 CURVE",
"59 94 OFFCURVE",
"59 120 OFFCURVE",
"65 151 CURVE SMOOTH",
"157 584 LINE SMOOTH",
"164 613 OFFCURVE",
"175 639 OFFCURVE",
"191 663 CURVE",
"206 683 OFFCURVE",
"222 703 OFFCURVE",
"245 718 CURVE SMOOTH",
"268 733 OFFCURVE",
"298 743 OFFCURVE",
"334 743 CURVE SMOOTH",
"370 743 OFFCURVE",
"395 733 OFFCURVE",
"412 718 CURVE SMOOTH",
"429 703 OFFCURVE",
"439 683 OFFCURVE",
"443 663 CURVE",
"450 641 OFFCURVE",
"450 615 OFFCURVE",
"445 584 CURVE",
"423 483 LINE",
"322 483 LINE",
"344 584 LINE SMOOTH",
"348 603 OFFCURVE",
"346 619 OFFCURVE",
"337 630 CURVE SMOOTH",
"333 635 OFFCURVE",
"325 638 OFFCURVE",
"314 638 CURVE SMOOTH",
"295 638 OFFCURVE",
"283 624 OFFCURVE",
"275 611 CURVE",
"272 604 OFFCURVE",
"268 595 OFFCURVE",
"265 584 CURVE",
"173 151 LINE",
"170 132 OFFCURVE",
"172 116 OFFCURVE",
"180 105 CURVE",
"184 100 OFFCURVE",
"190 97 OFFCURVE",
"199 97 CURVE SMOOTH",
"222 97 OFFCURVE",
"234 109 OFFCURVE",
"242 124 CURVE SMOOTH",
"245 130 OFFCURVE",
"249 139 OFFCURVE",
"252 151 CURVE",
"273 252 LINE"
);
},
{
closed = 1;
nodes = (
"188 -123 LINE",
"153 -188 LINE",
"102 -188 LINE",
"135 -123 LINE",
"104 -123 LINE",
"119 -54 LINE",
"203 -54 LINE"
);
}
);
width = 346;
}
);
unicode = 00C7;
},
{
glyphname = D;
lastChange = "2012-08-26 16:25:31 +0000";
layers = (
{
anchors = (
{
name = center;
position = "{186, 368}";
},
{
name = top;
position = "{186, 735}";
}
);
layerId = "E10EC336-1202-48FF-9A55-15876E80CDFD";
name = Regular;
paths = (
{
closed = 1;
nodes = (
"40 0 LINE",
"196 735 LINE",
"281 735 LINE SMOOTH",
"381 735 OFFCURVE",
"429 715 OFFCURVE",
"448 659 CURVE",
"464 603 OFFCURVE",
"449 512 OFFCURVE",
"418 367 CURVE SMOOTH",
"387 223 OFFCURVE",
"364 132 OFFCURVE",
"324 76 CURVE SMOOTH",
"283 20 OFFCURVE",
"225 0 OFFCURVE",
"125 0 CURVE SMOOTH"
);
},
{
closed = 1;
nodes = (
"170 108 LINE",
"207 108 OFFCURVE",
"229 112 OFFCURVE",
"248 148 CURVE SMOOTH",
"265 181 OFFCURVE",
"279 240 OFFCURVE",
"289 288 CURVE SMOOTH",
"294 311 OFFCURVE",
"299 338 OFFCURVE",
"306 368 CURVE SMOOTH",
"312 398 OFFCURVE",
"318 425 OFFCURVE",
"323 449 CURVE SMOOTH",
"333 496 OFFCURVE",
"345 552 OFFCURVE",
"341 588 CURVE SMOOTH",
"338 623 OFFCURVE",
"318 627 OFFCURVE",
"281 627 CURVE"
);
}
);
width = 372;
}
);
unicode = 0044;
},
{
glyphname = E;
lastChange = "2012-08-26 16:25:31 +0000";
layers = (
{
anchors = (
{
name = bottom;
position = "{154, 0}";
},
{
name = ogonek;
position = "{276, 10}";
},
{
name = top;
position = "{154, 735}";
}
);
layerId = "E10EC336-1202-48FF-9A55-15876E80CDFD";
name = Regular;
paths = (
{
closed = 1;
nodes = (
"196 735 LINE",
"443 735 LINE",
"419 624 LINE",
"280 624 LINE",
"239 431 LINE",
"339 431 LINE",
"314 313 LINE",
"214 313 LINE",
"171 111 LINE",
"310 111 LINE",
"287 0 LINE",
"40 0 LINE"
);
}
);
width = 307;
}
);
unicode = 0045;
},
{
glyphname = Eacute;
lastChange = "2012-08-26 16:25:30 +0000";
layers = (
{
layerId = "E10EC336-1202-48FF-9A55-15876E80CDFD";
name = Regular;
paths = (
{
closed = 1;
nodes = (
"461 890 LINE",
"363 800 LINE",
"285 800 LINE",
"356 890 LINE"
);
},
{
closed = 1;
nodes = (
"196 735 LINE",
"443 735 LINE",
"419 624 LINE",
"280 624 LINE",
"239 431 LINE",
"339 431 LINE",
"314 313 LINE",
"214 313 LINE",
"171 111 LINE",
"310 111 LINE",
"287 0 LINE",
"40 0 LINE"
);
}
);
width = 307;
}
);
unicode = 00C9;
},
{
glyphname = Ecircumflex;
lastChange = "2012-08-26 16:25:30 +0000";
layers = (
{
layerId = "E10EC336-1202-48FF-9A55-15876E80CDFD";
name = Regular;
paths = (
{
closed = 1;
nodes = (
"406 890 LINE",
"456 800 LINE",
"364 800 LINE",
"340 835 LINE",
"303 800 LINE",
"211 800 LINE",
"299 890 LINE"
);
},
{
closed = 1;
nodes = (
"196 735 LINE",
"443 735 LINE",
"419 624 LINE",
"280 624 LINE",
"239 431 LINE",
"339 431 LINE",
"314 313 LINE",
"214 313 LINE",
"171 111 LINE",
"310 111 LINE",
"287 0 LINE",
"40 0 LINE"
);
}
);
width = 307;
}
);
unicode = 00CA;
},
{
glyphname = Edieresis;
lastChange = "2012-08-26 16:25:30 +0000";
layers = (
{
layerId = "E10EC336-1202-48FF-9A55-15876E80CDFD";
name = Regular;
paths = (
{
closed = 1;
nodes = (
"236 898 LINE",
"329 898 LINE",
"309 800 LINE",
"216 800 LINE"
);
},
{
closed = 1;
nodes = (
"377 898 LINE",
"470 898 LINE",
"450 800 LINE",
"357 800 LINE"
);
},
{
closed = 1;
nodes = (
"196 735 LINE",
"443 735 LINE",
"419 624 LINE",
"280 624 LINE",
"239 431 LINE",
"339 431 LINE",
"314 313 LINE",
"214 313 LINE",
"171 111 LINE",
"310 111 LINE",
"287 0 LINE",
"40 0 LINE"
);
}
);
width = 307;
}
);
unicode = 00CB;
},
{
glyphname = Egrave;
lastChange = "2012-08-26 16:25:30 +0000";
layers = (
{
layerId = "E10EC336-1202-48FF-9A55-15876E80CDFD";
name = Regular;
paths = (
{
closed = 1;
nodes = (
"348 890 LINE",
"381 800 LINE",
"303 800 LINE",
"243 890 LINE"
);
},
{
closed = 1;
nodes = (
"196 735 LINE",
"443 735 LINE",
"419 624 LINE",
"280 624 LINE",
"239 431 LINE",
"339 431 LINE",
"314 313 LINE",
"214 313 LINE",
"171 111 LINE",
"310 111 LINE",
"287 0 LINE",
"40 0 LINE"
);
}
);
width = 307;
}
);
unicode = 00C8;
},
{
glyphname = F;
lastChange = "2012-08-26 16:25:30 +0000";
layers = (
{
layerId = "E10EC336-1202-48FF-9A55-15876E80CDFD";
name = Regular;
paths = (
{
closed = 1;
nodes = (
"429 624 LINE",
"280 624 LINE",
"239 431 LINE",
"339 431 LINE",
"316 320 LINE",
"216 320 LINE",
"148 0 LINE",
"40 0 LINE",
"196 735 LINE",
"453 735 LINE"
);
}
);
width = 301;
}
);
unicode = 0046;
},
{
glyphname = G;
lastChange = "2012-08-26 16:25:31 +0000";
layers = (
{
anchors = (
{
name = bottom;
position = "{180, 0}";
},
{
name = top;
position = "{180, 735}";
}
);
layerId = "E10EC336-1202-48FF-9A55-15876E80CDFD";
name = Regular;
paths = (
{
closed = 1;
nodes = (
"313 471 LINE",
"337 584 LINE SMOOTH",
"341 604 OFFCURVE",
"339 619 OFFCURVE",
"332 630 CURVE",
"328 635 OFFCURVE",
"321 638 OFFCURVE",
"312 638 CURVE SMOOTH",
"293 638 OFFCURVE",
"281 624 OFFCURVE",
"274 611 CURVE SMOOTH",
"270 603 OFFCURVE",
"267 594 OFFCURVE",
"265 584 CURVE SMOOTH",
"171 142 LINE",
"166 123 OFFCURVE",
"168 107 OFFCURVE",
"176 96 CURVE",
"180 91 OFFCURVE",
"186 88 OFFCURVE",
"195 88 CURVE SMOOTH",
"214 88 OFFCURVE",
"226 100 OFFCURVE",
"233 115 CURVE SMOOTH",
"236 121 OFFCURVE",
"240 130 OFFCURVE",
"243 142 CURVE",
"271 275 LINE",
"228 275 LINE",
"247 366 LINE",
"398 366 LINE",
"321 0 LINE",
"257 0 LINE",
"251 35 LINE",
"226 10 OFFCURVE",
"193 -8 OFFCURVE",
"158 -8 CURVE SMOOTH",
"123 -8 OFFCURVE",
"101 1 OFFCURVE",
"86 17 CURVE SMOOTH",
"71 32 OFFCURVE",
"63 51 OFFCURVE",
"60 71 CURVE",
"55 94 OFFCURVE",
"57 120 OFFCURVE",
"65 151 CURVE",
"157 584 LINE SMOOTH",
"164 613 OFFCURVE",
"175 639 OFFCURVE",
"191 663 CURVE",
"206 683 OFFCURVE",
"222 703 OFFCURVE",
"245 718 CURVE SMOOTH",
"268 733 OFFCURVE",
"298 743 OFFCURVE",
"334 743 CURVE SMOOTH",
"370 743 OFFCURVE",
"395 733 OFFCURVE",
"412 718 CURVE SMOOTH",
"429 703 OFFCURVE",
"439 683 OFFCURVE",
"443 663 CURVE",
"450 641 OFFCURVE",
"450 615 OFFCURVE",
"445 584 CURVE",
"421 471 LINE"
);
}
);
width = 360;
}
);
unicode = 0047;
},
{
glyphname = H;
lastChange = "2012-08-26 16:25:31 +0000";
layers = (
{
anchors = (
{
name = center;
position = "{190, 368}";
},
{
name = top;
position = "{190, 735}";
}
);
layerId = "E10EC336-1202-48FF-9A55-15876E80CDFD";
name = Regular;
paths = (
{
closed = 1;
nodes = (
"300 320 LINE",
"216 320 LINE",
"148 0 LINE",
"40 0 LINE",
"196 735 LINE",
"304 735 LINE",
"239 431 LINE",
"323 431 LINE",
"388 735 LINE",
"496 735 LINE",
"340 0 LINE",
"232 0 LINE"
);
}
);
width = 380;
}
);
unicode = 0048;
},
{
glyphname = I;
lastChange = "2012-08-26 16:25:31 +0000";
layers = (
{
anchors = (
{
name = ogonek;
position = "{169, 10}";
},
{
name = top;
position = "{94, 735}";
}
);
layerId = "E10EC336-1202-48FF-9A55-15876E80CDFD";
name = Regular;
paths = (
{
closed = 1;
nodes = (
"196 735 LINE",
"304 735 LINE",
"148 0 LINE",
"40 0 LINE"
);
}
);
width = 188;
}
);
unicode = 0049;
},
{
glyphname = Iacute;
lastChange = "2012-08-26 16:25:30 +0000";
layers = (
{
layerId = "E10EC336-1202-48FF-9A55-15876E80CDFD";
name = Regular;
paths = (
{
closed = 1;
nodes = (
"388 890 LINE",
"290 800 LINE",
"212 800 LINE",
"283 890 LINE"
);
},
{
closed = 1;
nodes = (
"196 735 LINE",
"304 735 LINE",
"148 0 LINE",
"40 0 LINE"
);
}
);
width = 196;
}
);
unicode = 00CD;
},
{
glyphname = Icircumflex;
lastChange = "2012-08-26 16:25:30 +0000";
layers = (
{
layerId = "E10EC336-1202-48FF-9A55-15876E80CDFD";
name = Regular;
paths = (
{
closed = 1;
nodes = (
"333 890 LINE",
"383 800 LINE",
"291 800 LINE",
"267 835 LINE",
"230 800 LINE",
"138 800 LINE",
"226 890 LINE"
);
},
{
closed = 1;
nodes = (
"192 735 LINE",
"300 735 LINE",
"144 0 LINE",
"36 0 LINE"
);
}
);
width = 181;
}
);
unicode = 00CE;
},
{
glyphname = Idieresis;
lastChange = "2012-08-26 16:25:30 +0000";
layers = (
{
layerId = "E10EC336-1202-48FF-9A55-15876E80CDFD";
name = Regular;
paths = (
{
closed = 1;
nodes = (
"164 898 LINE",
"257 898 LINE",
"237 800 LINE",
"144 800 LINE"
);
},
{
closed = 1;
nodes = (
"305 898 LINE",
"398 898 LINE",
"378 800 LINE",
"285 800 LINE"
);
},
{
closed = 1;
nodes = (
"193 735 LINE",
"301 735 LINE",
"145 0 LINE",
"37 0 LINE"
);
}
);
width = 182;
}
);
unicode = 00CF;
},
{
glyphname = Igrave;
lastChange = "2012-08-26 16:25:30 +0000";
layers = (
{
layerId = "E10EC336-1202-48FF-9A55-15876E80CDFD";
name = Regular;
paths = (
{
closed = 1;
nodes = (
"291 890 LINE",
"324 800 LINE",
"246 800 LINE",
"186 890 LINE"
);
},
{
closed = 1;
nodes = (
"204 735 LINE",
"312 735 LINE",
"156 0 LINE",
"48 0 LINE"
);
}
);
width = 196;
}
);
unicode = 00CC;
},
{
glyphname = J;
lastChange = "2012-08-26 16:25:31 +0000";
layers = (
{
anchors = (
{
name = top;
position = "{104, 735}";
}
);
layerId = "E10EC336-1202-48FF-9A55-15876E80CDFD";
name = Regular;
paths = (
{
closed = 1;
nodes = (
"27 99 LINE",
"48 96 OFFCURVE",
"65 102 OFFCURVE",
"79 117 CURVE",
"86 123 OFFCURVE",
"92 135 OFFCURVE",
"96 153 CURVE SMOOTH",
"220 735 LINE",
"328 735 LINE",
"200 136 LINE SMOOTH",
"192 96 OFFCURVE",
"174 59 OFFCURVE",
"143 32 CURVE SMOOTH",
"112 5 OFFCURVE",
"68 -11 OFFCURVE",
"4 -7 CURVE"
);
}
);
width = 207;
}
);
unicode = 004A;
},
{
glyphname = K;
lastChange = "2012-08-26 16:25:31 +0000";
layers = (
{
anchors = (
{
name = bottom;
position = "{188, 0}";
},
{
name = top;
position = "{188, 735}";
}
);
layerId = "E10EC336-1202-48FF-9A55-15876E80CDFD";
name = Regular;
paths = (
{
closed = 1;
nodes = (
"304 735 LINE",
"249 478 LINE",
"253 478 LINE",
"261 490 LINE",
"403 735 LINE",
"508 735 LINE",
"357 493 LINE",
"365 0 LINE",
"260 0 LINE",
"253 320 LINE",
"253 335 LINE",
"250 335 LINE",
"241 320 LINE",
"203 260 LINE",
"148 0 LINE",
"40 0 LINE",
"196 735 LINE"
);
}
);
width = 375;
}
);
unicode = 004B;
},
{
glyphname = L;
lastChange = "2012-08-26 16:25:31 +0000";
layers = (
{
anchors = (
{
name = bottom;
position = "{148, 0}";
},
{
name = top;
position = "{148, 735}";
}
);
layerId = "E10EC336-1202-48FF-9A55-15876E80CDFD";
name = Regular;
paths = (
{
closed = 1;
nodes = (
"196 735 LINE",
"304 735 LINE",
"169 100 LINE",
"312 100 LINE",
"291 0 LINE",
"40 0 LINE"
);
}
);
width = 295;
}
);
unicode = 004C;
},
{
glyphname = M;
lastChange = "2012-08-26 16:25:30 +0000";
layers = (
{
layerId = "E10EC336-1202-48FF-9A55-15876E80CDFD";
name = Regular;
paths = (
{
closed = 1;
nodes = (
"219 0 LINE",
"248 462 LINE",
"250 493 LINE",
"244 493 LINE",
"140 0 LINE",
"40 0 LINE",
"196 735 LINE",
"328 735 LINE",
"320 399 LINE",
"317 360 LINE",
"319 360 LINE",
"332 399 LINE",
"468 735 LINE",
"600 735 LINE",
"444 0 LINE",
"344 0 LINE",
"448 493 LINE",
"442 493 LINE",
"432 462 LINE",
"265 0 LINE"
);
}
);
width = 484;
}
);
unicode = 004D;
},
{
glyphname = N;
lastChange = "2012-08-26 16:25:31 +0000";
layers = (
{
anchors = (
{
name = bottom;
position = "{198, 0}";
},
{
name = top;
position = "{198, 735}";
}
);
layerId = "E10EC336-1202-48FF-9A55-15876E80CDFD";
name = Regular;
paths = (
{
closed = 1;
nodes = (
"235 383 LINE",
"233 417 LINE",
"227 417 LINE",
"139 0 LINE",
"40 0 LINE",
"196 735 LINE",
"292 735 LINE",
"315 352 LINE",
"317 318 LINE",
"323 318 LINE",
"412 735 LINE",
"511 735 LINE",
"355 0 LINE",
"259 0 LINE"
);
}
);
width = 395;
}
);
unicode = 004E;
},
{
glyphname = Ntilde;
lastChange = "2012-08-26 16:25:30 +0000";
layers = (
{
layerId = "E10EC336-1202-48FF-9A55-15876E80CDFD";
name = Regular;
paths = (
{
closed = 1;
nodes = (
"286 871 LINE",
"297 878 OFFCURVE",
"309 883 OFFCURVE",
"322 887 CURVE SMOOTH",
"328 889 OFFCURVE",
"335 890 OFFCURVE",
"343 890 CURVE SMOOTH",
"357 890 OFFCURVE",
"371 887 OFFCURVE",
"385 882 CURVE",
"399 875 OFFCURVE",
"413 872 OFFCURVE",
"427 871 CURVE",
"442 871 OFFCURVE",
"453 875 OFFCURVE",
"465 879 CURVE SMOOTH",
"468 880 OFFCURVE",
"471 882 OFFCURVE",
"474 883 CURVE SMOOTH",
"477 884 OFFCURVE",
"480 886 OFFCURVE",
"483 887 CURVE",
"467 813 LINE",
"458 806 OFFCURVE",
"446 800 OFFCURVE",
"431 797 CURVE",
"424 795 OFFCURVE",
"417 794 OFFCURVE",
"410 794 CURVE SMOOTH",
"395 794 OFFCURVE",
"381 797 OFFCURVE",
"369 803 CURVE",
"357 808 OFFCURVE",
"343 812 OFFCURVE",
"326 813 CURVE",
"311 813 OFFCURVE",
"299 809 OFFCURVE",
"288 805 CURVE SMOOTH",
"285 804 OFFCURVE",
"282 802 OFFCURVE",
"279 801 CURVE SMOOTH",
"276 800 OFFCURVE",
"273 798 OFFCURVE",
"270 797 CURVE"
);
},
{
closed = 1;
nodes = (
"235 383 LINE",
"233 417 LINE",
"227 417 LINE",
"139 0 LINE",
"40 0 LINE",
"196 735 LINE",
"292 735 LINE",
"315 352 LINE",
"317 318 LINE",
"323 318 LINE",
"412 735 LINE",
"511 735 LINE",
"355 0 LINE",
"259 0 LINE"
);
}
);
width = 395;
}
);
unicode = 00D1;
},
{
glyphname = O;
lastChange = "2012-08-26 16:25:31 +0000";
layers = (
{
anchors = (
{
name = top;
position = "{177, 735}";
}
);
layerId = "E10EC336-1202-48FF-9A55-15876E80CDFD";
name = Regular;
paths = (
{
closed = 1;
nodes = (
"353 151 LINE",
"345 121 OFFCURVE",
"333 94 OFFCURVE",
"318 71 CURVE",
"303 51 OFFCURVE",
"286 32 OFFCURVE",
"263 17 CURVE",
"239 0 OFFCURVE",
"210 -8 OFFCURVE",
"175 -8 CURVE SMOOTH",
"140 -8 OFFCURVE",
"114 0 OFFCURVE",
"96 17 CURVE SMOOTH",
"79 32 OFFCURVE",
"70 51 OFFCURVE",
"66 71 CURVE",
"59 94 OFFCURVE",
"59 120 OFFCURVE",
"65 151 CURVE SMOOTH",
"157 584 LINE SMOOTH",
"164 613 OFFCURVE",
"175 639 OFFCURVE",
"191 663 CURVE",
"206 683 OFFCURVE",
"222 703 OFFCURVE",
"245 718 CURVE SMOOTH",
"268 733 OFFCURVE",
"298 743 OFFCURVE",
"334 743 CURVE SMOOTH",
"370 743 OFFCURVE",
"395 733 OFFCURVE",
"412 718 CURVE SMOOTH",
"429 703 OFFCURVE",
"439 683 OFFCURVE",
"443 663 CURVE",
"450 641 OFFCURVE",
"450 615 OFFCURVE",
"445 584 CURVE"
);
},
{
closed = 1;
nodes = (
"337 584 LINE SMOOTH",
"341 604 OFFCURVE",
"339 619 OFFCURVE",
"332 630 CURVE",
"328 635 OFFCURVE",
"321 638 OFFCURVE",
"312 638 CURVE SMOOTH",
"293 638 OFFCURVE",
"281 624 OFFCURVE",
"274 611 CURVE SMOOTH",
"270 603 OFFCURVE",
"267 594 OFFCURVE",
"265 584 CURVE SMOOTH",
"173 151 LINE",
"168 132 OFFCURVE",
"170 116 OFFCURVE",
"178 105 CURVE",
"182 100 OFFCURVE",
"188 97 OFFCURVE",
"197 97 CURVE SMOOTH",
"216 97 OFFCURVE",
"228 109 OFFCURVE",
"235 124 CURVE SMOOTH",
"238 130 OFFCURVE",
"242 139 OFFCURVE",
"245 151 CURVE"
);
}
);
width = 354;
}
);
unicode = 004F;
},
{
glyphname = Oacute;
lastChange = "2012-08-26 16:25:30 +0000";
layers = (
{
layerId = "E10EC336-1202-48FF-9A55-15876E80CDFD";
name = Regular;
paths = (
{
closed = 1;
nodes = (
"485 890 LINE",
"387 800 LINE",
"309 800 LINE",
"380 890 LINE"
);
},
{
closed = 1;
nodes = (
"353 151 LINE",
"345 121 OFFCURVE",
"333 94 OFFCURVE",
"318 71 CURVE",
"303 51 OFFCURVE",
"286 32 OFFCURVE",
"263 17 CURVE",
"239 0 OFFCURVE",
"210 -8 OFFCURVE",
"175 -8 CURVE SMOOTH",
"140 -8 OFFCURVE",
"114 0 OFFCURVE",
"96 17 CURVE SMOOTH",
"79 32 OFFCURVE",
"70 51 OFFCURVE",
"66 71 CURVE",
"59 94 OFFCURVE",
"59 120 OFFCURVE",
"65 151 CURVE SMOOTH",
"157 584 LINE SMOOTH",
"164 613 OFFCURVE",
"175 639 OFFCURVE",
"191 663 CURVE",
"206 683 OFFCURVE",
"222 703 OFFCURVE",
"245 718 CURVE SMOOTH",
"268 733 OFFCURVE",
"298 743 OFFCURVE",
"334 743 CURVE SMOOTH",
"370 743 OFFCURVE",
"395 733 OFFCURVE",
"412 718 CURVE SMOOTH",
"429 703 OFFCURVE",
"439 683 OFFCURVE",
"443 663 CURVE",
"450 641 OFFCURVE",
"450 615 OFFCURVE",
"445 584 CURVE"
);
},
{
closed = 1;
nodes = (
"337 584 LINE SMOOTH",
"341 604 OFFCURVE",
"339 619 OFFCURVE",
"332 630 CURVE",
"328 635 OFFCURVE",
"321 638 OFFCURVE",
"312 638 CURVE SMOOTH",
"293 638 OFFCURVE",
"281 624 OFFCURVE",
"274 611 CURVE SMOOTH",
"270 603 OFFCURVE",
"267 594 OFFCURVE",
"265 584 CURVE SMOOTH",
"173 151 LINE",
"168 132 OFFCURVE",
"170 116 OFFCURVE",
"178 105 CURVE",
"182 100 OFFCURVE",
"188 97 OFFCURVE",
"197 97 CURVE SMOOTH",
"216 97 OFFCURVE",
"228 109 OFFCURVE",
"235 124 CURVE SMOOTH",
"238 130 OFFCURVE",
"242 139 OFFCURVE",
"245 151 CURVE"
);
}
);
width = 354;
}
);
unicode = 00D3;
},
{
glyphname = Ocircumflex;
lastChange = "2012-08-26 16:25:30 +0000";
layers = (
{
layerId = "E10EC336-1202-48FF-9A55-15876E80CDFD";
name = Regular;
paths = (
{
closed = 1;
nodes = (
"420 890 LINE",
"470 800 LINE",
"378 800 LINE",
"354 835 LINE",
"317 800 LINE",
"225 800 LINE",
"313 890 LINE"
);
},
{
closed = 1;
nodes = (
"353 151 LINE",
"345 121 OFFCURVE",
"333 94 OFFCURVE",
"318 71 CURVE",
"303 51 OFFCURVE",
"286 32 OFFCURVE",
"263 17 CURVE",
"239 0 OFFCURVE",
"210 -8 OFFCURVE",
"175 -8 CURVE SMOOTH",
"140 -8 OFFCURVE",
"114 0 OFFCURVE",
"96 17 CURVE SMOOTH",
"79 32 OFFCURVE",
"70 51 OFFCURVE",
"66 71 CURVE",
"59 94 OFFCURVE",
"59 120 OFFCURVE",
"65 151 CURVE SMOOTH",
"157 584 LINE SMOOTH",
"164 613 OFFCURVE",
"175 639 OFFCURVE",
"191 663 CURVE",
"206 683 OFFCURVE",
"222 703 OFFCURVE",
"245 718 CURVE SMOOTH",
"268 733 OFFCURVE",
"298 743 OFFCURVE",
"334 743 CURVE SMOOTH",
"370 743 OFFCURVE",
"395 733 OFFCURVE",
"412 718 CURVE SMOOTH",
"429 703 OFFCURVE",
"439 683 OFFCURVE",
"443 663 CURVE",
"450 641 OFFCURVE",
"450 615 OFFCURVE",
"445 584 CURVE"
);
},
{
closed = 1;
nodes = (
"337 584 LINE SMOOTH",
"341 604 OFFCURVE",
"339 619 OFFCURVE",
"332 630 CURVE",
"328 635 OFFCURVE",
"321 638 OFFCURVE",
"312 638 CURVE SMOOTH",
"293 638 OFFCURVE",
"281 624 OFFCURVE",
"274 611 CURVE SMOOTH",
"270 603 OFFCURVE",
"267 594 OFFCURVE",
"265 584 CURVE SMOOTH",
"173 151 LINE",
"168 132 OFFCURVE",
"170 116 OFFCURVE",
"178 105 CURVE",
"182 100 OFFCURVE",
"188 97 OFFCURVE",
"197 97 CURVE SMOOTH",
"216 97 OFFCURVE",
"228 109 OFFCURVE",
"235 124 CURVE SMOOTH",
"238 130 OFFCURVE",
"242 139 OFFCURVE",
"245 151 CURVE"
);
}
);
width = 354;
}
);
unicode = 00D4;
},
{
glyphname = Odieresis;
lastChange = "2012-08-26 16:25:30 +0000";
layers = (
{
layerId = "E10EC336-1202-48FF-9A55-15876E80CDFD";
name = Regular;
paths = (
{
closed = 1;
nodes = (
"250 898 LINE",
"343 898 LINE",
"323 800 LINE",
"230 800 LINE"
);
},
{
closed = 1;
nodes = (
"391 898 LINE",
"484 898 LINE",
"464 800 LINE",
"371 800 LINE"
);
},
{
closed = 1;
nodes = (
"353 151 LINE",
"345 121 OFFCURVE",
"333 94 OFFCURVE",
"318 71 CURVE",
"303 51 OFFCURVE",
"286 32 OFFCURVE",
"263 17 CURVE",
"239 0 OFFCURVE",
"210 -8 OFFCURVE",
"175 -8 CURVE SMOOTH",
"140 -8 OFFCURVE",
"114 0 OFFCURVE",
"96 17 CURVE SMOOTH",
"79 32 OFFCURVE",
"70 51 OFFCURVE",
"66 71 CURVE",
"59 94 OFFCURVE",
"59 120 OFFCURVE",
"65 151 CURVE SMOOTH",
"157 584 LINE SMOOTH",
"164 613 OFFCURVE",
"175 639 OFFCURVE",
"191 663 CURVE",
"206 683 OFFCURVE",
"222 703 OFFCURVE",
"245 718 CURVE SMOOTH",
"268 733 OFFCURVE",
"298 743 OFFCURVE",
"334 743 CURVE SMOOTH",
"370 743 OFFCURVE",
"395 733 OFFCURVE",
"412 718 CURVE SMOOTH",
"429 703 OFFCURVE",
"439 683 OFFCURVE",
"443 663 CURVE",
"450 641 OFFCURVE",
"450 615 OFFCURVE",
"445 584 CURVE"
);
},
{
closed = 1;
nodes = (
"337 584 LINE SMOOTH",
"341 604 OFFCURVE",
"339 619 OFFCURVE",
"332 630 CURVE",
"328 635 OFFCURVE",
"321 638 OFFCURVE",
"312 638 CURVE SMOOTH",
"293 638 OFFCURVE",
"281 624 OFFCURVE",
"274 611 CURVE SMOOTH",
"270 603 OFFCURVE",
"267 594 OFFCURVE",
"265 584 CURVE SMOOTH",
"173 151 LINE",
"168 132 OFFCURVE",
"170 116 OFFCURVE",
"178 105 CURVE",
"182 100 OFFCURVE",
"188 97 OFFCURVE",
"197 97 CURVE SMOOTH",
"216 97 OFFCURVE",
"228 109 OFFCURVE",
"235 124 CURVE SMOOTH",
"238 130 OFFCURVE",
"242 139 OFFCURVE",
"245 151 CURVE"
);
}
);
width = 354;
}
);
unicode = 00D6;
},
{
glyphname = Ograve;
lastChange = "2012-08-26 16:25:30 +0000";
layers = (
{
layerId = "E10EC336-1202-48FF-9A55-15876E80CDFD";
name = Regular;
paths = (
{
closed = 1;
nodes = (
"353 890 LINE",
"386 800 LINE",
"308 800 LINE",
"248 890 LINE"
);
},
{
closed = 1;
nodes = (
"353 151 LINE",
"345 121 OFFCURVE",
"333 94 OFFCURVE",
"318 71 CURVE",
"303 51 OFFCURVE",
"286 32 OFFCURVE",
"263 17 CURVE",
"239 0 OFFCURVE",
"210 -8 OFFCURVE",
"175 -8 CURVE SMOOTH",
"140 -8 OFFCURVE",
"114 0 OFFCURVE",
"96 17 CURVE SMOOTH",
"79 32 OFFCURVE",
"70 51 OFFCURVE",
"66 71 CURVE",
"59 94 OFFCURVE",
"59 120 OFFCURVE",
"65 151 CURVE SMOOTH",
"157 584 LINE SMOOTH",
"164 613 OFFCURVE",
"175 639 OFFCURVE",
"191 663 CURVE",
"206 683 OFFCURVE",
"222 703 OFFCURVE",
"245 718 CURVE SMOOTH",
"268 733 OFFCURVE",
"298 743 OFFCURVE",
"334 743 CURVE SMOOTH",
"370 743 OFFCURVE",
"395 733 OFFCURVE",
"412 718 CURVE SMOOTH",
"429 703 OFFCURVE",
"439 683 OFFCURVE",
"443 663 CURVE",
"450 641 OFFCURVE",
"450 615 OFFCURVE",
"445 584 CURVE"
);
},
{
closed = 1;
nodes = (
"337 584 LINE SMOOTH",
"341 604 OFFCURVE",
"339 619 OFFCURVE",
"332 630 CURVE",
"328 635 OFFCURVE",
"321 638 OFFCURVE",
"312 638 CURVE SMOOTH",
"293 638 OFFCURVE",
"281 624 OFFCURVE",
"274 611 CURVE SMOOTH",
"270 603 OFFCURVE",
"267 594 OFFCURVE",
"265 584 CURVE SMOOTH",
"173 151 LINE",
"168 132 OFFCURVE",
"170 116 OFFCURVE",
"178 105 CURVE",
"182 100 OFFCURVE",
"188 97 OFFCURVE",
"197 97 CURVE SMOOTH",
"216 97 OFFCURVE",
"228 109 OFFCURVE",
"235 124 CURVE SMOOTH",
"238 130 OFFCURVE",
"242 139 OFFCURVE",
"245 151 CURVE"
);
}
);
width = 354;
}
);
unicode = 00D2;
},
{
glyphname = Oslash;
lastChange = "2012-08-26 16:25:31 +0000";
layers = (
{
anchors = (
{
name = top;
position = "{177, 735}";
}
);
layerId = "E10EC336-1202-48FF-9A55-15876E80CDFD";
name = Regular;
paths = (
{
closed = 1;
nodes = (
"26 -10 LINE",
"66 67 LINE",
"59 87 OFFCURVE",
"60 108 OFFCURVE",
"61 124 CURVE",
"62 129 OFFCURVE",
"62 133 OFFCURVE",
"63 138 CURVE",
"63 142 OFFCURVE",
"64 146 OFFCURVE",
"65 151 CURVE SMOOTH",
"157 584 LINE SMOOTH",
"164 613 OFFCURVE",
"175 639 OFFCURVE",
"191 663 CURVE",
"206 683 OFFCURVE",
"222 703 OFFCURVE",
"245 718 CURVE SMOOTH",
"268 733 OFFCURVE",
"298 743 OFFCURVE",
"334 743 CURVE SMOOTH",
"365 743 OFFCURVE",
"389 736 OFFCURVE",
"407 722 CURVE",
"419 745 LINE",
"479 745 LINE",
"441 672 LINE",
"448 651 OFFCURVE",
"448 629 OFFCURVE",
"448 612 CURVE",
"447 607 OFFCURVE",
"447 602 OFFCURVE",
"447 598 CURVE SMOOTH",
"447 593 OFFCURVE",
"446 589 OFFCURVE",
"445 584 CURVE SMOOTH",
"353 151 LINE",
"345 121 OFFCURVE",
"333 94 OFFCURVE",
"318 71 CURVE",
"303 51 OFFCURVE",
"286 32 OFFCURVE",
"263 17 CURVE",
"239 0 OFFCURVE",
"210 -8 OFFCURVE",
"175 -8 CURVE SMOOTH",
"144 -8 OFFCURVE",
"119 -1 OFFCURVE",
"101 13 CURVE",
"89 -10 LINE"
);
},
{
closed = 1;
nodes = (
"216 355 LINE",
"338 589 LINE",
"339 595 OFFCURVE",
"339 605 OFFCURVE",
"338 618 CURVE",
"335 629 OFFCURVE",
"328 638 OFFCURVE",
"312 638 CURVE SMOOTH",
"293 638 OFFCURVE",
"281 624 OFFCURVE",
"274 611 CURVE SMOOTH",
"270 603 OFFCURVE",
"267 594 OFFCURVE",
"265 584 CURVE SMOOTH"
);
},
{
closed = 1;
nodes = (
"295 389 LINE",
"173 151 LINE",
"168 132 OFFCURVE",
"170 116 OFFCURVE",
"178 105 CURVE",
"182 100 OFFCURVE",
"188 97 OFFCURVE",
"197 97 CURVE SMOOTH",
"216 97 OFFCURVE",
"228 109 OFFCURVE",
"235 124 CURVE SMOOTH",
"238 130 OFFCURVE",
"242 139 OFFCURVE",
"245 151 CURVE"
);
}
);
width = 354;
}
);
unicode = 00D8;
},
{
glyphname = Otilde;
lastChange = "2012-08-26 16:25:30 +0000";
layers = (
{
layerId = "E10EC336-1202-48FF-9A55-15876E80CDFD";
name = Regular;
paths = (
{
closed = 1;
nodes = (
"265 871 LINE",
"276 878 OFFCURVE",
"288 883 OFFCURVE",
"301 887 CURVE SMOOTH",
"307 889 OFFCURVE",
"314 890 OFFCURVE",
"322 890 CURVE SMOOTH",
"336 890 OFFCURVE",
"350 887 OFFCURVE",
"364 882 CURVE",
"378 875 OFFCURVE",
"392 872 OFFCURVE",
"406 871 CURVE",
"421 871 OFFCURVE",
"432 875 OFFCURVE",
"444 879 CURVE SMOOTH",
"447 880 OFFCURVE",
"450 882 OFFCURVE",
"453 883 CURVE SMOOTH",
"456 884 OFFCURVE",
"459 886 OFFCURVE",
"462 887 CURVE",
"446 813 LINE",
"437 806 OFFCURVE",
"425 800 OFFCURVE",
"410 797 CURVE",
"403 795 OFFCURVE",
"396 794 OFFCURVE",
"389 794 CURVE SMOOTH",
"374 794 OFFCURVE",
"360 797 OFFCURVE",
"348 803 CURVE",
"336 808 OFFCURVE",
"322 812 OFFCURVE",
"305 813 CURVE",
"290 813 OFFCURVE",
"278 809 OFFCURVE",
"267 805 CURVE SMOOTH",
"264 804 OFFCURVE",
"261 802 OFFCURVE",
"258 801 CURVE SMOOTH",
"255 800 OFFCURVE",
"252 798 OFFCURVE",
"249 797 CURVE"
);
},
{
closed = 1;
nodes = (
"353 151 LINE",
"345 121 OFFCURVE",
"333 94 OFFCURVE",
"318 71 CURVE",
"303 51 OFFCURVE",
"286 32 OFFCURVE",
"263 17 CURVE",
"239 0 OFFCURVE",
"210 -8 OFFCURVE",
"175 -8 CURVE SMOOTH",
"140 -8 OFFCURVE",
"114 0 OFFCURVE",
"96 17 CURVE SMOOTH",
"79 32 OFFCURVE",
"70 51 OFFCURVE",
"66 71 CURVE",
"59 94 OFFCURVE",
"59 120 OFFCURVE",
"65 151 CURVE SMOOTH",
"157 584 LINE SMOOTH",
"164 613 OFFCURVE",
"175 639 OFFCURVE",
"191 663 CURVE",
"206 683 OFFCURVE",
"222 703 OFFCURVE",
"245 718 CURVE SMOOTH",
"268 733 OFFCURVE",
"298 743 OFFCURVE",
"334 743 CURVE SMOOTH",
"370 743 OFFCURVE",
"395 733 OFFCURVE",
"412 718 CURVE SMOOTH",
"429 703 OFFCURVE",
"439 683 OFFCURVE",
"443 663 CURVE",
"450 641 OFFCURVE",
"450 615 OFFCURVE",
"445 584 CURVE"
);
},
{
closed = 1;
nodes = (
"337 584 LINE SMOOTH",
"341 604 OFFCURVE",
"339 619 OFFCURVE",
"332 630 CURVE",
"328 635 OFFCURVE",
"321 638 OFFCURVE",
"312 638 CURVE SMOOTH",
"293 638 OFFCURVE",
"281 624 OFFCURVE",
"274 611 CURVE SMOOTH",
"270 603 OFFCURVE",
"267 594 OFFCURVE",
"265 584 CURVE SMOOTH",
"173 151 LINE",
"168 132 OFFCURVE",
"170 116 OFFCURVE",
"178 105 CURVE",
"182 100 OFFCURVE",
"188 97 OFFCURVE",
"197 97 CURVE SMOOTH",
"216 97 OFFCURVE",
"228 109 OFFCURVE",
"235 124 CURVE SMOOTH",
"238 130 OFFCURVE",
"242 139 OFFCURVE",
"245 151 CURVE"
);
}
);
width = 354;
}
);
unicode = 00D5;
},
{
glyphname = OE;
lastChange = "2012-08-26 16:25:31 +0000";
layers = (
{
anchors = (
{
name = top;
position = "{240, 735}";
}
);
layerId = "E10EC336-1202-48FF-9A55-15876E80CDFD";
name = Regular;
paths = (
{
closed = 1;
nodes = (
"177 0 LINE SMOOTH",
"141 0 OFFCURVE",
"115 9 OFFCURVE",
"98 24 CURVE SMOOTH",
"66 51 OFFCURVE",
"53 96 OFFCURVE",
"65 151 CURVE SMOOTH",
"157 584 LINE SMOOTH",
"164 613 OFFCURVE",
"176 638 OFFCURVE",
"191 659 CURVE SMOOTH",
"204 678 OFFCURVE",
"221 697 OFFCURVE",
"244 712 CURVE SMOOTH",
"267 727 OFFCURVE",
"297 735 OFFCURVE",
"333 735 CURVE SMOOTH",
"616 735 LINE",
"592 624 LINE",
"453 624 LINE",
"412 431 LINE",
"512 431 LINE",
"487 313 LINE",
"387 313 LINE",
"344 111 LINE",
"483 111 LINE",
"460 0 LINE"
);
},
{
closed = 1;
nodes = (
"338 591 LINE",
"341 600 OFFCURVE",
"340 609 OFFCURVE",
"337 620 CURVE SMOOTH",
"334 631 OFFCURVE",
"327 638 OFFCURVE",
"312 638 CURVE SMOOTH",
"293 638 OFFCURVE",
"281 624 OFFCURVE",
"274 611 CURVE SMOOTH",
"270 603 OFFCURVE",
"267 594 OFFCURVE",
"265 584 CURVE SMOOTH",
"173 151 LINE",
"168 132 OFFCURVE",
"170 116 OFFCURVE",
"178 105 CURVE",
"182 100 OFFCURVE",
"188 97 OFFCURVE",
"197 97 CURVE SMOOTH",
"216 97 OFFCURVE",
"228 109 OFFCURVE",
"235 124 CURVE SMOOTH",
"238 130 OFFCURVE",
"242 139 OFFCURVE",
"245 151 CURVE"
);
}
);
width = 480;
}
);
unicode = 0152;
},
{
glyphname = P;
lastChange = "2012-08-26 16:25:30 +0000";
layers = (
{
layerId = "E10EC336-1202-48FF-9A55-15876E80CDFD";
name = Regular;
paths = (
{
closed = 1;
nodes = (
"196 735 LINE",
"304 735 LINE SMOOTH",
"351 735 OFFCURVE",
"395 724 OFFCURVE",
"424 689 CURVE SMOOTH",
"453 654 OFFCURVE",
"466 599 OFFCURVE",
"447 515 CURVE SMOOTH",
"428 431 OFFCURVE",
"393 377 OFFCURVE",
"350 342 CURVE SMOOTH",
"307 307 OFFCURVE",
"257 294 OFFCURVE",
"210 294 CURVE",
"148 0 LINE",
"40 0 LINE"
);
},
{
closed = 1;
nodes = (
"233 404 LINE",
"266 404 OFFCURVE",
"289 410 OFFCURVE",
"304 427 CURVE",
"320 443 OFFCURVE",
"328 470 OFFCURVE",
"337 511 CURVE SMOOTH",
"346 552 OFFCURVE",
"349 580 OFFCURVE",
"341 599 CURVE",
"333 616 OFFCURVE",
"313 625 OFFCURVE",
"280 625 CURVE"
);
}
);
width = 352;
}
);
unicode = 0050;
},
{
glyphname = Q;
lastChange = "2012-08-26 16:25:30 +0000";
layers = (
{
layerId = "E10EC336-1202-48FF-9A55-15876E80CDFD";
name = Regular;
paths = (
{
closed = 1;
nodes = (
"353 151 LINE SMOOTH",
"349 133 OFFCURVE",
"342 114 OFFCURVE",
"331 94 CURVE",
"326 83 OFFCURVE",
"319 73 OFFCURVE",
"312 62 CURVE",
"319 50 OFFCURVE",
"329 40 OFFCURVE",
"349 36 CURVE",
"330 -56 LINE",
"269 -56 OFFCURVE",
"243 -30 OFFCURVE",
"231 1 CURVE",
"215 -4 OFFCURVE",
"196 -8 OFFCURVE",
"175 -8 CURVE SMOOTH",
"140 -8 OFFCURVE",
"114 0 OFFCURVE",
"96 17 CURVE SMOOTH",
"79 32 OFFCURVE",
"70 51 OFFCURVE",
"66 71 CURVE",
"59 94 OFFCURVE",
"59 120 OFFCURVE",
"65 151 CURVE SMOOTH",
"157 584 LINE SMOOTH",
"164 613 OFFCURVE",
"175 639 OFFCURVE",
"191 663 CURVE",
"206 683 OFFCURVE",
"222 703 OFFCURVE",
"245 718 CURVE SMOOTH",
"268 733 OFFCURVE",
"298 743 OFFCURVE",
"334 743 CURVE SMOOTH",
"370 743 OFFCURVE",
"395 733 OFFCURVE",
"412 718 CURVE SMOOTH",
"429 703 OFFCURVE",
"439 683 OFFCURVE",
"443 663 CURVE",
"450 641 OFFCURVE",
"450 615 OFFCURVE",
"445 584 CURVE"
);
},
{
closed = 1;
nodes = (
"337 584 LINE SMOOTH",
"341 604 OFFCURVE",
"339 619 OFFCURVE",
"332 630 CURVE",
"328 635 OFFCURVE",
"321 638 OFFCURVE",
"312 638 CURVE SMOOTH",
"293 638 OFFCURVE",
"281 624 OFFCURVE",
"274 611 CURVE SMOOTH",
"270 603 OFFCURVE",
"267 594 OFFCURVE",
"265 584 CURVE SMOOTH",
"173 151 LINE",
"168 132 OFFCURVE",
"170 116 OFFCURVE",
"178 105 CURVE",
"182 100 OFFCURVE",
"188 97 OFFCURVE",
"197 97 CURVE SMOOTH",
"216 97 OFFCURVE",
"228 109 OFFCURVE",
"235 124 CURVE SMOOTH",
"238 130 OFFCURVE",
"242 139 OFFCURVE",
"245 151 CURVE"
);
}
);
width = 356;
}
);
unicode = 0051;
},
{
glyphname = R;
lastChange = "2012-08-26 16:25:31 +0000";
layers = (
{
anchors = (
{
name = bottom;
position = "{181, 0}";
},
{
name = top;
position = "{181, 735}";
}
);
layerId = "E10EC336-1202-48FF-9A55-15876E80CDFD";
name = Regular;
paths = (
{
closed = 1;
nodes = (
"233 0 LINE",
"242 310 LINE",
"213 310 LINE",
"148 0 LINE",
"40 0 LINE",
"196 735 LINE",
"304 735 LINE SMOOTH",
"433 735 OFFCURVE",
"472 663 OFFCURVE",
"443 523 CURVE SMOOTH",
"427 450 OFFCURVE",
"394 384 OFFCURVE",
"347 356 CURVE",
"341 0 LINE"
);
},
{
closed = 1;
nodes = (
"235 410 LINE",
"250 410 OFFCURVE",
"270 411 OFFCURVE",
"289 426 CURVE SMOOTH",
"308 441 OFFCURVE",
"327 467 OFFCURVE",
"338 519 CURVE SMOOTH",
"349 571 OFFCURVE",
"342 598 OFFCURVE",
"329 613 CURVE SMOOTH",
"316 628 OFFCURVE",
"296 628 OFFCURVE",
"281 628 CURVE"
);
}
);
width = 361;
}
);
unicode = 0052;
},
{
glyphname = S;
lastChange = "2012-08-26 16:25:31 +0000";
layers = (
{
anchors = (
{
name = bottom;
position = "{172, 0}";
},
{
name = top;
position = "{172, 735}";
}
);
layerId = "E10EC336-1202-48FF-9A55-15876E80CDFD";
name = Regular;
paths = (
{
closed = 1;
nodes = (
"333 538 LINE",
"338 562 OFFCURVE",
"343 589 OFFCURVE",
"340 610 CURVE SMOOTH",
"337 630 OFFCURVE",
"329 644 OFFCURVE",
"312 644 CURVE",
"284 643 OFFCURVE",
"269 614 OFFCURVE",
"260 571 CURVE SMOOTH",
"255 546 OFFCURVE",
"259 520 OFFCURVE",
"270 492 CURVE SMOOTH",
"281 464 OFFCURVE",
"294 435 OFFCURVE",
"309 404 CURVE SMOOTH",
"328 367 OFFCURVE",
"343 329 OFFCURVE",
"355 292 CURVE SMOOTH",
"366 255 OFFCURVE",
"371 217 OFFCURVE",
"362 177 CURVE SMOOTH",
"351 128 OFFCURVE",
"335 83 OFFCURVE",
"304 48 CURVE SMOOTH",
"273 13 OFFCURVE",
"233 -8 OFFCURVE",
"173 -8 CURVE SMOOTH",
"104 -8 OFFCURVE",
"70 18 OFFCURVE",
"57 58 CURVE",
"42 98 OFFCURVE",
"50 150 OFFCURVE",
"61 206 CURVE",
"169 216 LINE",
"162 185 OFFCURVE",
"157 154 OFFCURVE",
"160 131 CURVE SMOOTH",
"163 107 OFFCURVE",
"171 91 OFFCURVE",
"194 91 CURVE SMOOTH",
"226 91 OFFCURVE",
"244 125 OFFCURVE",
"255 172 CURVE SMOOTH",
"260 196 OFFCURVE",
"255 224 OFFCURVE",
"244 253 CURVE",
"241 260 OFFCURVE",
"238 268 OFFCURVE",
"235 275 CURVE SMOOTH",
"232 282 OFFCURVE",
"229 290 OFFCURVE",
"226 297 CURVE SMOOTH",
"219 312 OFFCURVE",
"211 328 OFFCURVE",
"203 345 CURVE SMOOTH",
"195 362 OFFCURVE",
"187 379 OFFCURVE",
"179 398 CURVE SMOOTH",
"162 436 OFFCURVE",
"153 474 OFFCURVE",
"150 512 CURVE",
"147 531 OFFCURVE",
"150 551 OFFCURVE",
"154 571 CURVE SMOOTH",
"162 611 OFFCURVE",
"180 654 OFFCURVE",
"211 687 CURVE SMOOTH",
"240 719 OFFCURVE",
"280 742 OFFCURVE",
"331 743 CURVE SMOOTH",
"398 744 OFFCURVE",
"429 717 OFFCURVE",
"442 678 CURVE SMOOTH",
"454 638 OFFCURVE",
"450 589 OFFCURVE",
"441 548 CURVE"
);
}
);
width = 343;
}
);
unicode = 0053;
},
{
glyphname = T;
lastChange = "2012-08-26 16:42:29 +0000";
layers = (
{
anchors = (
{
name = bottom;
position = "{158, 0}";
},
{
name = center;
position = "{158, 368}";
},
{
name = top;
position = "{158, 735}";
}
);
layerId = "E10EC336-1202-48FF-9A55-15876E80CDFD";
name = Regular;
paths = (
{
closed = 1;
nodes = (
"134 624 LINE",
"158 735 LINE",
"470 735 LINE",
"446 624 LINE",
"344 624 LINE",
"212 0 LINE",
"104 0 LINE",
"236 624 LINE"
);
}
);
width = 316;
}
);
unicode = 0054;
},
{
glyphname = U;
lastChange = "2012-08-26 16:25:31 +0000";
layers = (
{
anchors = (
{
name = ogonek;
position = "{329, 10}";
},
{
name = top;
position = "{183, 735}";
}
);
layerId = "E10EC336-1202-48FF-9A55-15876E80CDFD";
name = Regular;
paths = (
{
closed = 1;
nodes = (
"483 735 LINE",
"359 151 LINE",
"351 121 OFFCURVE",
"339 94 OFFCURVE",
"324 71 CURVE",
"309 51 OFFCURVE",
"292 32 OFFCURVE",
"269 17 CURVE",
"245 0 OFFCURVE",
"216 -8 OFFCURVE",
"181 -8 CURVE SMOOTH",
"146 -8 OFFCURVE",
"120 0 OFFCURVE",
"102 17 CURVE SMOOTH",
"85 32 OFFCURVE",
"76 51 OFFCURVE",
"72 71 CURVE",
"65 94 OFFCURVE",
"65 120 OFFCURVE",
"71 151 CURVE SMOOTH",
"195 735 LINE",
"303 735 LINE",
"179 151 LINE",
"174 132 OFFCURVE",
"176 116 OFFCURVE",
"184 105 CURVE",
"188 100 OFFCURVE",
"194 97 OFFCURVE",
"203 97 CURVE SMOOTH",
"222 97 OFFCURVE",
"234 109 OFFCURVE",
"241 124 CURVE SMOOTH",
"244 130 OFFCURVE",
"248 139 OFFCURVE",
"251 151 CURVE",
"375 735 LINE"
);
}
);
width = 366;
}
);
unicode = 0055;
},
{
glyphname = Uacute;
lastChange = "2012-08-26 16:25:30 +0000";
layers = (
{
layerId = "E10EC336-1202-48FF-9A55-15876E80CDFD";
name = Regular;
paths = (
{
closed = 1;
nodes = (
"496 890 LINE",
"398 800 LINE",
"320 800 LINE",
"391 890 LINE"
);
},
{
closed = 1;
nodes = (
"483 735 LINE",
"359 151 LINE",
"351 121 OFFCURVE",
"339 94 OFFCURVE",
"324 71 CURVE",
"309 51 OFFCURVE",
"292 32 OFFCURVE",
"269 17 CURVE",
"245 0 OFFCURVE",
"216 -8 OFFCURVE",
"181 -8 CURVE SMOOTH",
"146 -8 OFFCURVE",
"120 0 OFFCURVE",
"102 17 CURVE SMOOTH",
"85 32 OFFCURVE",
"76 51 OFFCURVE",
"72 71 CURVE",
"65 94 OFFCURVE",
"65 120 OFFCURVE",
"71 151 CURVE SMOOTH",
"195 735 LINE",
"303 735 LINE",
"179 151 LINE",
"174 132 OFFCURVE",
"176 116 OFFCURVE",
"184 105 CURVE",
"188 100 OFFCURVE",
"194 97 OFFCURVE",
"203 97 CURVE SMOOTH",
"222 97 OFFCURVE",
"234 109 OFFCURVE",
"241 124 CURVE SMOOTH",
"244 130 OFFCURVE",
"248 139 OFFCURVE",
"251 151 CURVE",
"375 735 LINE"
);
}
);
width = 366;
}
);
unicode = 00DA;
},
{
glyphname = Ucircumflex;
lastChange = "2012-08-26 16:25:30 +0000";
layers = (
{
layerId = "E10EC336-1202-48FF-9A55-15876E80CDFD";
name = Regular;
paths = (
{
closed = 1;
nodes = (
"426 890 LINE",
"476 800 LINE",
"384 800 LINE",
"360 835 LINE",
"323 800 LINE",
"231 800 LINE",
"319 890 LINE"
);
},
{
closed = 1;
nodes = (
"483 735 LINE",
"359 151 LINE",
"351 121 OFFCURVE",
"339 94 OFFCURVE",
"324 71 CURVE",
"309 51 OFFCURVE",
"292 32 OFFCURVE",
"269 17 CURVE",
"245 0 OFFCURVE",
"216 -8 OFFCURVE",
"181 -8 CURVE SMOOTH",
"146 -8 OFFCURVE",
"120 0 OFFCURVE",
"102 17 CURVE SMOOTH",
"85 32 OFFCURVE",
"76 51 OFFCURVE",
"72 71 CURVE",
"65 94 OFFCURVE",
"65 120 OFFCURVE",
"71 151 CURVE SMOOTH",
"195 735 LINE",
"303 735 LINE",
"179 151 LINE",
"174 132 OFFCURVE",
"176 116 OFFCURVE",
"184 105 CURVE",
"188 100 OFFCURVE",
"194 97 OFFCURVE",
"203 97 CURVE SMOOTH",
"222 97 OFFCURVE",
"234 109 OFFCURVE",
"241 124 CURVE SMOOTH",
"244 130 OFFCURVE",
"248 139 OFFCURVE",
"251 151 CURVE",
"375 735 LINE"
);
}
);
width = 366;
}
);
unicode = 00DB;
},
{
glyphname = Udieresis;
lastChange = "2012-08-26 16:25:30 +0000";
layers = (
{
layerId = "E10EC336-1202-48FF-9A55-15876E80CDFD";
name = Regular;
paths = (
{
closed = 1;
nodes = (
"256 898 LINE",
"349 898 LINE",
"329 800 LINE",
"236 800 LINE"
);
},
{
closed = 1;
nodes = (
"397 898 LINE",
"490 898 LINE",
"470 800 LINE",
"377 800 LINE"
);
},
{
closed = 1;
nodes = (
"483 735 LINE",
"359 151 LINE",
"351 121 OFFCURVE",
"339 94 OFFCURVE",
"324 71 CURVE",
"309 51 OFFCURVE",
"292 32 OFFCURVE",
"269 17 CURVE",
"245 0 OFFCURVE",
"216 -8 OFFCURVE",
"181 -8 CURVE SMOOTH",
"146 -8 OFFCURVE",
"120 0 OFFCURVE",
"102 17 CURVE SMOOTH",
"85 32 OFFCURVE",
"76 51 OFFCURVE",
"72 71 CURVE",
"65 94 OFFCURVE",
"65 120 OFFCURVE",
"71 151 CURVE SMOOTH",
"195 735 LINE",
"303 735 LINE",
"179 151 LINE",
"174 132 OFFCURVE",
"176 116 OFFCURVE",
"184 105 CURVE",
"188 100 OFFCURVE",
"194 97 OFFCURVE",
"203 97 CURVE SMOOTH",
"222 97 OFFCURVE",
"234 109 OFFCURVE",
"241 124 CURVE SMOOTH",
"244 130 OFFCURVE",
"248 139 OFFCURVE",
"251 151 CURVE",
"375 735 LINE"
);
}
);
width = 366;
}
);
unicode = 00DC;
},
{
glyphname = Ugrave;
lastChange = "2012-08-26 16:25:30 +0000";
layers = (
{
layerId = "E10EC336-1202-48FF-9A55-15876E80CDFD";
name = Regular;
paths = (
{
closed = 1;
nodes = (
"365 890 LINE",
"398 800 LINE",
"320 800 LINE",
"260 890 LINE"
);
},
{
closed = 1;
nodes = (
"483 735 LINE",
"359 151 LINE",
"351 121 OFFCURVE",
"339 94 OFFCURVE",
"324 71 CURVE",
"309 51 OFFCURVE",
"292 32 OFFCURVE",
"269 17 CURVE",
"245 0 OFFCURVE",
"216 -8 OFFCURVE",
"181 -8 CURVE SMOOTH",
"146 -8 OFFCURVE",
"120 0 OFFCURVE",
"102 17 CURVE SMOOTH",
"85 32 OFFCURVE",
"76 51 OFFCURVE",
"72 71 CURVE",
"65 94 OFFCURVE",
"65 120 OFFCURVE",
"71 151 CURVE SMOOTH",
"195 735 LINE",
"303 735 LINE",
"179 151 LINE",
"174 132 OFFCURVE",
"176 116 OFFCURVE",
"184 105 CURVE",
"188 100 OFFCURVE",
"194 97 OFFCURVE",
"203 97 CURVE SMOOTH",
"222 97 OFFCURVE",
"234 109 OFFCURVE",
"241 124 CURVE SMOOTH",
"244 130 OFFCURVE",
"248 139 OFFCURVE",
"251 151 CURVE",
"375 735 LINE"
);
}
);
width = 366;
}
);
unicode = 00D9;
},
{
glyphname = V;
lastChange = "2012-08-26 16:25:30 +0000";
layers = (
{
layerId = "E10EC336-1202-48FF-9A55-15876E80CDFD";
name = Regular;
paths = (
{
closed = 1;
nodes = (
"392 735 LINE",
"497 735 LINE",
"229 0 LINE",
"121 0 LINE",
"165 735 LINE",
"270 735 LINE",
"238 331 LINE",
"235 300 LINE",
"241 300 LINE",
"252 331 LINE"
);
}
);
width = 350;
}
);
unicode = 0056;
},
{
glyphname = W;
lastChange = "2012-08-26 16:41:24 +0000";
layers = (
{
anchors = (
{
name = top;
position = "{243, 735}";
}
);
layerId = "E10EC336-1202-48FF-9A55-15876E80CDFD";
name = Regular;
paths = (
{
closed = 1;
nodes = (
"185 0 LINE",
"101 0 LINE",
"158 735 LINE",
"258 735 LINE",
"220 353 LINE",
"216 329 LINE",
"224 329 LINE",
"233 353 LINE",
"360 735 LINE",
"438 735 LINE",
"403 353 LINE",
"400 329 LINE",
"408 329 LINE",
"416 353 LINE",
"540 735 LINE",
"640 735 LINE",
"385 0 LINE",
"301 0 LINE",
"324 348 LINE",
"328 391 LINE",
"324 391 LINE",
"308 348 LINE"
);
}
);
width = 496;
}
);
unicode = 0057;
},
{
glyphname = X;
lastChange = "2012-08-26 16:25:30 +0000";
layers = (
{
layerId = "E10EC336-1202-48FF-9A55-15876E80CDFD";
name = Regular;
paths = (
{
closed = 1;
nodes = (
"114 0 LINE",
"8 0 LINE",
"209 386 LINE",
"166 735 LINE",
"272 735 LINE",
"291 549 LINE",
"292 540 LINE",
"296 540 LINE",
"301 549 LINE",
"400 735 LINE",
"506 735 LINE",
"315 386 LINE",
"352 0 LINE",
"246 0 LINE",
"230 219 LINE",
"230 228 LINE",
"226 228 LINE",
"222 219 LINE"
);
}
);
width = 360;
}
);
unicode = 0058;
},
{
glyphname = Y;
lastChange = "2012-08-26 16:25:31 +0000";
layers = (
{
anchors = (
{
name = top;
position = "{171, 735}";
}
);
layerId = "E10EC336-1202-48FF-9A55-15876E80CDFD";
name = Regular;
paths = (
{
closed = 1;
nodes = (
"273 500 LINE",
"274 493 LINE",
"276 493 LINE",
"281 500 LINE",
"385 735 LINE",
"491 735 LINE",
"291 313 LINE",
"225 0 LINE",
"117 0 LINE",
"183 313 LINE",
"163 735 LINE",
"269 735 LINE"
);
}
);
width = 342;
}
);
unicode = 0059;
},
{
glyphname = Ydieresis;
lastChange = "2012-08-26 16:25:30 +0000";
layers = (
{
layerId = "E10EC336-1202-48FF-9A55-15876E80CDFD";
name = Regular;
paths = (
{
closed = 1;
nodes = (
"245 898 LINE",
"338 898 LINE",
"318 800 LINE",
"225 800 LINE"
);
},
{
closed = 1;
nodes = (
"386 898 LINE",
"479 898 LINE",
"459 800 LINE",
"366 800 LINE"
);
},
{
closed = 1;
nodes = (
"274 500 LINE",
"275 493 LINE",
"277 493 LINE",
"282 500 LINE",
"386 735 LINE",
"492 735 LINE",
"292 313 LINE",
"226 0 LINE",
"118 0 LINE",
"184 313 LINE",
"164 735 LINE",
"270 735 LINE"
);
}
);
width = 344;
}
);
unicode = 0178;
},
{
glyphname = Z;
lastChange = "2012-08-26 16:25:31 +0000";
layers = (
{
anchors = (
{
name = top;
position = "{153, 735}";
}
);
layerId = "E10EC336-1202-48FF-9A55-15876E80CDFD";
name = Regular;
paths = (
{
closed = 1;
nodes = (
"34 116 LINE",
"312 628 LINE",
"167 628 LINE",
"190 735 LINE",
"452 735 LINE",
"429 628 LINE",
"146 107 LINE",
"318 107 LINE",
"296 0 LINE",
"10 0 LINE"
);
}
);
width = 306;
}
);
unicode = 005A;
},
{
glyphname = a;
lastChange = "2012-08-26 16:25:31 +0000";
layers = (
{
anchors = (
{
name = ogonek;
position = "{300, 10}";
},
{
name = top;
position = "{167, 547}";
}
);
layerId = "E10EC336-1202-48FF-9A55-15876E80CDFD";
name = Regular;
paths = (
{
closed = 1;
nodes = (
"281 417 LINE",
"284 426 OFFCURVE",
"286 439 OFFCURVE",
"285 450 CURVE",
"283 461 OFFCURVE",
"276 467 OFFCURVE",
"264 467 CURVE SMOOTH",
"247 467 OFFCURVE",
"238 454 OFFCURVE",
"231 438 CURVE",
"228 430 OFFCURVE",
"226 421 OFFCURVE",
"223 412 CURVE",
"222 407 OFFCURVE",
"221 403 OFFCURVE",
"220 399 CURVE",
"219 394 OFFCURVE",
"219 390 OFFCURVE",
"218 386 CURVE",
"117 386 LINE",
"121 409 LINE",
"130 449 OFFCURVE",
"153 485 OFFCURVE",
"182 512 CURVE SMOOTH",
"213 539 OFFCURVE",
"249 555 OFFCURVE",
"288 555 CURVE SMOOTH",
"321 555 OFFCURVE",
"348 543 OFFCURVE",
"367 520 CURVE SMOOTH",
"386 497 OFFCURVE",
"393 467 OFFCURVE",
"385 431 CURVE SMOOTH",
"314 95 LINE SMOOTH",
"303 46 OFFCURVE",
"302 24 OFFCURVE",
"301 0 CURVE",
"202 0 LINE",
"195 11 OFFCURVE",
"199 37 OFFCURVE",
"202 44 CURVE",
"195 44 LINE",
"188 35 OFFCURVE",
"176 22 OFFCURVE",
"160 11 CURVE SMOOTH",
"144 0 OFFCURVE",
"123 -8 OFFCURVE",
"103 -8 CURVE SMOOTH",
"90 -8 OFFCURVE",
"70 -3 OFFCURVE",
"58 17 CURVE",
"45 36 OFFCURVE",
"38 70 OFFCURVE",
"50 127 CURVE SMOOTH",
"63 188 OFFCURVE",
"90 231 OFFCURVE",
"121 262 CURVE SMOOTH",
"152 293 OFFCURVE",
"186 311 OFFCURVE",
"213 324 CURVE SMOOTH",
"241 337 OFFCURVE",
"261 346 OFFCURVE",
"268 357 CURVE"
);
},
{
closed = 1;
nodes = (
"249 264 LINE",
"194 243 OFFCURVE",
"164 194 OFFCURVE",
"153 142 CURVE",
"150 133 OFFCURVE",
"150 123 OFFCURVE",
"151 112 CURVE",
"154 100 OFFCURVE",
"158 91 OFFCURVE",
"170 91 CURVE SMOOTH",
"193 91 OFFCURVE",
"215 105 OFFCURVE",
"219 124 CURVE SMOOTH"
);
}
);
width = 333;
}
);
unicode = 0061;
},
{
glyphname = aacute;
lastChange = "2012-08-26 16:25:30 +0000";
layers = (
{
layerId = "E10EC336-1202-48FF-9A55-15876E80CDFD";
name = Regular;
paths = (
{
closed = 1;
nodes = (
"440 727 LINE",
"342 637 LINE",
"264 637 LINE",
"335 727 LINE"
);
},
{
closed = 1;
nodes = (
"281 417 LINE",
"284 426 OFFCURVE",
"286 439 OFFCURVE",
"285 450 CURVE",
"283 461 OFFCURVE",
"276 467 OFFCURVE",
"264 467 CURVE SMOOTH",
"247 467 OFFCURVE",
"238 454 OFFCURVE",
"231 438 CURVE",
"228 430 OFFCURVE",
"226 421 OFFCURVE",
"223 412 CURVE",
"222 407 OFFCURVE",
"221 403 OFFCURVE",
"220 399 CURVE",
"219 394 OFFCURVE",
"219 390 OFFCURVE",
"218 386 CURVE",
"117 386 LINE",
"121 409 LINE",
"130 449 OFFCURVE",
"153 485 OFFCURVE",
"182 512 CURVE SMOOTH",
"213 539 OFFCURVE",
"249 555 OFFCURVE",
"288 555 CURVE SMOOTH",
"321 555 OFFCURVE",
"348 543 OFFCURVE",
"367 520 CURVE SMOOTH",
"386 497 OFFCURVE",
"393 467 OFFCURVE",
"385 431 CURVE SMOOTH",
"314 95 LINE SMOOTH",
"303 46 OFFCURVE",
"302 24 OFFCURVE",
"301 0 CURVE",
"202 0 LINE",
"195 11 OFFCURVE",
"199 37 OFFCURVE",
"202 44 CURVE",
"195 44 LINE",
"188 35 OFFCURVE",
"176 22 OFFCURVE",
"160 11 CURVE SMOOTH",
"144 0 OFFCURVE",
"123 -8 OFFCURVE",
"103 -8 CURVE SMOOTH",
"90 -8 OFFCURVE",
"70 -3 OFFCURVE",
"58 17 CURVE",
"45 36 OFFCURVE",
"38 70 OFFCURVE",
"50 127 CURVE SMOOTH",
"63 188 OFFCURVE",
"90 231 OFFCURVE",
"121 262 CURVE SMOOTH",
"152 293 OFFCURVE",
"186 311 OFFCURVE",
"213 324 CURVE SMOOTH",
"241 337 OFFCURVE",
"261 346 OFFCURVE",
"268 357 CURVE"
);
},
{
closed = 1;
nodes = (
"249 264 LINE",
"194 243 OFFCURVE",
"164 194 OFFCURVE",
"153 142 CURVE",
"150 133 OFFCURVE",
"150 123 OFFCURVE",
"151 112 CURVE",
"154 100 OFFCURVE",
"158 91 OFFCURVE",
"170 91 CURVE SMOOTH",
"193 91 OFFCURVE",
"215 105 OFFCURVE",
"219 124 CURVE SMOOTH"
);
}
);
width = 333;
}
);
unicode = 00E1;
},
{
glyphname = acircumflex;
lastChange = "2012-08-26 16:25:30 +0000";
layers = (
{
layerId = "E10EC336-1202-48FF-9A55-15876E80CDFD";
name = Regular;
paths = (
{
closed = 1;
nodes = (
"374 727 LINE",
"424 637 LINE",
"332 637 LINE",
"308 672 LINE",
"271 637 LINE",
"179 637 LINE",
"267 727 LINE"
);
},
{
closed = 1;
nodes = (
"281 417 LINE",
"284 426 OFFCURVE",
"286 439 OFFCURVE",
"285 450 CURVE",
"283 461 OFFCURVE",
"276 467 OFFCURVE",
"264 467 CURVE SMOOTH",
"247 467 OFFCURVE",
"238 454 OFFCURVE",
"231 438 CURVE",
"228 430 OFFCURVE",
"226 421 OFFCURVE",
"223 412 CURVE",
"222 407 OFFCURVE",
"221 403 OFFCURVE",
"220 399 CURVE",
"219 394 OFFCURVE",
"219 390 OFFCURVE",
"218 386 CURVE",
"117 386 LINE",
"121 409 LINE",
"130 449 OFFCURVE",
"153 485 OFFCURVE",
"182 512 CURVE SMOOTH",
"213 539 OFFCURVE",
"249 555 OFFCURVE",
"288 555 CURVE SMOOTH",
"321 555 OFFCURVE",
"348 543 OFFCURVE",
"367 520 CURVE SMOOTH",
"386 497 OFFCURVE",
"393 467 OFFCURVE",
"385 431 CURVE SMOOTH",
"314 95 LINE SMOOTH",
"303 46 OFFCURVE",
"302 24 OFFCURVE",
"301 0 CURVE",
"202 0 LINE",
"195 11 OFFCURVE",
"199 37 OFFCURVE",
"202 44 CURVE",
"195 44 LINE",
"188 35 OFFCURVE",
"176 22 OFFCURVE",
"160 11 CURVE SMOOTH",
"144 0 OFFCURVE",
"123 -8 OFFCURVE",
"103 -8 CURVE SMOOTH",
"90 -8 OFFCURVE",
"70 -3 OFFCURVE",
"58 17 CURVE",
"45 36 OFFCURVE",
"38 70 OFFCURVE",
"50 127 CURVE SMOOTH",
"63 188 OFFCURVE",
"90 231 OFFCURVE",
"121 262 CURVE SMOOTH",
"152 293 OFFCURVE",
"186 311 OFFCURVE",
"213 324 CURVE SMOOTH",
"241 337 OFFCURVE",
"261 346 OFFCURVE",
"268 357 CURVE"
);
},
{
closed = 1;
nodes = (
"249 264 LINE",
"194 243 OFFCURVE",
"164 194 OFFCURVE",
"153 142 CURVE",
"150 133 OFFCURVE",
"150 123 OFFCURVE",
"151 112 CURVE",
"154 100 OFFCURVE",
"158 91 OFFCURVE",
"170 91 CURVE SMOOTH",
"193 91 OFFCURVE",
"215 105 OFFCURVE",
"219 124 CURVE SMOOTH"
);
}
);
width = 333;
}
);
unicode = 00E2;
},
{
glyphname = adieresis;
lastChange = "2012-08-26 16:25:30 +0000";
layers = (
{
layerId = "E10EC336-1202-48FF-9A55-15876E80CDFD";
name = Regular;
paths = (
{
closed = 1;
nodes = (
"206 735 LINE",
"299 735 LINE",
"278 637 LINE",
"185 637 LINE"
);
},
{
closed = 1;
nodes = (
"347 735 LINE",
"440 735 LINE",
"419 637 LINE",
"326 637 LINE"
);
},
{
closed = 1;
nodes = (
"281 417 LINE",
"284 426 OFFCURVE",
"286 439 OFFCURVE",
"285 450 CURVE",
"283 461 OFFCURVE",
"276 467 OFFCURVE",
"264 467 CURVE SMOOTH",
"247 467 OFFCURVE",
"238 454 OFFCURVE",
"231 438 CURVE",
"228 430 OFFCURVE",
"226 421 OFFCURVE",
"223 412 CURVE",
"222 407 OFFCURVE",
"221 403 OFFCURVE",
"220 399 CURVE",
"219 394 OFFCURVE",
"219 390 OFFCURVE",
"218 386 CURVE",
"117 386 LINE",
"121 409 LINE",
"130 449 OFFCURVE",
"153 485 OFFCURVE",
"182 512 CURVE SMOOTH",
"213 539 OFFCURVE",
"249 555 OFFCURVE",
"288 555 CURVE SMOOTH",
"321 555 OFFCURVE",
"348 543 OFFCURVE",
"367 520 CURVE SMOOTH",
"386 497 OFFCURVE",
"393 467 OFFCURVE",
"385 431 CURVE SMOOTH",
"314 95 LINE SMOOTH",
"303 46 OFFCURVE",
"302 24 OFFCURVE",
"301 0 CURVE",
"202 0 LINE",
"195 11 OFFCURVE",
"199 37 OFFCURVE",
"202 44 CURVE",
"195 44 LINE",
"188 35 OFFCURVE",
"176 22 OFFCURVE",
"160 11 CURVE SMOOTH",
"144 0 OFFCURVE",
"123 -8 OFFCURVE",
"103 -8 CURVE SMOOTH",
"90 -8 OFFCURVE",
"70 -3 OFFCURVE",
"58 17 CURVE",
"45 36 OFFCURVE",
"38 70 OFFCURVE",
"50 127 CURVE SMOOTH",
"63 188 OFFCURVE",
"90 231 OFFCURVE",
"121 262 CURVE SMOOTH",
"152 293 OFFCURVE",
"186 311 OFFCURVE",
"213 324 CURVE SMOOTH",
"241 337 OFFCURVE",
"261 346 OFFCURVE",
"268 357 CURVE"
);
},
{
closed = 1;
nodes = (
"249 264 LINE",
"194 243 OFFCURVE",
"164 194 OFFCURVE",
"153 142 CURVE",
"150 133 OFFCURVE",
"150 123 OFFCURVE",
"151 112 CURVE",
"154 100 OFFCURVE",
"158 91 OFFCURVE",
"170 91 CURVE SMOOTH",
"193 91 OFFCURVE",
"215 105 OFFCURVE",
"219 124 CURVE SMOOTH"
);
}
);
width = 333;
}
);
unicode = 00E4;
},
{
glyphname = agrave;
lastChange = "2012-08-26 16:25:30 +0000";
layers = (
{
layerId = "E10EC336-1202-48FF-9A55-15876E80CDFD";
name = Regular;
paths = (
{
closed = 1;
nodes = (
"309 727 LINE",
"342 637 LINE",
"264 637 LINE",
"204 727 LINE"
);
},
{
closed = 1;
nodes = (
"281 417 LINE",
"284 426 OFFCURVE",
"286 439 OFFCURVE",
"285 450 CURVE",
"283 461 OFFCURVE",
"276 467 OFFCURVE",
"264 467 CURVE SMOOTH",
"247 467 OFFCURVE",
"238 454 OFFCURVE",
"231 438 CURVE",
"228 430 OFFCURVE",
"226 421 OFFCURVE",
"223 412 CURVE",
"222 407 OFFCURVE",
"221 403 OFFCURVE",
"220 399 CURVE",
"219 394 OFFCURVE",
"219 390 OFFCURVE",
"218 386 CURVE",
"117 386 LINE",
"121 409 LINE",
"130 449 OFFCURVE",
"153 485 OFFCURVE",
"182 512 CURVE SMOOTH",
"213 539 OFFCURVE",
"249 555 OFFCURVE",
"288 555 CURVE SMOOTH",
"321 555 OFFCURVE",
"348 543 OFFCURVE",
"367 520 CURVE SMOOTH",
"386 497 OFFCURVE",
"393 467 OFFCURVE",
"385 431 CURVE SMOOTH",
"314 95 LINE SMOOTH",
"303 46 OFFCURVE",
"302 24 OFFCURVE",
"301 0 CURVE",
"202 0 LINE",
"195 11 OFFCURVE",
"199 37 OFFCURVE",
"202 44 CURVE",
"195 44 LINE",
"188 35 OFFCURVE",
"176 22 OFFCURVE",
"160 11 CURVE SMOOTH",
"144 0 OFFCURVE",
"123 -8 OFFCURVE",
"103 -8 CURVE SMOOTH",
"90 -8 OFFCURVE",
"70 -3 OFFCURVE",
"58 17 CURVE",
"45 36 OFFCURVE",
"38 70 OFFCURVE",
"50 127 CURVE SMOOTH",
"63 188 OFFCURVE",
"90 231 OFFCURVE",
"121 262 CURVE SMOOTH",
"152 293 OFFCURVE",
"186 311 OFFCURVE",
"213 324 CURVE SMOOTH",
"241 337 OFFCURVE",
"261 346 OFFCURVE",
"268 357 CURVE"
);
},
{
closed = 1;
nodes = (
"249 264 LINE",
"194 243 OFFCURVE",
"164 194 OFFCURVE",
"153 142 CURVE",
"150 133 OFFCURVE",
"150 123 OFFCURVE",
"151 112 CURVE",
"154 100 OFFCURVE",
"158 91 OFFCURVE",
"170 91 CURVE SMOOTH",
"193 91 OFFCURVE",
"215 105 OFFCURVE",
"219 124 CURVE SMOOTH"
);
}
);
width = 333;
}
);
unicode = 00E0;
},
{
glyphname = aring;
lastChange = "2012-08-26 16:25:30 +0000";
layers = (
{
layerId = "E10EC336-1202-48FF-9A55-15876E80CDFD";
name = Regular;
paths = (
{
closed = 1;
nodes = (
"248 735 OFFCURVE",
"288 764 OFFCURVE",
"329 764 CURVE SMOOTH",
"370 764 OFFCURVE",
"397 735 OFFCURVE",
"388 694 CURVE SMOOTH",
"379 653 OFFCURVE",
"340 624 OFFCURVE",
"299 624 CURVE SMOOTH",
"258 624 OFFCURVE",
"230 653 OFFCURVE",
"239 694 CURVE SMOOTH"
);
},
{
closed = 1;
nodes = (
"273 675 OFFCURVE",
"288 659 OFFCURVE",
"307 659 CURVE SMOOTH",
"326 659 OFFCURVE",
"347 675 OFFCURVE",
"351 694 CURVE SMOOTH",
"355 713 OFFCURVE",
"340 729 OFFCURVE",
"321 729 CURVE SMOOTH",
"302 729 OFFCURVE",
"281 713 OFFCURVE",
"277 694 CURVE SMOOTH"
);
},
{
closed = 1;
nodes = (
"281 417 LINE",
"284 426 OFFCURVE",
"286 439 OFFCURVE",
"285 450 CURVE",
"283 461 OFFCURVE",
"276 467 OFFCURVE",
"264 467 CURVE SMOOTH",
"247 467 OFFCURVE",
"238 454 OFFCURVE",
"231 438 CURVE",
"228 430 OFFCURVE",
"226 421 OFFCURVE",
"223 412 CURVE",
"222 407 OFFCURVE",
"221 403 OFFCURVE",
"220 399 CURVE",
"219 394 OFFCURVE",
"219 390 OFFCURVE",
"218 386 CURVE",
"117 386 LINE",
"121 409 LINE",
"130 449 OFFCURVE",
"153 485 OFFCURVE",
"182 512 CURVE SMOOTH",
"213 539 OFFCURVE",
"249 555 OFFCURVE",
"288 555 CURVE SMOOTH",
"321 555 OFFCURVE",
"348 543 OFFCURVE",
"367 520 CURVE SMOOTH",
"386 497 OFFCURVE",
"393 467 OFFCURVE",
"385 431 CURVE SMOOTH",
"314 95 LINE SMOOTH",
"303 46 OFFCURVE",
"302 24 OFFCURVE",
"301 0 CURVE",
"202 0 LINE",
"195 11 OFFCURVE",
"199 37 OFFCURVE",
"202 44 CURVE",
"195 44 LINE",
"188 35 OFFCURVE",
"176 22 OFFCURVE",
"160 11 CURVE SMOOTH",
"144 0 OFFCURVE",
"123 -8 OFFCURVE",
"103 -8 CURVE SMOOTH",
"90 -8 OFFCURVE",
"70 -3 OFFCURVE",
"58 17 CURVE",
"45 36 OFFCURVE",
"38 70 OFFCURVE",
"50 127 CURVE SMOOTH",
"63 188 OFFCURVE",
"90 231 OFFCURVE",
"121 262 CURVE SMOOTH",
"152 293 OFFCURVE",
"186 311 OFFCURVE",
"213 324 CURVE SMOOTH",
"241 337 OFFCURVE",
"261 346 OFFCURVE",
"268 357 CURVE"
);
},
{
closed = 1;
nodes = (
"249 264 LINE",
"194 243 OFFCURVE",
"164 194 OFFCURVE",
"153 142 CURVE",
"150 133 OFFCURVE",
"150 123 OFFCURVE",
"151 112 CURVE",
"154 100 OFFCURVE",
"158 91 OFFCURVE",
"170 91 CURVE SMOOTH",
"193 91 OFFCURVE",
"215 105 OFFCURVE",
"219 124 CURVE SMOOTH"
);
}
);
width = 333;
}
);
unicode = 00E5;
},
{
glyphname = atilde;
lastChange = "2012-08-26 16:25:30 +0000";
layers = (
{
layerId = "E10EC336-1202-48FF-9A55-15876E80CDFD";
name = Regular;
paths = (
{
closed = 1;
nodes = (
"221 711 LINE",
"232 718 OFFCURVE",
"244 723 OFFCURVE",
"257 727 CURVE SMOOTH",
"263 729 OFFCURVE",
"270 730 OFFCURVE",
"278 730 CURVE SMOOTH",
"292 730 OFFCURVE",
"306 727 OFFCURVE",
"320 722 CURVE",
"334 715 OFFCURVE",
"348 712 OFFCURVE",
"362 711 CURVE",
"377 711 OFFCURVE",
"388 715 OFFCURVE",
"400 719 CURVE SMOOTH",
"403 720 OFFCURVE",
"406 722 OFFCURVE",
"409 723 CURVE SMOOTH",
"412 724 OFFCURVE",
"415 726 OFFCURVE",
"418 727 CURVE",
"402 653 LINE",
"393 646 OFFCURVE",
"381 640 OFFCURVE",
"366 637 CURVE",
"359 635 OFFCURVE",
"352 634 OFFCURVE",
"345 634 CURVE SMOOTH",
"330 634 OFFCURVE",
"316 637 OFFCURVE",
"304 643 CURVE",
"292 648 OFFCURVE",
"278 652 OFFCURVE",
"261 653 CURVE",
"246 653 OFFCURVE",
"234 649 OFFCURVE",
"223 645 CURVE SMOOTH",
"220 644 OFFCURVE",
"217 642 OFFCURVE",
"214 641 CURVE SMOOTH",
"211 640 OFFCURVE",
"208 638 OFFCURVE",
"205 637 CURVE"
);
},
{
closed = 1;
nodes = (
"281 417 LINE",
"284 426 OFFCURVE",
"286 439 OFFCURVE",
"285 450 CURVE",
"283 461 OFFCURVE",
"276 467 OFFCURVE",
"264 467 CURVE SMOOTH",
"247 467 OFFCURVE",
"238 454 OFFCURVE",
"231 438 CURVE",
"228 430 OFFCURVE",
"226 421 OFFCURVE",
"223 412 CURVE",
"222 407 OFFCURVE",
"221 403 OFFCURVE",
"220 399 CURVE",
"219 394 OFFCURVE",
"219 390 OFFCURVE",
"218 386 CURVE",
"117 386 LINE",
"121 409 LINE",
"130 449 OFFCURVE",
"153 485 OFFCURVE",
"182 512 CURVE SMOOTH",
"213 539 OFFCURVE",
"249 555 OFFCURVE",
"288 555 CURVE SMOOTH",
"321 555 OFFCURVE",
"348 543 OFFCURVE",
"367 520 CURVE SMOOTH",
"386 497 OFFCURVE",
"393 467 OFFCURVE",
"385 431 CURVE SMOOTH",
"314 95 LINE SMOOTH",
"303 46 OFFCURVE",
"302 24 OFFCURVE",
"301 0 CURVE",
"202 0 LINE",
"195 11 OFFCURVE",
"199 37 OFFCURVE",
"202 44 CURVE",
"195 44 LINE",
"188 35 OFFCURVE",
"176 22 OFFCURVE",
"160 11 CURVE SMOOTH",
"144 0 OFFCURVE",
"123 -8 OFFCURVE",
"103 -8 CURVE SMOOTH",
"90 -8 OFFCURVE",
"70 -3 OFFCURVE",
"58 17 CURVE",
"45 36 OFFCURVE",
"38 70 OFFCURVE",
"50 127 CURVE SMOOTH",
"63 188 OFFCURVE",
"90 231 OFFCURVE",
"121 262 CURVE SMOOTH",
"152 293 OFFCURVE",
"186 311 OFFCURVE",
"213 324 CURVE SMOOTH",
"241 337 OFFCURVE",
"261 346 OFFCURVE",
"268 357 CURVE"
);
},
{
closed = 1;
nodes = (
"249 264 LINE",
"194 243 OFFCURVE",
"164 194 OFFCURVE",
"153 142 CURVE",
"150 133 OFFCURVE",
"150 123 OFFCURVE",
"151 112 CURVE",
"154 100 OFFCURVE",
"158 91 OFFCURVE",
"170 91 CURVE SMOOTH",
"193 91 OFFCURVE",
"215 105 OFFCURVE",
"219 124 CURVE SMOOTH"
);
}
);
width = 333;
}
);
unicode = 00E3;
},
{
glyphname = ae;
lastChange = "2012-08-26 16:25:31 +0000";
layers = (
{
anchors = (
{
name = top;
position = "{242, 547}";
}
);
layerId = "E10EC336-1202-48FF-9A55-15876E80CDFD";
name = Regular;
paths = (
{
closed = 1;
nodes = (
"495 196 LINE",
"482 133 LINE",
"467 80 OFFCURVE",
"444 43 OFFCURVE",
"401 14 CURVE SMOOTH",
"380 -1 OFFCURVE",
"354 -8 OFFCURVE",
"321 -8 CURVE SMOOTH",
"260 -8 OFFCURVE",
"235 23 OFFCURVE",
"224 56 CURVE",
"189 20 OFFCURVE",
"147 -8 OFFCURVE",
"103 -8 CURVE SMOOTH",
"90 -8 OFFCURVE",
"70 -3 OFFCURVE",
"58 17 CURVE",
"45 36 OFFCURVE",
"38 70 OFFCURVE",
"50 127 CURVE SMOOTH",
"63 188 OFFCURVE",
"90 231 OFFCURVE",
"121 262 CURVE SMOOTH",
"152 293 OFFCURVE",
"186 311 OFFCURVE",
"213 324 CURVE SMOOTH",
"241 337 OFFCURVE",
"261 346 OFFCURVE",
"268 357 CURVE",
"281 417 LINE",
"284 426 OFFCURVE",
"286 439 OFFCURVE",
"285 450 CURVE",
"283 461 OFFCURVE",
"276 467 OFFCURVE",
"264 467 CURVE SMOOTH",
"247 467 OFFCURVE",
"238 454 OFFCURVE",
"231 438 CURVE",
"228 430 OFFCURVE",
"226 421 OFFCURVE",
"223 412 CURVE",
"222 407 OFFCURVE",
"221 403 OFFCURVE",
"220 399 CURVE",
"219 394 OFFCURVE",
"219 390 OFFCURVE",
"218 386 CURVE",
"117 386 LINE",
"121 409 LINE",
"130 449 OFFCURVE",
"153 485 OFFCURVE",
"182 512 CURVE SMOOTH",
"213 539 OFFCURVE",
"249 555 OFFCURVE",
"288 555 CURVE SMOOTH",
"317 555 OFFCURVE",
"340 547 OFFCURVE",
"357 530 CURVE",
"380 545 OFFCURVE",
"406 555 OFFCURVE",
"441 555 CURVE SMOOTH",
"473 555 OFFCURVE",
"496 546 OFFCURVE",
"512 533 CURVE SMOOTH",
"528 520 OFFCURVE",
"536 501 OFFCURVE",
"540 484 CURVE SMOOTH",
"545 463 OFFCURVE",
"546 441 OFFCURVE",
"541 414 CURVE SMOOTH",
"508 255 LINE",
"341 255 LINE",
"315 136 LINE",
"312 117 OFFCURVE",
"314 101 OFFCURVE",
"321 89 CURVE",
"325 84 OFFCURVE",
"332 81 OFFCURVE",
"341 81 CURVE SMOOTH",
"360 81 OFFCURVE",
"371 93 OFFCURVE",
"378 108 CURVE",
"383 115 OFFCURVE",
"386 125 OFFCURVE",
"388 136 CURVE SMOOTH",
"401 196 LINE"
);
},
{
closed = 1;
nodes = (
"357 334 LINE",
"430 334 LINE",
"447 411 LINE SMOOTH",
"451 432 OFFCURVE",
"451 447 OFFCURVE",
"443 459 CURVE",
"439 464 OFFCURVE",
"432 467 OFFCURVE",
"423 467 CURVE SMOOTH",
"404 467 OFFCURVE",
"393 454 OFFCURVE",
"385 439 CURVE SMOOTH",
"381 432 OFFCURVE",
"377 423 OFFCURVE",
"374 411 CURVE SMOOTH"
);
},
{
closed = 1;
nodes = (
"249 264 LINE",
"194 243 OFFCURVE",
"164 194 OFFCURVE",
"153 142 CURVE",
"150 133 OFFCURVE",
"150 123 OFFCURVE",
"151 112 CURVE",
"154 100 OFFCURVE",
"158 91 OFFCURVE",
"170 91 CURVE SMOOTH",
"193 91 OFFCURVE",
"215 105 OFFCURVE",
"219 124 CURVE SMOOTH"
);
}
);
width = 483;
}
);
unicode = 00E6;
},
{
glyphname = b;
lastChange = "2012-08-26 16:25:30 +0000";
layers = (
{
layerId = "E10EC336-1202-48FF-9A55-15876E80CDFD";
name = Regular;
paths = (
{
closed = 1;
nodes = (
"196 735 LINE",
"297 735 LINE",
"249 511 LINE",
"270 527 OFFCURVE",
"286 539 OFFCURVE",
"309 548 CURVE",
"318 553 OFFCURVE",
"328 555 OFFCURVE",
"338 555 CURVE SMOOTH",
"366 555 OFFCURVE",
"382 539 OFFCURVE",
"391 519 CURVE",
"398 498 OFFCURVE",
"399 471 OFFCURVE",
"394 448 CURVE SMOOTH",
"320 99 LINE SMOOTH",
"315 76 OFFCURVE",
"303 49 OFFCURVE",
"287 29 CURVE",
"268 8 OFFCURVE",
"247 -8 OFFCURVE",
"219 -8 CURVE SMOOTH",
"200 -8 OFFCURVE",
"182 3 OFFCURVE",
"169 14 CURVE",
"162 21 OFFCURVE",
"155 28 OFFCURVE",
"148 36 CURVE",
"141 0 LINE",
"40 0 LINE"
);
},
{
closed = 1;
nodes = (
"166 120 LINE SMOOTH",
"162 101 OFFCURVE",
"174 87 OFFCURVE",
"189 87 CURVE SMOOTH",
"204 87 OFFCURVE",
"219 101 OFFCURVE",
"223 120 CURVE SMOOTH",
"288 427 LINE SMOOTH",
"292 446 OFFCURVE",
"283 460 OFFCURVE",
"268 460 CURVE SMOOTH",
"253 460 OFFCURVE",
"235 443 OFFCURVE",
"231 427 CURVE"
);
}
);
width = 335;
}
);
unicode = 0062;
},
{
glyphname = c;
lastChange = "2012-08-26 16:25:31 +0000";
layers = (
{
anchors = (
{
name = bottom;
position = "{158, 0}";
},
{
name = top;
position = "{158, 547}";
}
);
layerId = "E10EC336-1202-48FF-9A55-15876E80CDFD";
name = Regular;
paths = (
{
closed = 1;
nodes = (
"159 126 LINE SMOOTH",
"155 106 OFFCURVE",
"151 82 OFFCURVE",
"178 82 CURVE SMOOTH",
"201 82 OFFCURVE",
"209 93 OFFCURVE",
"216 126 CURVE SMOOTH",
"232 202 LINE",
"333 202 LINE",
"322 149 LINE SMOOTH",
"309 88 OFFCURVE",
"290 49 OFFCURVE",
"263 25 CURVE SMOOTH",
"236 1 OFFCURVE",
"202 -8 OFFCURVE",
"159 -8 CURVE SMOOTH",
"123 -8 OFFCURVE",
"93 2 OFFCURVE",
"74 27 CURVE",
"57 52 OFFCURVE",
"51 93 OFFCURVE",
"64 154 CURVE SMOOTH",
"115 393 LINE SMOOTH",
"128 454 OFFCURVE",
"151 495 OFFCURVE",
"179 520 CURVE SMOOTH",
"207 545 OFFCURVE",
"242 555 OFFCURVE",
"278 555 CURVE SMOOTH",
"321 555 OFFCURVE",
"352 546 OFFCURVE",
"368 522 CURVE SMOOTH",
"385 498 OFFCURVE",
"388 459 OFFCURVE",
"375 398 CURVE SMOOTH",
"366 355 LINE",
"265 355 LINE",
"279 421 LINE SMOOTH",
"286 454 OFFCURVE",
"282 465 OFFCURVE",
"259 465 CURVE SMOOTH",
"232 465 OFFCURVE",
"226 441 OFFCURVE",
"222 421 CURVE SMOOTH"
);
}
);
width = 315;
}
);
unicode = 0063;
},
{
glyphname = ccedilla;
lastChange = "2012-08-26 16:25:30 +0000";
layers = (
{
layerId = "E10EC336-1202-48FF-9A55-15876E80CDFD";
name = Regular;
paths = (
{
closed = 1;
nodes = (
"159 126 LINE SMOOTH",
"155 106 OFFCURVE",
"151 82 OFFCURVE",
"178 82 CURVE SMOOTH",
"201 82 OFFCURVE",
"209 93 OFFCURVE",
"216 126 CURVE SMOOTH",
"232 202 LINE",
"333 202 LINE",
"322 149 LINE SMOOTH",
"309 88 OFFCURVE",
"290 49 OFFCURVE",
"263 25 CURVE SMOOTH",
"236 1 OFFCURVE",
"202 -8 OFFCURVE",
"159 -8 CURVE SMOOTH",
"123 -8 OFFCURVE",
"93 2 OFFCURVE",
"74 27 CURVE",
"57 52 OFFCURVE",
"51 93 OFFCURVE",
"64 154 CURVE SMOOTH",
"115 393 LINE SMOOTH",
"128 454 OFFCURVE",
"151 495 OFFCURVE",
"179 520 CURVE SMOOTH",
"207 545 OFFCURVE",
"242 555 OFFCURVE",
"278 555 CURVE SMOOTH",
"321 555 OFFCURVE",
"352 546 OFFCURVE",
"368 522 CURVE SMOOTH",
"385 498 OFFCURVE",
"388 459 OFFCURVE",
"375 398 CURVE SMOOTH",
"366 355 LINE",
"265 355 LINE",
"279 421 LINE SMOOTH",
"286 454 OFFCURVE",
"282 465 OFFCURVE",
"259 465 CURVE SMOOTH",
"232 465 OFFCURVE",
"226 441 OFFCURVE",
"222 421 CURVE SMOOTH"
);
},
{
closed = 1;
nodes = (
"173 -123 LINE",
"138 -188 LINE",
"87 -188 LINE",
"120 -123 LINE",
"89 -123 LINE",
"104 -54 LINE",
"188 -54 LINE"
);
}
);
width = 315;
}
);
unicode = 00E7;
},
{
glyphname = d;
lastChange = "2012-08-26 16:25:31 +0000";
layers = (
{
anchors = (
{
name = center;
position = "{168, 274}";
}
);
layerId = "E10EC336-1202-48FF-9A55-15876E80CDFD";
name = Regular;
paths = (
{
closed = 1;
nodes = (
"295 0 LINE",
"194 0 LINE",
"201 36 LINE",
"181 20 OFFCURVE",
"163 8 OFFCURVE",
"142 -1 CURVE",
"132 -6 OFFCURVE",
"122 -8 OFFCURVE",
"112 -8 CURVE SMOOTH",
"84 -8 OFFCURVE",
"68 8 OFFCURVE",
"61 29 CURVE",
"52 49 OFFCURVE",
"52 76 OFFCURVE",
"57 99 CURVE SMOOTH",
"131 448 LINE SMOOTH",
"136 471 OFFCURVE",
"146 498 OFFCURVE",
"165 519 CURVE",
"181 539 OFFCURVE",
"203 555 OFFCURVE",
"231 555 CURVE SMOOTH",
"250 555 OFFCURVE",
"268 544 OFFCURVE",
"281 533 CURVE",
"288 526 OFFCURVE",
"295 519 OFFCURVE",
"302 511 CURVE",
"350 735 LINE",
"451 735 LINE"
);
},
{
closed = 1;
nodes = (
"284 427 LINE",
"288 443 OFFCURVE",
"276 460 OFFCURVE",
"261 460 CURVE SMOOTH",
"246 460 OFFCURVE",
"231 446 OFFCURVE",
"227 427 CURVE SMOOTH",
"162 120 LINE SMOOTH",
"158 101 OFFCURVE",
"167 87 OFFCURVE",
"182 87 CURVE SMOOTH",
"197 87 OFFCURVE",
"215 101 OFFCURVE",
"219 120 CURVE SMOOTH"
);
}
);
width = 335;
}
);
unicode = 0064;
},
{
glyphname = e;
lastChange = "2012-08-26 16:25:31 +0000";
layers = (
{
anchors = (
{
name = bottom;
position = "{161, 0}";
},
{
name = ogonek;
position = "{290, 10}";
},
{
name = top;
position = "{161, 547}";
}
);
layerId = "E10EC336-1202-48FF-9A55-15876E80CDFD";
name = Regular;
paths = (
{
closed = 1;
nodes = (
"334 196 LINE",
"321 133 LINE",
"306 80 OFFCURVE",
"283 43 OFFCURVE",
"240 14 CURVE SMOOTH",
"219 -1 OFFCURVE",
"193 -8 OFFCURVE",
"160 -8 CURVE SMOOTH",
"95 -8 OFFCURVE",
"69 28 OFFCURVE",
"61 64 CURVE SMOOTH",
"56 87 OFFCURVE",
"56 111 OFFCURVE",
"60 136 CURVE",
"119 411 LINE",
"134 464 OFFCURVE",
"158 502 OFFCURVE",
"201 533 CURVE",
"220 548 OFFCURVE",
"247 555 OFFCURVE",
"280 555 CURVE SMOOTH",
"312 555 OFFCURVE",
"335 546 OFFCURVE",
"351 533 CURVE SMOOTH",
"367 520 OFFCURVE",
"375 501 OFFCURVE",
"379 484 CURVE SMOOTH",
"384 463 OFFCURVE",
"385 441 OFFCURVE",
"380 414 CURVE SMOOTH",
"347 255 LINE",
"180 255 LINE",
"154 136 LINE",
"151 117 OFFCURVE",
"153 101 OFFCURVE",
"160 89 CURVE",
"164 84 OFFCURVE",
"171 81 OFFCURVE",
"180 81 CURVE SMOOTH",
"199 81 OFFCURVE",
"210 93 OFFCURVE",
"217 108 CURVE",
"222 115 OFFCURVE",
"225 125 OFFCURVE",
"227 136 CURVE SMOOTH",
"240 196 LINE"
);
},
{
closed = 1;
nodes = (
"196 334 LINE",
"269 334 LINE",
"286 411 LINE SMOOTH",
"290 432 OFFCURVE",
"290 447 OFFCURVE",
"282 459 CURVE",
"278 464 OFFCURVE",
"271 467 OFFCURVE",
"262 467 CURVE SMOOTH",
"243 467 OFFCURVE",
"232 454 OFFCURVE",
"224 439 CURVE SMOOTH",
"220 432 OFFCURVE",
"216 423 OFFCURVE",
"213 411 CURVE SMOOTH"
);
}
);
width = 322;
}
);
unicode = 0065;
},
{
glyphname = eacute;
lastChange = "2012-08-26 16:25:30 +0000";
layers = (
{
layerId = "E10EC336-1202-48FF-9A55-15876E80CDFD";
name = Regular;
paths = (
{
closed = 1;
nodes = (
"440 727 LINE",
"342 637 LINE",
"264 637 LINE",
"335 727 LINE"
);
},
{
closed = 1;
nodes = (
"334 196 LINE",
"321 133 LINE",
"306 80 OFFCURVE",
"283 43 OFFCURVE",
"240 14 CURVE SMOOTH",
"219 -1 OFFCURVE",
"193 -8 OFFCURVE",
"160 -8 CURVE SMOOTH",
"95 -8 OFFCURVE",
"69 28 OFFCURVE",
"61 64 CURVE SMOOTH",
"56 87 OFFCURVE",
"56 111 OFFCURVE",
"60 136 CURVE",
"119 411 LINE",
"134 464 OFFCURVE",
"158 502 OFFCURVE",
"201 533 CURVE",
"220 548 OFFCURVE",
"247 555 OFFCURVE",
"280 555 CURVE SMOOTH",
"312 555 OFFCURVE",
"335 546 OFFCURVE",
"351 533 CURVE SMOOTH",
"367 520 OFFCURVE",
"375 501 OFFCURVE",
"379 484 CURVE SMOOTH",
"384 463 OFFCURVE",
"385 441 OFFCURVE",
"380 414 CURVE SMOOTH",
"347 255 LINE",
"180 255 LINE",
"154 136 LINE",
"151 117 OFFCURVE",
"153 101 OFFCURVE",
"160 89 CURVE",
"164 84 OFFCURVE",
"171 81 OFFCURVE",
"180 81 CURVE SMOOTH",
"199 81 OFFCURVE",
"210 93 OFFCURVE",
"217 108 CURVE",
"222 115 OFFCURVE",
"225 125 OFFCURVE",
"227 136 CURVE SMOOTH",
"240 196 LINE"
);
},
{
closed = 1;
nodes = (
"196 334 LINE",
"269 334 LINE",
"286 411 LINE SMOOTH",
"290 432 OFFCURVE",
"290 447 OFFCURVE",
"282 459 CURVE",
"278 464 OFFCURVE",
"271 467 OFFCURVE",
"262 467 CURVE SMOOTH",
"243 467 OFFCURVE",
"232 454 OFFCURVE",
"224 439 CURVE SMOOTH",
"220 432 OFFCURVE",
"216 423 OFFCURVE",
"213 411 CURVE SMOOTH"
);
}
);
width = 322;
}
);
unicode = 00E9;
},
{
glyphname = ecircumflex;
lastChange = "2012-08-26 16:25:30 +0000";
layers = (
{
layerId = "E10EC336-1202-48FF-9A55-15876E80CDFD";
name = Regular;
paths = (
{
closed = 1;
nodes = (
"369 727 LINE",
"419 637 LINE",
"327 637 LINE",
"303 672 LINE",
"266 637 LINE",
"174 637 LINE",
"262 727 LINE"
);
},
{
closed = 1;
nodes = (
"334 196 LINE",
"321 133 LINE",
"306 80 OFFCURVE",
"283 43 OFFCURVE",
"240 14 CURVE SMOOTH",
"219 -1 OFFCURVE",
"193 -8 OFFCURVE",
"160 -8 CURVE SMOOTH",
"95 -8 OFFCURVE",
"69 28 OFFCURVE",
"61 64 CURVE SMOOTH",
"56 87 OFFCURVE",
"56 111 OFFCURVE",
"60 136 CURVE",
"119 411 LINE",
"134 464 OFFCURVE",
"158 502 OFFCURVE",
"201 533 CURVE",
"220 548 OFFCURVE",
"247 555 OFFCURVE",
"280 555 CURVE SMOOTH",
"312 555 OFFCURVE",
"335 546 OFFCURVE",
"351 533 CURVE SMOOTH",
"367 520 OFFCURVE",
"375 501 OFFCURVE",
"379 484 CURVE SMOOTH",
"384 463 OFFCURVE",
"385 441 OFFCURVE",
"380 414 CURVE SMOOTH",
"347 255 LINE",
"180 255 LINE",
"154 136 LINE",
"151 117 OFFCURVE",
"153 101 OFFCURVE",
"160 89 CURVE",
"164 84 OFFCURVE",
"171 81 OFFCURVE",
"180 81 CURVE SMOOTH",
"199 81 OFFCURVE",
"210 93 OFFCURVE",
"217 108 CURVE",
"222 115 OFFCURVE",
"225 125 OFFCURVE",
"227 136 CURVE SMOOTH",
"240 196 LINE"
);
},
{
closed = 1;
nodes = (
"196 334 LINE",
"269 334 LINE",
"286 411 LINE SMOOTH",
"290 432 OFFCURVE",
"290 447 OFFCURVE",
"282 459 CURVE",
"278 464 OFFCURVE",
"271 467 OFFCURVE",
"262 467 CURVE SMOOTH",
"243 467 OFFCURVE",
"232 454 OFFCURVE",
"224 439 CURVE SMOOTH",
"220 432 OFFCURVE",
"216 423 OFFCURVE",
"213 411 CURVE SMOOTH"
);
}
);
width = 322;
}
);
unicode = 00EA;
},
{
glyphname = edieresis;
lastChange = "2012-08-26 16:25:30 +0000";
layers = (
{
layerId = "E10EC336-1202-48FF-9A55-15876E80CDFD";
name = Regular;
paths = (
{
closed = 1;
nodes = (
"200 735 LINE",
"293 735 LINE",
"272 637 LINE",
"179 637 LINE"
);
},
{
closed = 1;
nodes = (
"341 735 LINE",
"434 735 LINE",
"413 637 LINE",
"320 637 LINE"
);
},
{
closed = 1;
nodes = (
"334 196 LINE",
"321 133 LINE",
"306 80 OFFCURVE",
"283 43 OFFCURVE",
"240 14 CURVE SMOOTH",
"219 -1 OFFCURVE",
"193 -8 OFFCURVE",
"160 -8 CURVE SMOOTH",
"95 -8 OFFCURVE",
"69 28 OFFCURVE",
"61 64 CURVE SMOOTH",
"56 87 OFFCURVE",
"56 111 OFFCURVE",
"60 136 CURVE",
"119 411 LINE",
"134 464 OFFCURVE",
"158 502 OFFCURVE",
"201 533 CURVE",
"220 548 OFFCURVE",
"247 555 OFFCURVE",
"280 555 CURVE SMOOTH",
"312 555 OFFCURVE",
"335 546 OFFCURVE",
"351 533 CURVE SMOOTH",
"367 520 OFFCURVE",
"375 501 OFFCURVE",
"379 484 CURVE SMOOTH",
"384 463 OFFCURVE",
"385 441 OFFCURVE",
"380 414 CURVE SMOOTH",
"347 255 LINE",
"180 255 LINE",
"154 136 LINE",
"151 117 OFFCURVE",
"153 101 OFFCURVE",
"160 89 CURVE",
"164 84 OFFCURVE",
"171 81 OFFCURVE",
"180 81 CURVE SMOOTH",
"199 81 OFFCURVE",
"210 93 OFFCURVE",
"217 108 CURVE",
"222 115 OFFCURVE",
"225 125 OFFCURVE",
"227 136 CURVE SMOOTH",
"240 196 LINE"
);
},
{
closed = 1;
nodes = (
"196 334 LINE",
"269 334 LINE",
"286 411 LINE SMOOTH",
"290 432 OFFCURVE",
"290 447 OFFCURVE",
"282 459 CURVE",
"278 464 OFFCURVE",
"271 467 OFFCURVE",
"262 467 CURVE SMOOTH",
"243 467 OFFCURVE",
"232 454 OFFCURVE",
"224 439 CURVE SMOOTH",
"220 432 OFFCURVE",
"216 423 OFFCURVE",
"213 411 CURVE SMOOTH"
);
}
);
width = 322;
}
);
unicode = 00EB;
},
{
glyphname = egrave;
lastChange = "2012-08-26 16:25:30 +0000";
layers = (
{
layerId = "E10EC336-1202-48FF-9A55-15876E80CDFD";
name = Regular;
paths = (
{
closed = 1;
nodes = (
"309 727 LINE",
"342 637 LINE",
"264 637 LINE",
"204 727 LINE"
);
},
{
closed = 1;
nodes = (
"334 196 LINE",
"321 133 LINE",
"306 80 OFFCURVE",
"283 43 OFFCURVE",
"240 14 CURVE SMOOTH",
"219 -1 OFFCURVE",
"193 -8 OFFCURVE",
"160 -8 CURVE SMOOTH",
"95 -8 OFFCURVE",
"69 28 OFFCURVE",
"61 64 CURVE SMOOTH",
"56 87 OFFCURVE",
"56 111 OFFCURVE",
"60 136 CURVE",
"119 411 LINE",
"134 464 OFFCURVE",
"158 502 OFFCURVE",
"201 533 CURVE",
"220 548 OFFCURVE",
"247 555 OFFCURVE",
"280 555 CURVE SMOOTH",
"312 555 OFFCURVE",
"335 546 OFFCURVE",
"351 533 CURVE SMOOTH",
"367 520 OFFCURVE",
"375 501 OFFCURVE",
"379 484 CURVE SMOOTH",
"384 463 OFFCURVE",
"385 441 OFFCURVE",
"380 414 CURVE SMOOTH",
"347 255 LINE",
"180 255 LINE",
"154 136 LINE",
"151 117 OFFCURVE",
"153 101 OFFCURVE",
"160 89 CURVE",
"164 84 OFFCURVE",
"171 81 OFFCURVE",
"180 81 CURVE SMOOTH",
"199 81 OFFCURVE",
"210 93 OFFCURVE",
"217 108 CURVE",
"222 115 OFFCURVE",
"225 125 OFFCURVE",
"227 136 CURVE SMOOTH",
"240 196 LINE"
);
},
{
closed = 1;
nodes = (
"196 334 LINE",
"269 334 LINE",
"286 411 LINE SMOOTH",
"290 432 OFFCURVE",
"290 447 OFFCURVE",
"282 459 CURVE",
"278 464 OFFCURVE",
"271 467 OFFCURVE",
"262 467 CURVE SMOOTH",
"243 467 OFFCURVE",
"232 454 OFFCURVE",
"224 439 CURVE SMOOTH",
"220 432 OFFCURVE",
"216 423 OFFCURVE",
"213 411 CURVE SMOOTH"
);
}
);
width = 322;
}
);
unicode = 00E8;
},
{
glyphname = f;
lastChange = "2012-08-26 16:25:30 +0000";
layers = (
{
layerId = "E10EC336-1202-48FF-9A55-15876E80CDFD";
name = Regular;
paths = (
{
closed = 1;
nodes = (
"61 0 LINE",
"157 456 LINE",
"106 456 LINE",
"126 547 LINE",
"177 547 LINE",
"180 562 LINE",
"187 590 OFFCURVE",
"195 635 OFFCURVE",
"218 672 CURVE SMOOTH",
"241 709 OFFCURVE",
"274 739 OFFCURVE",
"334 739 CURVE SMOOTH",
"349 739 OFFCURVE",
"361 738 OFFCURVE",
"368 735 CURVE",
"379 732 LINE",
"361 645 LINE",
"360 646 OFFCURVE",
"358 646 OFFCURVE",
"357 646 CURVE SMOOTH",
"355 646 OFFCURVE",
"353 646 OFFCURVE",
"352 647 CURVE",
"345 648 OFFCURVE",
"338 649 OFFCURVE",
"331 649 CURVE SMOOTH",
"314 649 OFFCURVE",
"303 634 OFFCURVE",
"295 615 CURVE SMOOTH",
"291 605 OFFCURVE",
"288 595 OFFCURVE",
"286 585 CURVE SMOOTH",
"285 580 OFFCURVE",
"284 575 OFFCURVE",
"283 572 CURVE",
"282 568 OFFCURVE",
"282 564 OFFCURVE",
"281 561 CURVE",
"278 547 LINE",
"329 547 LINE",
"309 456 LINE",
"258 456 LINE",
"162 0 LINE"
);
}
);
width = 232;
}
);
unicode = 0066;
},
{
glyphname = g;
lastChange = "2012-08-26 16:25:31 +0000";
layers = (
{
anchors = (
{
name = top;
position = "{171, 547}";
}
);
layerId = "E10EC336-1202-48FF-9A55-15876E80CDFD";
name = Regular;
paths = (
{
closed = 1;
nodes = (
"343 264 LINE",
"316 165 OFFCURVE",
"245 129 OFFCURVE",
"184 129 CURVE SMOOTH",
"175 129 LINE SMOOTH",
"170 129 OFFCURVE",
"167 129 OFFCURVE",
"165 130 CURVE",
"154 122 OFFCURVE",
"148 114 OFFCURVE",
"146 105 CURVE SMOOTH",
"143 93 OFFCURVE",
"151 86 OFFCURVE",
"166 82 CURVE",
"181 77 OFFCURVE",
"197 74 OFFCURVE",
"216 71 CURVE SMOOTH",
"247 67 OFFCURVE",
"279 59 OFFCURVE",
"303 40 CURVE SMOOTH",
"326 21 OFFCURVE",
"340 -8 OFFCURVE",
"329 -56 CURVE SMOOTH",
"317 -109 OFFCURVE",
"287 -145 OFFCURVE",
"250 -166 CURVE SMOOTH",
"213 -187 OFFCURVE",
"167 -196 OFFCURVE",
"126 -196 CURVE SMOOTH",
"78 -195 OFFCURVE",
"39 -188 OFFCURVE",
"14 -172 CURVE SMOOTH",
"-11 -156 OFFCURVE",
"-21 -130 OFFCURVE",
"-13 -90 CURVE SMOOTH",
"-9 -71 OFFCURVE",
"3 -56 OFFCURVE",
"22 -41 CURVE SMOOTH",
"41 -26 OFFCURVE",
"62 -16 OFFCURVE",
"83 -7 CURVE",
"52 2 OFFCURVE",
"27 23 OFFCURVE",
"38 66 CURVE",
"41 82 OFFCURVE",
"53 98 OFFCURVE",
"69 113 CURVE SMOOTH",
"84 128 OFFCURVE",
"101 140 OFFCURVE",
"118 148 CURVE",
"93 167 OFFCURVE",
"85 197 OFFCURVE",
"84 222 CURVE SMOOTH",
"83 239 OFFCURVE",
"83 254 OFFCURVE",
"85 267 CURVE",
"117 416 LINE",
"132 467 OFFCURVE",
"156 504 OFFCURVE",
"197 533 CURVE",
"216 548 OFFCURVE",
"242 555 OFFCURVE",
"274 555 CURVE SMOOTH",
"325 555 OFFCURVE",
"352 532 OFFCURVE",
"365 505 CURVE",
"373 512 OFFCURVE",
"387 524 OFFCURVE",
"406 535 CURVE SMOOTH",
"425 546 OFFCURVE",
"442 555 OFFCURVE",
"458 555 CURVE",
"439 465 LINE",
"412 465 OFFCURVE",
"391 460 OFFCURVE",
"378 453 CURVE",
"378 440 LINE",
"377 435 OFFCURVE",
"376 431 OFFCURVE",
"377 429 CURVE",
"377 428 OFFCURVE",
"377 426 OFFCURVE",
"377 424 CURVE",
"376 422 OFFCURVE",
"376 420 OFFCURVE",
"376 419 CURVE"
);
},
{
closed = 1;
nodes = (
"275 412 LINE SMOOTH",
"279 429 OFFCURVE",
"278 443 OFFCURVE",
"272 454 CURVE",
"269 459 OFFCURVE",
"263 462 OFFCURVE",
"255 462 CURVE SMOOTH",
"239 462 OFFCURVE",
"229 449 OFFCURVE",
"222 437 CURVE",
"219 430 OFFCURVE",
"216 421 OFFCURVE",
"215 412 CURVE",
"183 262 LINE",
"178 245 OFFCURVE",
"179 231 OFFCURVE",
"185 221 CURVE SMOOTH",
"188 216 OFFCURVE",
"194 213 OFFCURVE",
"202 213 CURVE SMOOTH",
"219 213 OFFCURVE",
"228 225 OFFCURVE",
"235 237 CURVE",
"238 245 OFFCURVE",
"241 253 OFFCURVE",
"243 262 CURVE SMOOTH"
);
},
{
closed = 1;
nodes = (
"135 -25 LINE",
"112 -37 OFFCURVE",
"92 -52 OFFCURVE",
"88 -73 CURVE SMOOTH",
"84 -94 OFFCURVE",
"99 -111 OFFCURVE",
"146 -111 CURVE SMOOTH",
"163 -111 OFFCURVE",
"183 -109 OFFCURVE",
"199 -102 CURVE SMOOTH",
"215 -95 OFFCURVE",
"228 -87 OFFCURVE",
"231 -74 CURVE SMOOTH",
"235 -55 OFFCURVE",
"226 -47 OFFCURVE",
"213 -42 CURVE",
"206 -39 OFFCURVE",
"197 -37 OFFCURVE",
"185 -35 CURVE SMOOTH"
);
}
);
width = 342;
}
);
unicode = 0067;
},
{
glyphname = h;
lastChange = "2012-08-26 16:25:31 +0000";
layers = (
{
anchors = (
{
name = center;
position = "{169, 274}";
},
{
name = top;
position = "{169, 547}";
}
);
layerId = "E10EC336-1202-48FF-9A55-15876E80CDFD";
name = Regular;
paths = (
{
closed = 1;
nodes = (
"141 0 LINE",
"40 0 LINE",
"196 735 LINE",
"297 735 LINE",
"247 501 LINE",
"249 502 OFFCURVE",
"254 505 OFFCURVE",
"261 512 CURVE",
"268 517 OFFCURVE",
"276 523 OFFCURVE",
"285 530 CURVE SMOOTH",
"302 543 OFFCURVE",
"323 555 OFFCURVE",
"340 555 CURVE SMOOTH",
"367 555 OFFCURVE",
"383 539 OFFCURVE",
"391 519 CURVE",
"398 498 OFFCURVE",
"399 471 OFFCURVE",
"394 448 CURVE SMOOTH",
"299 0 LINE",
"198 0 LINE",
"290 433 LINE SMOOTH",
"294 454 OFFCURVE",
"283 457 OFFCURVE",
"271 457 CURVE SMOOTH",
"260 457 OFFCURVE",
"252 451 OFFCURVE",
"244 444 CURVE",
"242 442 OFFCURVE",
"240 440 OFFCURVE",
"238 438 CURVE SMOOTH",
"236 436 OFFCURVE",
"234 434 OFFCURVE",
"232 431 CURVE"
);
}
);
width = 337;
}
);
unicode = 0068;
},
{
glyphname = i;
lastChange = "2012-08-26 16:25:30 +0000";
layers = (
{
layerId = "E10EC336-1202-48FF-9A55-15876E80CDFD";
name = Regular;
paths = (
{
closed = 1;
nodes = (
"196 735 LINE",
"297 735 LINE",
"275 634 LINE",
"174 634 LINE"
);
},
{
closed = 1;
nodes = (
"40 0 LINE",
"156 547 LINE",
"257 547 LINE",
"141 0 LINE"
);
}
);
width = 181;
}
);
unicode = 0069;
},
{
glyphname = dotlessi;
lastChange = "2012-08-26 16:25:31 +0000";
layers = (
{
anchors = (
{
name = ogonek;
position = "{163, 10}";
},
{
name = top;
position = "{91, 547}";
}
);
layerId = "E10EC336-1202-48FF-9A55-15876E80CDFD";
name = Regular;
paths = (
{
closed = 1;
nodes = (
"40 0 LINE",
"156 547 LINE",
"257 547 LINE",
"141 0 LINE"
);
}
);
width = 181;
}
);
unicode = 0131;
},
{
glyphname = iacute;
lastChange = "2012-08-26 16:25:30 +0000";
layers = (
{
layerId = "E10EC336-1202-48FF-9A55-15876E80CDFD";
name = Regular;
paths = (
{
closed = 1;
nodes = (
"351 727 LINE",
"253 637 LINE",
"175 637 LINE",
"246 727 LINE"
);
},
{
closed = 1;
nodes = (
"40 0 LINE",
"156 547 LINE",
"257 547 LINE",
"141 0 LINE"
);
}
);
width = 181;
}
);
unicode = 00ED;
},
{
glyphname = icircumflex;
lastChange = "2012-08-26 16:25:30 +0000";
layers = (
{
layerId = "E10EC336-1202-48FF-9A55-15876E80CDFD";
name = Regular;
paths = (
{
closed = 1;
nodes = (
"298 727 LINE",
"348 637 LINE",
"256 637 LINE",
"232 672 LINE",
"195 637 LINE",
"103 637 LINE",
"191 727 LINE"
);
},
{
closed = 1;
nodes = (
"40 0 LINE",
"156 547 LINE",
"257 547 LINE",
"141 0 LINE"
);
}
);
width = 181;
}
);
unicode = 00EE;
},
{
glyphname = idieresis;
lastChange = "2012-08-26 16:25:30 +0000";
layers = (
{
layerId = "E10EC336-1202-48FF-9A55-15876E80CDFD";
name = Regular;
paths = (
{
closed = 1;
nodes = (
"130 735 LINE",
"223 735 LINE",
"202 637 LINE",
"109 637 LINE"
);
},
{
closed = 1;
nodes = (
"271 735 LINE",
"364 735 LINE",
"343 637 LINE",
"250 637 LINE"
);
},
{
closed = 1;
nodes = (
"40 0 LINE",
"156 547 LINE",
"257 547 LINE",
"141 0 LINE"
);
}
);
width = 182;
}
);
unicode = 00EF;
},
{
glyphname = igrave;
lastChange = "2012-08-26 16:25:30 +0000";
layers = (
{
layerId = "E10EC336-1202-48FF-9A55-15876E80CDFD";
name = Regular;
paths = (
{
closed = 1;
nodes = (
"243 727 LINE",
"276 637 LINE",
"198 637 LINE",
"138 727 LINE"
);
},
{
closed = 1;
nodes = (
"40 0 LINE",
"156 547 LINE",
"257 547 LINE",
"141 0 LINE"
);
}
);
width = 181;
}
);
unicode = 00EC;
},
{
glyphname = j;
lastChange = "2012-08-26 16:25:30 +0000";
layers = (
{
layerId = "E10EC336-1202-48FF-9A55-15876E80CDFD";
name = Regular;
paths = (
{
closed = 1;
nodes = (
"193 735 LINE",
"294 735 LINE",
"272 634 LINE",
"171 634 LINE"
);
},
{
closed = 1;
nodes = (
"254 547 LINE",
"135 -14 LINE",
"128 -42 OFFCURVE",
"119 -86 OFFCURVE",
"98 -122 CURVE SMOOTH",
"75 -159 OFFCURVE",
"39 -188 OFFCURVE",
"-17 -188 CURVE SMOOTH",
"-33 -188 OFFCURVE",
"-44 -187 OFFCURVE",
"-51 -185 CURVE",
"-53 -184 OFFCURVE",
"-55 -184 OFFCURVE",
"-56 -183 CURVE",
"-57 -183 OFFCURVE",
"-59 -183 OFFCURVE",
"-60 -182 CURVE",
"-40 -89 LINE",
"-39 -90 OFFCURVE",
"-37 -90 OFFCURVE",
"-36 -90 CURVE SMOOTH",
"-35 -90 OFFCURVE",
"-33 -90 OFFCURVE",
"-32 -91 CURVE",
"-25 -92 OFFCURVE",
"-20 -93 OFFCURVE",
"-13 -93 CURVE SMOOTH",
"3 -93 OFFCURVE",
"14 -79 OFFCURVE",
"21 -62 CURVE SMOOTH",
"24 -54 OFFCURVE",
"26 -45 OFFCURVE",
"29 -36 CURVE",
"30 -31 OFFCURVE",
"31 -27 OFFCURVE",
"32 -23 CURVE",
"32 -20 OFFCURVE",
"33 -16 OFFCURVE",
"34 -13 CURVE",
"153 547 LINE"
);
}
);
width = 178;
}
);
unicode = 006A;
},
{
glyphname = k;
lastChange = "2012-08-26 16:25:31 +0000";
layers = (
{
anchors = (
{
name = bottom;
position = "{157, 0}";
}
);
layerId = "E10EC336-1202-48FF-9A55-15876E80CDFD";
name = Regular;
paths = (
{
closed = 1;
nodes = (
"297 735 LINE",
"223 386 LINE",
"228 386 LINE",
"237 404 LINE",
"317 547 LINE",
"408 547 LINE",
"297 369 LINE",
"311 0 LINE",
"214 0 LINE",
"210 221 LINE",
"210 229 LINE",
"205 229 LINE",
"200 221 LINE",
"181 189 LINE",
"141 0 LINE",
"40 0 LINE",
"196 735 LINE"
);
}
);
width = 313;
}
);
unicode = 006B;
},
{
glyphname = l;
lastChange = "2012-08-26 16:25:31 +0000";
layers = (
{
anchors = (
{
name = bottom;
position = "{91, 0}";
},
{
name = top;
position = "{91, 547}";
},
{
name = topright;
position = "{161, 547}";
}
);
layerId = "E10EC336-1202-48FF-9A55-15876E80CDFD";
name = Regular;
paths = (
{
closed = 1;
nodes = (
"40 0 LINE",
"196 735 LINE",
"297 735 LINE",
"141 0 LINE"
);
}
);
width = 181;
}
);
unicode = 006C;
},
{
glyphname = m;
lastChange = "2012-08-26 16:25:30 +0000";
layers = (
{
layerId = "E10EC336-1202-48FF-9A55-15876E80CDFD";
name = Regular;
paths = (
{
closed = 1;
nodes = (
"301 0 LINE",
"206 0 LINE",
"298 433 LINE SMOOTH",
"302 454 OFFCURVE",
"287 457 OFFCURVE",
"276 457 CURVE SMOOTH",
"265 457 OFFCURVE",
"254 451 OFFCURVE",
"246 444 CURVE",
"241 440 OFFCURVE",
"236 436 OFFCURVE",
"232 431 CURVE",
"141 0 LINE",
"40 0 LINE",
"156 547 LINE",
"257 547 LINE",
"247 501 LINE",
"249 502 OFFCURVE",
"254 505 OFFCURVE",
"261 512 CURVE",
"276 523 OFFCURVE",
"295 537 OFFCURVE",
"315 548 CURVE SMOOTH",
"324 553 OFFCURVE",
"333 555 OFFCURVE",
"342 555 CURVE SMOOTH",
"378 555 OFFCURVE",
"393 526 OFFCURVE",
"398 494 CURVE",
"400 495 OFFCURVE",
"403 497 OFFCURVE",
"406 500 CURVE SMOOTH",
"409 503 OFFCURVE",
"412 506 OFFCURVE",
"417 509 CURVE",
"434 524 OFFCURVE",
"453 536 OFFCURVE",
"474 547 CURVE",
"485 552 OFFCURVE",
"494 555 OFFCURVE",
"502 555 CURVE SMOOTH",
"529 555 OFFCURVE",
"545 539 OFFCURVE",
"553 519 CURVE",
"560 498 OFFCURVE",
"561 471 OFFCURVE",
"556 448 CURVE SMOOTH",
"461 0 LINE",
"366 0 LINE",
"458 433 LINE SMOOTH",
"462 454 OFFCURVE",
"447 457 OFFCURVE",
"436 457 CURVE SMOOTH",
"425 457 OFFCURVE",
"414 451 OFFCURVE",
"406 444 CURVE",
"401 440 OFFCURVE",
"396 436 OFFCURVE",
"392 431 CURVE"
);
}
);
width = 499;
}
);
unicode = 006D;
},
{
glyphname = n;
lastChange = "2012-08-26 16:25:31 +0000";
layers = (
{
anchors = (
{
name = bottom;
position = "{169, 0}";
},
{
name = top;
position = "{169, 547}";
}
);
layerId = "E10EC336-1202-48FF-9A55-15876E80CDFD";
name = Regular;
paths = (
{
closed = 1;
nodes = (
"141 0 LINE",
"40 0 LINE",
"156 547 LINE",
"257 547 LINE",
"247 501 LINE",
"249 502 OFFCURVE",
"254 505 OFFCURVE",
"261 512 CURVE",
"268 517 OFFCURVE",
"276 523 OFFCURVE",
"285 530 CURVE SMOOTH",
"302 543 OFFCURVE",
"323 555 OFFCURVE",
"340 555 CURVE SMOOTH",
"367 555 OFFCURVE",
"383 539 OFFCURVE",
"391 519 CURVE",
"398 498 OFFCURVE",
"399 471 OFFCURVE",
"394 448 CURVE SMOOTH",
"299 0 LINE",
"198 0 LINE",
"290 433 LINE SMOOTH",
"294 454 OFFCURVE",
"283 457 OFFCURVE",
"271 457 CURVE SMOOTH",
"260 457 OFFCURVE",
"252 451 OFFCURVE",
"244 444 CURVE",
"242 442 OFFCURVE",
"240 440 OFFCURVE",
"238 438 CURVE SMOOTH",
"236 436 OFFCURVE",
"234 434 OFFCURVE",
"232 431 CURVE"
);
}
);
width = 337;
}
);
unicode = 006E;
},
{
glyphname = ntilde;
lastChange = "2012-08-26 16:25:30 +0000";
layers = (
{
layerId = "E10EC336-1202-48FF-9A55-15876E80CDFD";
name = Regular;
paths = (
{
closed = 1;
nodes = (
"223 711 LINE",
"234 718 OFFCURVE",
"246 723 OFFCURVE",
"259 727 CURVE SMOOTH",
"265 729 OFFCURVE",
"272 730 OFFCURVE",
"280 730 CURVE SMOOTH",
"294 730 OFFCURVE",
"308 727 OFFCURVE",
"322 722 CURVE",
"336 715 OFFCURVE",
"350 712 OFFCURVE",
"364 711 CURVE",
"379 711 OFFCURVE",
"390 715 OFFCURVE",
"402 719 CURVE SMOOTH",
"405 720 OFFCURVE",
"408 722 OFFCURVE",
"411 723 CURVE SMOOTH",
"414 724 OFFCURVE",
"417 726 OFFCURVE",
"420 727 CURVE",
"404 653 LINE",
"395 646 OFFCURVE",
"383 640 OFFCURVE",
"368 637 CURVE",
"361 635 OFFCURVE",
"354 634 OFFCURVE",
"347 634 CURVE SMOOTH",
"332 634 OFFCURVE",
"318 637 OFFCURVE",
"306 643 CURVE",
"294 648 OFFCURVE",
"280 652 OFFCURVE",
"263 653 CURVE",
"248 653 OFFCURVE",
"236 649 OFFCURVE",
"225 645 CURVE SMOOTH",
"222 644 OFFCURVE",
"219 642 OFFCURVE",
"216 641 CURVE SMOOTH",
"213 640 OFFCURVE",
"210 638 OFFCURVE",
"207 637 CURVE"
);
},
{
closed = 1;
nodes = (
"141 0 LINE",
"40 0 LINE",
"156 547 LINE",
"257 547 LINE",
"247 501 LINE",
"249 502 OFFCURVE",
"254 505 OFFCURVE",
"261 512 CURVE",
"268 517 OFFCURVE",
"276 523 OFFCURVE",
"285 530 CURVE SMOOTH",
"302 543 OFFCURVE",
"323 555 OFFCURVE",
"340 555 CURVE SMOOTH",
"367 555 OFFCURVE",
"383 539 OFFCURVE",
"391 519 CURVE",
"398 498 OFFCURVE",
"399 471 OFFCURVE",
"394 448 CURVE SMOOTH",
"299 0 LINE",
"198 0 LINE",
"290 433 LINE SMOOTH",
"294 454 OFFCURVE",
"283 457 OFFCURVE",
"271 457 CURVE SMOOTH",
"260 457 OFFCURVE",
"252 451 OFFCURVE",
"244 444 CURVE",
"242 442 OFFCURVE",
"240 440 OFFCURVE",
"238 438 CURVE SMOOTH",
"236 436 OFFCURVE",
"234 434 OFFCURVE",
"232 431 CURVE"
);
}
);
width = 337;
}
);
unicode = 00F1;
},
{
glyphname = o;
lastChange = "2012-08-26 16:25:31 +0000";
layers = (
{
anchors = (
{
name = top;
position = "{161, 547}";
}
);
layerId = "E10EC336-1202-48FF-9A55-15876E80CDFD";
name = Regular;
paths = (
{
closed = 1;
nodes = (
"318 133 LINE",
"303 80 OFFCURVE",
"281 43 OFFCURVE",
"238 14 CURVE SMOOTH",
"217 -1 OFFCURVE",
"191 -8 OFFCURVE",
"158 -8 CURVE SMOOTH",
"126 -8 OFFCURVE",
"103 1 OFFCURVE",
"88 15 CURVE SMOOTH",
"72 29 OFFCURVE",
"64 45 OFFCURVE",
"60 64 CURVE SMOOTH",
"55 87 OFFCURVE",
"55 111 OFFCURVE",
"59 136 CURVE",
"118 411 LINE",
"133 464 OFFCURVE",
"155 502 OFFCURVE",
"198 533 CURVE",
"217 548 OFFCURVE",
"244 555 OFFCURVE",
"277 555 CURVE SMOOTH",
"309 555 OFFCURVE",
"332 546 OFFCURVE",
"348 533 CURVE SMOOTH",
"364 520 OFFCURVE",
"372 501 OFFCURVE",
"376 484 CURVE SMOOTH",
"381 463 OFFCURVE",
"382 441 OFFCURVE",
"377 414 CURVE SMOOTH"
);
},
{
closed = 1;
nodes = (
"282 411 LINE SMOOTH",
"287 432 OFFCURVE",
"286 448 OFFCURVE",
"279 459 CURVE",
"275 464 OFFCURVE",
"268 467 OFFCURVE",
"259 467 CURVE SMOOTH",
"240 467 OFFCURVE",
"229 454 OFFCURVE",
"222 439 CURVE",
"217 431 OFFCURVE",
"214 422 OFFCURVE",
"213 411 CURVE",
"154 136 LINE",
"149 117 OFFCURVE",
"150 101 OFFCURVE",
"157 89 CURVE",
"161 84 OFFCURVE",
"168 81 OFFCURVE",
"177 81 CURVE SMOOTH",
"196 81 OFFCURVE",
"207 93 OFFCURVE",
"214 108 CURVE",
"219 116 OFFCURVE",
"222 125 OFFCURVE",
"223 136 CURVE"
);
}
);
width = 321;
}
);
unicode = 006F;
},
{
glyphname = oacute;
lastChange = "2012-08-26 16:25:30 +0000";
layers = (
{
layerId = "E10EC336-1202-48FF-9A55-15876E80CDFD";
name = Regular;
paths = (
{
closed = 1;
nodes = (
"438 727 LINE",
"340 637 LINE",
"262 637 LINE",
"333 727 LINE"
);
},
{
closed = 1;
nodes = (
"318 133 LINE",
"303 80 OFFCURVE",
"281 43 OFFCURVE",
"238 14 CURVE SMOOTH",
"217 -1 OFFCURVE",
"191 -8 OFFCURVE",
"158 -8 CURVE SMOOTH",
"126 -8 OFFCURVE",
"103 1 OFFCURVE",
"88 15 CURVE SMOOTH",
"72 29 OFFCURVE",
"64 45 OFFCURVE",
"60 64 CURVE SMOOTH",
"55 87 OFFCURVE",
"55 111 OFFCURVE",
"59 136 CURVE",
"118 411 LINE",
"133 464 OFFCURVE",
"155 502 OFFCURVE",
"198 533 CURVE",
"217 548 OFFCURVE",
"244 555 OFFCURVE",
"277 555 CURVE SMOOTH",
"309 555 OFFCURVE",
"332 546 OFFCURVE",
"348 533 CURVE SMOOTH",
"364 520 OFFCURVE",
"372 501 OFFCURVE",
"376 484 CURVE SMOOTH",
"381 463 OFFCURVE",
"382 441 OFFCURVE",
"377 414 CURVE SMOOTH"
);
},
{
closed = 1;
nodes = (
"282 411 LINE SMOOTH",
"287 432 OFFCURVE",
"286 448 OFFCURVE",
"279 459 CURVE",
"275 464 OFFCURVE",
"268 467 OFFCURVE",
"259 467 CURVE SMOOTH",
"240 467 OFFCURVE",
"229 454 OFFCURVE",
"222 439 CURVE",
"217 431 OFFCURVE",
"214 422 OFFCURVE",
"213 411 CURVE",
"154 136 LINE",
"149 117 OFFCURVE",
"150 101 OFFCURVE",
"157 89 CURVE",
"161 84 OFFCURVE",
"168 81 OFFCURVE",
"177 81 CURVE SMOOTH",
"196 81 OFFCURVE",
"207 93 OFFCURVE",
"214 108 CURVE",
"219 116 OFFCURVE",
"222 125 OFFCURVE",
"223 136 CURVE"
);
}
);
width = 321;
}
);
unicode = 00F3;
},
{
glyphname = ocircumflex;
lastChange = "2012-08-26 16:25:30 +0000";
layers = (
{
layerId = "E10EC336-1202-48FF-9A55-15876E80CDFD";
name = Regular;
paths = (
{
closed = 1;
nodes = (
"368 727 LINE",
"418 637 LINE",
"326 637 LINE",
"302 672 LINE",
"265 637 LINE",
"173 637 LINE",
"261 727 LINE"
);
},
{
closed = 1;
nodes = (
"318 133 LINE",
"303 80 OFFCURVE",
"281 43 OFFCURVE",
"238 14 CURVE SMOOTH",
"217 -1 OFFCURVE",
"191 -8 OFFCURVE",
"158 -8 CURVE SMOOTH",
"126 -8 OFFCURVE",
"103 1 OFFCURVE",
"88 15 CURVE SMOOTH",
"72 29 OFFCURVE",
"64 45 OFFCURVE",
"60 64 CURVE SMOOTH",
"55 87 OFFCURVE",
"55 111 OFFCURVE",
"59 136 CURVE",
"118 411 LINE",
"133 464 OFFCURVE",
"155 502 OFFCURVE",
"198 533 CURVE",
"217 548 OFFCURVE",
"244 555 OFFCURVE",
"277 555 CURVE SMOOTH",
"309 555 OFFCURVE",
"332 546 OFFCURVE",
"348 533 CURVE SMOOTH",
"364 520 OFFCURVE",
"372 501 OFFCURVE",
"376 484 CURVE SMOOTH",
"381 463 OFFCURVE",
"382 441 OFFCURVE",
"377 414 CURVE SMOOTH"
);
},
{
closed = 1;
nodes = (
"282 411 LINE SMOOTH",
"287 432 OFFCURVE",
"286 448 OFFCURVE",
"279 459 CURVE",
"275 464 OFFCURVE",
"268 467 OFFCURVE",
"259 467 CURVE SMOOTH",
"240 467 OFFCURVE",
"229 454 OFFCURVE",
"222 439 CURVE",
"217 431 OFFCURVE",
"214 422 OFFCURVE",
"213 411 CURVE",
"154 136 LINE",
"149 117 OFFCURVE",
"150 101 OFFCURVE",
"157 89 CURVE",
"161 84 OFFCURVE",
"168 81 OFFCURVE",
"177 81 CURVE SMOOTH",
"196 81 OFFCURVE",
"207 93 OFFCURVE",
"214 108 CURVE",
"219 116 OFFCURVE",
"222 125 OFFCURVE",
"223 136 CURVE"
);
}
);
width = 321;
}
);
unicode = 00F4;
},
{
glyphname = odieresis;
lastChange = "2012-08-26 16:25:30 +0000";
layers = (
{
layerId = "E10EC336-1202-48FF-9A55-15876E80CDFD";
name = Regular;
paths = (
{
closed = 1;
nodes = (
"200 735 LINE",
"293 735 LINE",
"272 637 LINE",
"179 637 LINE"
);
},
{
closed = 1;
nodes = (
"341 735 LINE",
"434 735 LINE",
"413 637 LINE",
"320 637 LINE"
);
},
{
closed = 1;
nodes = (
"318 133 LINE",
"303 80 OFFCURVE",
"281 43 OFFCURVE",
"238 14 CURVE SMOOTH",
"217 -1 OFFCURVE",
"191 -8 OFFCURVE",
"158 -8 CURVE SMOOTH",
"126 -8 OFFCURVE",
"103 1 OFFCURVE",
"88 15 CURVE SMOOTH",
"72 29 OFFCURVE",
"64 45 OFFCURVE",
"60 64 CURVE SMOOTH",
"55 87 OFFCURVE",
"55 111 OFFCURVE",
"59 136 CURVE",
"118 411 LINE",
"133 464 OFFCURVE",
"155 502 OFFCURVE",
"198 533 CURVE",
"217 548 OFFCURVE",
"244 555 OFFCURVE",
"277 555 CURVE SMOOTH",
"309 555 OFFCURVE",
"332 546 OFFCURVE",
"348 533 CURVE SMOOTH",
"364 520 OFFCURVE",
"372 501 OFFCURVE",
"376 484 CURVE SMOOTH",
"381 463 OFFCURVE",
"382 441 OFFCURVE",
"377 414 CURVE SMOOTH"
);
},
{
closed = 1;
nodes = (
"282 411 LINE SMOOTH",
"287 432 OFFCURVE",
"286 448 OFFCURVE",
"279 459 CURVE",
"275 464 OFFCURVE",
"268 467 OFFCURVE",
"259 467 CURVE SMOOTH",
"240 467 OFFCURVE",
"229 454 OFFCURVE",
"222 439 CURVE",
"217 431 OFFCURVE",
"214 422 OFFCURVE",
"213 411 CURVE",
"154 136 LINE",
"149 117 OFFCURVE",
"150 101 OFFCURVE",
"157 89 CURVE",
"161 84 OFFCURVE",
"168 81 OFFCURVE",
"177 81 CURVE SMOOTH",
"196 81 OFFCURVE",
"207 93 OFFCURVE",
"214 108 CURVE",
"219 116 OFFCURVE",
"222 125 OFFCURVE",
"223 136 CURVE"
);
}
);
width = 321;
}
);
unicode = 00F6;
},
{
glyphname = ograve;
lastChange = "2012-08-26 16:25:30 +0000";
layers = (
{
layerId = "E10EC336-1202-48FF-9A55-15876E80CDFD";
name = Regular;
paths = (
{
closed = 1;
nodes = (
"307 727 LINE",
"340 637 LINE",
"262 637 LINE",
"202 727 LINE"
);
},
{
closed = 1;
nodes = (
"318 133 LINE",
"303 80 OFFCURVE",
"281 43 OFFCURVE",
"238 14 CURVE SMOOTH",
"217 -1 OFFCURVE",
"191 -8 OFFCURVE",
"158 -8 CURVE SMOOTH",
"126 -8 OFFCURVE",
"103 1 OFFCURVE",
"88 15 CURVE SMOOTH",
"72 29 OFFCURVE",
"64 45 OFFCURVE",
"60 64 CURVE SMOOTH",
"55 87 OFFCURVE",
"55 111 OFFCURVE",
"59 136 CURVE",
"118 411 LINE",
"133 464 OFFCURVE",
"155 502 OFFCURVE",
"198 533 CURVE",
"217 548 OFFCURVE",
"244 555 OFFCURVE",
"277 555 CURVE SMOOTH",
"309 555 OFFCURVE",
"332 546 OFFCURVE",
"348 533 CURVE SMOOTH",
"364 520 OFFCURVE",
"372 501 OFFCURVE",
"376 484 CURVE SMOOTH",
"381 463 OFFCURVE",
"382 441 OFFCURVE",
"377 414 CURVE SMOOTH"
);
},
{
closed = 1;
nodes = (
"282 411 LINE SMOOTH",
"287 432 OFFCURVE",
"286 448 OFFCURVE",
"279 459 CURVE",
"275 464 OFFCURVE",
"268 467 OFFCURVE",
"259 467 CURVE SMOOTH",
"240 467 OFFCURVE",
"229 454 OFFCURVE",
"222 439 CURVE",
"217 431 OFFCURVE",
"214 422 OFFCURVE",
"213 411 CURVE",
"154 136 LINE",
"149 117 OFFCURVE",
"150 101 OFFCURVE",
"157 89 CURVE",
"161 84 OFFCURVE",
"168 81 OFFCURVE",
"177 81 CURVE SMOOTH",
"196 81 OFFCURVE",
"207 93 OFFCURVE",
"214 108 CURVE",
"219 116 OFFCURVE",
"222 125 OFFCURVE",
"223 136 CURVE"
);
}
);
width = 321;
}
);
unicode = 00F2;
},
{
glyphname = oslash;
lastChange = "2012-08-26 16:25:31 +0000";
layers = (
{
anchors = (
{
name = top;
position = "{161, 547}";
}
);
layerId = "E10EC336-1202-48FF-9A55-15876E80CDFD";
name = Regular;
paths = (
{
closed = 1;
nodes = (
"52 -38 LINE",
"80 21 LINE",
"61 42 OFFCURVE",
"55 70 OFFCURVE",
"55 94 CURVE SMOOTH",
"55 109 OFFCURVE",
"56 123 OFFCURVE",
"59 136 CURVE SMOOTH",
"118 411 LINE",
"133 464 OFFCURVE",
"155 502 OFFCURVE",
"198 533 CURVE",
"217 548 OFFCURVE",
"244 555 OFFCURVE",
"277 555 CURVE SMOOTH",
"297 555 OFFCURVE",
"313 551 OFFCURVE",
"328 546 CURVE",
"346 585 LINE",
"383 585 LINE",
"355 526 LINE",
"374 505 OFFCURVE",
"377 478 OFFCURVE",
"380 455 CURVE",
"380 442 OFFCURVE",
"379 428 OFFCURVE",
"377 414 CURVE",
"318 133 LINE",
"303 80 OFFCURVE",
"281 43 OFFCURVE",
"238 14 CURVE SMOOTH",
"217 -1 OFFCURVE",
"191 -8 OFFCURVE",
"158 -8 CURVE SMOOTH",
"140 -8 OFFCURVE",
"124 -5 OFFCURVE",
"110 0 CURVE",
"91 -38 LINE"
);
},
{
closed = 1;
nodes = (
"171 213 LINE",
"282 450 LINE",
"279 461 OFFCURVE",
"274 467 OFFCURVE",
"259 467 CURVE SMOOTH",
"240 467 OFFCURVE",
"229 454 OFFCURVE",
"222 439 CURVE",
"217 431 OFFCURVE",
"214 422 OFFCURVE",
"213 411 CURVE"
);
},
{
closed = 1;
nodes = (
"265 333 LINE",
"154 96 LINE",
"157 86 OFFCURVE",
"164 81 OFFCURVE",
"177 81 CURVE SMOOTH",
"196 81 OFFCURVE",
"207 93 OFFCURVE",
"214 108 CURVE",
"219 116 OFFCURVE",
"222 125 OFFCURVE",
"223 136 CURVE"
);
}
);
width = 321;
}
);
unicode = 00F8;
},
{
glyphname = otilde;
lastChange = "2012-08-26 16:25:30 +0000";
layers = (
{
layerId = "E10EC336-1202-48FF-9A55-15876E80CDFD";
name = Regular;
paths = (
{
closed = 1;
nodes = (
"215 711 LINE",
"226 718 OFFCURVE",
"238 723 OFFCURVE",
"251 727 CURVE SMOOTH",
"257 729 OFFCURVE",
"264 730 OFFCURVE",
"272 730 CURVE SMOOTH",
"286 730 OFFCURVE",
"300 727 OFFCURVE",
"314 722 CURVE",
"328 715 OFFCURVE",
"342 712 OFFCURVE",
"356 711 CURVE",
"371 711 OFFCURVE",
"382 715 OFFCURVE",
"394 719 CURVE SMOOTH",
"397 720 OFFCURVE",
"400 722 OFFCURVE",
"403 723 CURVE SMOOTH",
"406 724 OFFCURVE",
"409 726 OFFCURVE",
"412 727 CURVE",
"396 653 LINE",
"387 646 OFFCURVE",
"375 640 OFFCURVE",
"360 637 CURVE",
"353 635 OFFCURVE",
"346 634 OFFCURVE",
"339 634 CURVE SMOOTH",
"324 634 OFFCURVE",
"310 637 OFFCURVE",
"298 643 CURVE",
"286 648 OFFCURVE",
"272 652 OFFCURVE",
"255 653 CURVE",
"240 653 OFFCURVE",
"228 649 OFFCURVE",
"217 645 CURVE SMOOTH",
"214 644 OFFCURVE",
"211 642 OFFCURVE",
"208 641 CURVE SMOOTH",
"205 640 OFFCURVE",
"202 638 OFFCURVE",
"199 637 CURVE"
);
},
{
closed = 1;
nodes = (
"318 133 LINE",
"303 80 OFFCURVE",
"281 43 OFFCURVE",
"238 14 CURVE SMOOTH",
"217 -1 OFFCURVE",
"191 -8 OFFCURVE",
"158 -8 CURVE SMOOTH",
"126 -8 OFFCURVE",
"103 1 OFFCURVE",
"88 15 CURVE SMOOTH",
"72 29 OFFCURVE",
"64 45 OFFCURVE",
"60 64 CURVE SMOOTH",
"55 87 OFFCURVE",
"55 111 OFFCURVE",
"59 136 CURVE",
"118 411 LINE",
"133 464 OFFCURVE",
"155 502 OFFCURVE",
"198 533 CURVE",
"217 548 OFFCURVE",
"244 555 OFFCURVE",
"277 555 CURVE SMOOTH",
"309 555 OFFCURVE",
"332 546 OFFCURVE",
"348 533 CURVE SMOOTH",
"364 520 OFFCURVE",
"372 501 OFFCURVE",
"376 484 CURVE SMOOTH",
"381 463 OFFCURVE",
"382 441 OFFCURVE",
"377 414 CURVE SMOOTH"
);
},
{
closed = 1;
nodes = (
"282 411 LINE SMOOTH",
"287 432 OFFCURVE",
"286 448 OFFCURVE",
"279 459 CURVE",
"275 464 OFFCURVE",
"268 467 OFFCURVE",
"259 467 CURVE SMOOTH",
"240 467 OFFCURVE",
"229 454 OFFCURVE",
"222 439 CURVE",
"217 431 OFFCURVE",
"214 422 OFFCURVE",
"213 411 CURVE",
"154 136 LINE",
"149 117 OFFCURVE",
"150 101 OFFCURVE",
"157 89 CURVE",
"161 84 OFFCURVE",
"168 81 OFFCURVE",
"177 81 CURVE SMOOTH",
"196 81 OFFCURVE",
"207 93 OFFCURVE",
"214 108 CURVE",
"219 116 OFFCURVE",
"222 125 OFFCURVE",
"223 136 CURVE"
);
}
);
width = 321;
}
);
unicode = 00F5;
},
{
glyphname = oe;
lastChange = "2012-08-26 16:25:31 +0000";
layers = (
{
anchors = (
{
name = top;
position = "{243, 547}";
}
);
layerId = "E10EC336-1202-48FF-9A55-15876E80CDFD";
name = Regular;
paths = (
{
closed = 1;
nodes = (
"498 196 LINE",
"485 133 LINE",
"470 80 OFFCURVE",
"447 43 OFFCURVE",
"404 14 CURVE SMOOTH",
"383 -1 OFFCURVE",
"357 -8 OFFCURVE",
"324 -8 CURVE SMOOTH",
"287 -8 OFFCURVE",
"262 3 OFFCURVE",
"247 20 CURVE",
"224 4 OFFCURVE",
"195 -8 OFFCURVE",
"158 -8 CURVE SMOOTH",
"126 -8 OFFCURVE",
"103 1 OFFCURVE",
"88 15 CURVE SMOOTH",
"72 29 OFFCURVE",
"64 45 OFFCURVE",
"60 64 CURVE SMOOTH",
"55 87 OFFCURVE",
"55 111 OFFCURVE",
"59 136 CURVE",
"118 411 LINE",
"133 464 OFFCURVE",
"155 502 OFFCURVE",
"198 533 CURVE",
"217 548 OFFCURVE",
"244 555 OFFCURVE",
"277 555 CURVE SMOOTH",
"316 555 OFFCURVE",
"340 543 OFFCURVE",
"355 526 CURVE",
"378 543 OFFCURVE",
"405 555 OFFCURVE",
"444 555 CURVE SMOOTH",
"476 555 OFFCURVE",
"499 546 OFFCURVE",
"515 533 CURVE SMOOTH",
"531 520 OFFCURVE",
"539 501 OFFCURVE",
"543 484 CURVE SMOOTH",
"548 463 OFFCURVE",
"549 441 OFFCURVE",
"544 414 CURVE SMOOTH",
"511 255 LINE",
"344 255 LINE",
"318 133 LINE",
"317 129 OFFCURVE",
"315 116 OFFCURVE",
"318 104 CURVE SMOOTH",
"321 92 OFFCURVE",
"328 81 OFFCURVE",
"344 81 CURVE SMOOTH",
"363 81 OFFCURVE",
"374 93 OFFCURVE",
"381 108 CURVE",
"386 115 OFFCURVE",
"389 125 OFFCURVE",
"391 136 CURVE SMOOTH",
"404 196 LINE"
);
},
{
closed = 1;
nodes = (
"282 411 LINE SMOOTH",
"287 432 OFFCURVE",
"286 448 OFFCURVE",
"279 459 CURVE",
"275 464 OFFCURVE",
"268 467 OFFCURVE",
"259 467 CURVE SMOOTH",
"240 467 OFFCURVE",
"229 454 OFFCURVE",
"222 439 CURVE",
"217 431 OFFCURVE",
"214 422 OFFCURVE",
"213 411 CURVE",
"154 136 LINE",
"149 117 OFFCURVE",
"150 101 OFFCURVE",
"157 89 CURVE",
"161 84 OFFCURVE",
"168 81 OFFCURVE",
"177 81 CURVE SMOOTH",
"196 81 OFFCURVE",
"207 93 OFFCURVE",
"214 108 CURVE",
"219 116 OFFCURVE",
"222 125 OFFCURVE",
"223 136 CURVE"
);
},
{
closed = 1;
nodes = (
"360 334 LINE",
"433 334 LINE",
"450 411 LINE SMOOTH",
"454 432 OFFCURVE",
"454 447 OFFCURVE",
"446 459 CURVE",
"442 464 OFFCURVE",
"435 467 OFFCURVE",
"426 467 CURVE SMOOTH",
"410 467 OFFCURVE",
"397 456 OFFCURVE",
"390 444 CURVE",
"386 438 OFFCURVE",
"383 432 OFFCURVE",
"382 427 CURVE",
"380 421 OFFCURVE",
"378 417 OFFCURVE",
"377 414 CURVE"
);
}
);
width = 486;
}
);
unicode = 0153;
},
{
glyphname = p;
lastChange = "2012-08-26 16:25:30 +0000";
layers = (
{
layerId = "E10EC336-1202-48FF-9A55-15876E80CDFD";
name = Regular;
paths = (
{
closed = 1;
nodes = (
"156 547 LINE",
"257 547 LINE",
"249 511 LINE",
"270 527 OFFCURVE",
"286 539 OFFCURVE",
"309 548 CURVE",
"318 553 OFFCURVE",
"328 555 OFFCURVE",
"338 555 CURVE SMOOTH",
"366 555 OFFCURVE",
"382 539 OFFCURVE",
"391 519 CURVE",
"398 498 OFFCURVE",
"399 471 OFFCURVE",
"394 448 CURVE SMOOTH",
"320 99 LINE SMOOTH",
"315 76 OFFCURVE",
"303 49 OFFCURVE",
"287 29 CURVE",
"268 8 OFFCURVE",
"247 -8 OFFCURVE",
"219 -8 CURVE SMOOTH",
"200 -8 OFFCURVE",
"182 3 OFFCURVE",
"169 14 CURVE",
"162 21 OFFCURVE",
"155 28 OFFCURVE",
"148 36 CURVE",
"101 -188 LINE",
"0 -188 LINE"
);
},
{
closed = 1;
nodes = (
"166 120 LINE SMOOTH",
"163 104 OFFCURVE",
"174 87 OFFCURVE",
"189 87 CURVE SMOOTH",
"204 87 OFFCURVE",
"219 101 OFFCURVE",
"223 120 CURVE SMOOTH",
"288 427 LINE SMOOTH",
"292 446 OFFCURVE",
"283 460 OFFCURVE",
"268 460 CURVE SMOOTH",
"253 460 OFFCURVE",
"235 446 OFFCURVE",
"231 427 CURVE SMOOTH"
);
}
);
width = 335;
}
);
unicode = 0070;
},
{
glyphname = q;
lastChange = "2012-08-26 16:25:30 +0000";
layers = (
{
layerId = "E10EC336-1202-48FF-9A55-15876E80CDFD";
name = Regular;
paths = (
{
closed = 1;
nodes = (
"255 -188 LINE",
"154 -188 LINE",
"201 36 LINE",
"181 20 OFFCURVE",
"163 8 OFFCURVE",
"142 -1 CURVE",
"132 -6 OFFCURVE",
"122 -8 OFFCURVE",
"112 -8 CURVE SMOOTH",
"84 -8 OFFCURVE",
"68 8 OFFCURVE",
"61 29 CURVE",
"52 49 OFFCURVE",
"52 76 OFFCURVE",
"57 99 CURVE SMOOTH",
"131 448 LINE SMOOTH",
"136 471 OFFCURVE",
"146 498 OFFCURVE",
"165 519 CURVE",
"181 539 OFFCURVE",
"203 555 OFFCURVE",
"231 555 CURVE SMOOTH",
"250 555 OFFCURVE",
"268 544 OFFCURVE",
"281 533 CURVE",
"288 526 OFFCURVE",
"295 519 OFFCURVE",
"302 511 CURVE",
"310 547 LINE",
"411 547 LINE"
);
},
{
closed = 1;
nodes = (
"284 427 LINE SMOOTH",
"288 446 OFFCURVE",
"276 460 OFFCURVE",
"261 460 CURVE SMOOTH",
"246 460 OFFCURVE",
"231 446 OFFCURVE",
"227 427 CURVE SMOOTH",
"162 120 LINE SMOOTH",
"158 101 OFFCURVE",
"167 87 OFFCURVE",
"182 87 CURVE SMOOTH",
"197 87 OFFCURVE",
"216 104 OFFCURVE",
"219 120 CURVE SMOOTH"
);
}
);
width = 335;
}
);
unicode = 0071;
},
{
glyphname = r;
lastChange = "2012-08-26 16:25:31 +0000";
layers = (
{
anchors = (
{
name = bottom;
position = "{123, 0}";
},
{
name = top;
position = "{123, 547}";
}
);
layerId = "E10EC336-1202-48FF-9A55-15876E80CDFD";
name = Regular;
paths = (
{
closed = 1;
nodes = (
"336 443 LINE",
"328 446 OFFCURVE",
"319 447 OFFCURVE",
"309 447 CURVE SMOOTH",
"293 447 OFFCURVE",
"273 445 OFFCURVE",
"254 430 CURVE",
"231 414 OFFCURVE",
"225 397 OFFCURVE",
"221 380 CURVE SMOOTH",
"141 0 LINE",
"40 0 LINE",
"156 547 LINE",
"257 547 LINE",
"244 486 LINE",
"247 493 OFFCURVE",
"257 510 OFFCURVE",
"276 526 CURVE SMOOTH",
"295 541 OFFCURVE",
"322 555 OFFCURVE",
"359 555 CURVE"
);
}
);
width = 246;
}
);
unicode = 0072;
},
{
glyphname = s;
lastChange = "2012-08-26 16:25:31 +0000";
layers = (
{
anchors = (
{
name = bottom;
position = "{154, 0}";
},
{
name = top;
position = "{154, 547}";
}
);
layerId = "E10EC336-1202-48FF-9A55-15876E80CDFD";
name = Regular;
paths = (
{
closed = 1;
nodes = (
"279 407 LINE",
"282 420 OFFCURVE",
"285 436 OFFCURVE",
"284 449 CURVE",
"281 461 OFFCURVE",
"276 471 OFFCURVE",
"260 471 CURVE SMOOTH",
"247 471 OFFCURVE",
"237 461 OFFCURVE",
"230 449 CURVE",
"222 437 OFFCURVE",
"218 420 OFFCURVE",
"215 407 CURVE SMOOTH",
"211 390 OFFCURVE",
"217 372 OFFCURVE",
"226 356 CURVE SMOOTH",
"235 340 OFFCURVE",
"247 324 OFFCURVE",
"260 309 CURVE SMOOTH",
"277 288 OFFCURVE",
"297 264 OFFCURVE",
"308 237 CURVE SMOOTH",
"319 209 OFFCURVE",
"325 178 OFFCURVE",
"318 142 CURVE SMOOTH",
"310 107 OFFCURVE",
"295 70 OFFCURVE",
"268 42 CURVE SMOOTH",
"241 13 OFFCURVE",
"205 -8 OFFCURVE",
"157 -8 CURVE SMOOTH",
"96 -8 OFFCURVE",
"66 19 OFFCURVE",
"53 54 CURVE SMOOTH",
"40 89 OFFCURVE",
"44 130 OFFCURVE",
"51 159 CURVE",
"145 159 LINE",
"142 144 OFFCURVE",
"139 123 OFFCURVE",
"142 107 CURVE",
"146 90 OFFCURVE",
"154 76 OFFCURVE",
"175 76 CURVE SMOOTH",
"204 76 OFFCURVE",
"217 110 OFFCURVE",
"224 142 CURVE SMOOTH",
"231 175 OFFCURVE",
"206 208 OFFCURVE",
"181 239 CURVE SMOOTH",
"162 262 OFFCURVE",
"144 283 OFFCURVE",
"131 310 CURVE SMOOTH",
"119 337 OFFCURVE",
"113 367 OFFCURVE",
"121 407 CURVE SMOOTH",
"128 439 OFFCURVE",
"142 476 OFFCURVE",
"167 505 CURVE SMOOTH",
"192 533 OFFCURVE",
"227 554 OFFCURVE",
"275 555 CURVE SMOOTH",
"335 556 OFFCURVE",
"363 534 OFFCURVE",
"374 505 CURVE SMOOTH",
"385 476 OFFCURVE",
"380 438 OFFCURVE",
"373 407 CURVE"
);
}
);
width = 308;
}
);
unicode = 0073;
},
{
glyphname = germandbls;
lastChange = "2012-08-26 16:25:30 +0000";
layers = (
{
layerId = "E10EC336-1202-48FF-9A55-15876E80CDFD";
name = Regular;
paths = (
{
closed = 1;
nodes = (
"285 547 LINE",
"308 547 OFFCURVE",
"331 569 OFFCURVE",
"339 604 CURVE SMOOTH",
"346 631 OFFCURVE",
"336 653 OFFCURVE",
"307 653 CURVE SMOOTH",
"282 653 OFFCURVE",
"266 630 OFFCURVE",
"261 603 CURVE SMOOTH",
"133 0 LINE",
"32 0 LINE",
"160 603 LINE SMOOTH",
"168 640 OFFCURVE",
"185 676 OFFCURVE",
"214 701 CURVE SMOOTH",
"242 726 OFFCURVE",
"278 743 OFFCURVE",
"326 743 CURVE SMOOTH",
"371 743 OFFCURVE",
"402 727 OFFCURVE",
"418 702 CURVE SMOOTH",
"433 677 OFFCURVE",
"437 641 OFFCURVE",
"429 604 CURVE SMOOTH",
"421 568 OFFCURVE",
"399 539 OFFCURVE",
"368 519 CURVE",
"388 506 OFFCURVE",
"401 485 OFFCURVE",
"406 446 CURVE SMOOTH",
"411 407 OFFCURVE",
"407 354 OFFCURVE",
"391 281 CURVE SMOOTH",
"366 160 OFFCURVE",
"336 89 OFFCURVE",
"300 49 CURVE SMOOTH",
"263 9 OFFCURVE",
"221 0 OFFCURVE",
"169 0 CURVE",
"188 94 LINE",
"208 94 OFFCURVE",
"227 100 OFFCURVE",
"242 127 CURVE SMOOTH",
"258 154 OFFCURVE",
"273 201 OFFCURVE",
"290 281 CURVE SMOOTH",
"299 324 OFFCURVE",
"306 358 OFFCURVE",
"309 384 CURVE SMOOTH",
"312 409 OFFCURVE",
"312 429 OFFCURVE",
"310 443 CURVE SMOOTH",
"306 471 OFFCURVE",
"290 478 OFFCURVE",
"270 478 CURVE"
);
}
);
width = 358;
}
);
unicode = 00DF;
},
{
glyphname = t;
lastChange = "2012-08-26 16:25:31 +0000";
layers = (
{
anchors = (
{
name = bottom;
position = "{123, 0}";
},
{
name = center;
position = "{123, 274}";
}
);
layerId = "E10EC336-1202-48FF-9A55-15876E80CDFD";
name = Regular;
paths = (
{
closed = 1;
nodes = (
"306 682 LINE",
"278 547 LINE",
"347 547 LINE",
"327 456 LINE",
"258 456 LINE",
"201 184 LINE SMOOTH",
"197 167 OFFCURVE",
"192 146 OFFCURVE",
"192 127 CURVE",
"193 108 OFFCURVE",
"197 94 OFFCURVE",
"213 94 CURVE SMOOTH",
"221 94 OFFCURVE",
"232 95 OFFCURVE",
"239 96 CURVE",
"241 97 OFFCURVE",
"243 97 OFFCURVE",
"245 97 CURVE SMOOTH",
"247 97 OFFCURVE",
"249 97 OFFCURVE",
"251 98 CURVE",
"230 -1 LINE",
"227 -2 OFFCURVE",
"225 -2 OFFCURVE",
"223 -3 CURVE",
"220 -4 OFFCURVE",
"217 -4 OFFCURVE",
"214 -5 CURVE",
"204 -7 OFFCURVE",
"191 -8 OFFCURVE",
"175 -8 CURVE SMOOTH",
"115 -8 OFFCURVE",
"95 21 OFFCURVE",
"88 60 CURVE SMOOTH",
"81 99 OFFCURVE",
"91 144 OFFCURVE",
"98 176 CURVE SMOOTH",
"157 456 LINE",
"106 456 LINE",
"126 547 LINE",
"177 547 LINE",
"205 682 LINE"
);
}
);
width = 245;
}
);
unicode = 0074;
},
{
glyphname = u;
lastChange = "2012-08-26 16:25:31 +0000";
layers = (
{
anchors = (
{
name = ogonek;
position = "{303, 10}";
},
{
name = top;
position = "{169, 547}";
}
);
layerId = "E10EC336-1202-48FF-9A55-15876E80CDFD";
name = Regular;
paths = (
{
closed = 1;
nodes = (
"312 547 LINE",
"413 547 LINE",
"297 0 LINE",
"196 0 LINE",
"205 46 LINE",
"203 45 OFFCURVE",
"199 42 OFFCURVE",
"192 36 CURVE SMOOTH",
"177 24 OFFCURVE",
"161 11 OFFCURVE",
"141 0 CURVE",
"129 -5 OFFCURVE",
"119 -8 OFFCURVE",
"112 -8 CURVE SMOOTH",
"85 -8 OFFCURVE",
"69 8 OFFCURVE",
"62 29 CURVE",
"54 49 OFFCURVE",
"54 76 OFFCURVE",
"59 99 CURVE SMOOTH",
"154 547 LINE",
"255 547 LINE",
"163 114 LINE SMOOTH",
"158 93 OFFCURVE",
"170 90 OFFCURVE",
"182 90 CURVE SMOOTH",
"193 90 OFFCURVE",
"200 96 OFFCURVE",
"208 103 CURVE",
"212 106 OFFCURVE",
"216 111 OFFCURVE",
"220 116 CURVE"
);
}
);
width = 337;
}
);
unicode = 0075;
},
{
glyphname = uacute;
lastChange = "2012-08-26 16:25:30 +0000";
layers = (
{
layerId = "E10EC336-1202-48FF-9A55-15876E80CDFD";
name = Regular;
paths = (
{
closed = 1;
nodes = (
"445 727 LINE",
"347 637 LINE",
"269 637 LINE",
"340 727 LINE"
);
},
{
closed = 1;
nodes = (
"312 547 LINE",
"413 547 LINE",
"297 0 LINE",
"196 0 LINE",
"205 46 LINE",
"203 45 OFFCURVE",
"199 42 OFFCURVE",
"192 36 CURVE SMOOTH",
"177 24 OFFCURVE",
"161 11 OFFCURVE",
"141 0 CURVE",
"129 -5 OFFCURVE",
"119 -8 OFFCURVE",
"112 -8 CURVE SMOOTH",
"85 -8 OFFCURVE",
"69 8 OFFCURVE",
"62 29 CURVE",
"54 49 OFFCURVE",
"54 76 OFFCURVE",
"59 99 CURVE SMOOTH",
"154 547 LINE",
"255 547 LINE",
"163 114 LINE SMOOTH",
"158 93 OFFCURVE",
"170 90 OFFCURVE",
"182 90 CURVE SMOOTH",
"193 90 OFFCURVE",
"200 96 OFFCURVE",
"208 103 CURVE",
"212 106 OFFCURVE",
"216 111 OFFCURVE",
"220 116 CURVE"
);
}
);
width = 337;
}
);
unicode = 00FA;
},
{
glyphname = ucircumflex;
lastChange = "2012-08-26 16:25:30 +0000";
layers = (
{
layerId = "E10EC336-1202-48FF-9A55-15876E80CDFD";
name = Regular;
paths = (
{
closed = 1;
nodes = (
"376 727 LINE",
"426 637 LINE",
"334 637 LINE",
"310 672 LINE",
"273 637 LINE",
"181 637 LINE",
"269 727 LINE"
);
},
{
closed = 1;
nodes = (
"312 547 LINE",
"413 547 LINE",
"297 0 LINE",
"196 0 LINE",
"205 46 LINE",
"203 45 OFFCURVE",
"199 42 OFFCURVE",
"192 36 CURVE SMOOTH",
"177 24 OFFCURVE",
"161 11 OFFCURVE",
"141 0 CURVE",
"129 -5 OFFCURVE",
"119 -8 OFFCURVE",
"112 -8 CURVE SMOOTH",
"85 -8 OFFCURVE",
"69 8 OFFCURVE",
"62 29 CURVE",
"54 49 OFFCURVE",
"54 76 OFFCURVE",
"59 99 CURVE SMOOTH",
"154 547 LINE",
"255 547 LINE",
"163 114 LINE SMOOTH",
"158 93 OFFCURVE",
"170 90 OFFCURVE",
"182 90 CURVE SMOOTH",
"193 90 OFFCURVE",
"200 96 OFFCURVE",
"208 103 CURVE",
"212 106 OFFCURVE",
"216 111 OFFCURVE",
"220 116 CURVE"
);
}
);
width = 337;
}
);
unicode = 00FB;
},
{
glyphname = udieresis;
lastChange = "2012-08-26 16:25:30 +0000";
layers = (
{
layerId = "E10EC336-1202-48FF-9A55-15876E80CDFD";
name = Regular;
paths = (
{
closed = 1;
nodes = (
"208 735 LINE",
"301 735 LINE",
"280 637 LINE",
"187 637 LINE"
);
},
{
closed = 1;
nodes = (
"349 735 LINE",
"442 735 LINE",
"421 637 LINE",
"328 637 LINE"
);
},
{
closed = 1;
nodes = (
"312 547 LINE",
"413 547 LINE",
"297 0 LINE",
"196 0 LINE",
"205 46 LINE",
"203 45 OFFCURVE",
"199 42 OFFCURVE",
"192 36 CURVE SMOOTH",
"177 24 OFFCURVE",
"161 11 OFFCURVE",
"141 0 CURVE",
"129 -5 OFFCURVE",
"119 -8 OFFCURVE",
"112 -8 CURVE SMOOTH",
"85 -8 OFFCURVE",
"69 8 OFFCURVE",
"62 29 CURVE",
"54 49 OFFCURVE",
"54 76 OFFCURVE",
"59 99 CURVE SMOOTH",
"154 547 LINE",
"255 547 LINE",
"163 114 LINE SMOOTH",
"158 93 OFFCURVE",
"170 90 OFFCURVE",
"182 90 CURVE SMOOTH",
"193 90 OFFCURVE",
"200 96 OFFCURVE",
"208 103 CURVE",
"212 106 OFFCURVE",
"216 111 OFFCURVE",
"220 116 CURVE"
);
}
);
width = 337;
}
);
unicode = 00FC;
},
{
glyphname = ugrave;
lastChange = "2012-08-26 16:25:30 +0000";
layers = (
{
layerId = "E10EC336-1202-48FF-9A55-15876E80CDFD";
name = Regular;
paths = (
{
closed = 1;
nodes = (
"314 727 LINE",
"347 637 LINE",
"269 637 LINE",
"209 727 LINE"
);
},
{
closed = 1;
nodes = (
"312 547 LINE",
"413 547 LINE",
"297 0 LINE",
"196 0 LINE",
"205 46 LINE",
"203 45 OFFCURVE",
"199 42 OFFCURVE",
"192 36 CURVE SMOOTH",
"177 24 OFFCURVE",
"161 11 OFFCURVE",
"141 0 CURVE",
"129 -5 OFFCURVE",
"119 -8 OFFCURVE",
"112 -8 CURVE SMOOTH",
"85 -8 OFFCURVE",
"69 8 OFFCURVE",
"62 29 CURVE",
"54 49 OFFCURVE",
"54 76 OFFCURVE",
"59 99 CURVE SMOOTH",
"154 547 LINE",
"255 547 LINE",
"163 114 LINE SMOOTH",
"158 93 OFFCURVE",
"170 90 OFFCURVE",
"182 90 CURVE SMOOTH",
"193 90 OFFCURVE",
"200 96 OFFCURVE",
"208 103 CURVE",
"212 106 OFFCURVE",
"216 111 OFFCURVE",
"220 116 CURVE"
);
}
);
width = 337;
}
);
unicode = 00F9;
},
{
glyphname = v;
lastChange = "2012-08-26 16:25:30 +0000";
layers = (
{
layerId = "E10EC336-1202-48FF-9A55-15876E80CDFD";
name = Regular;
paths = (
{
closed = 1;
nodes = (
"97 0 LINE",
"124 547 LINE",
"222 547 LINE",
"187 230 LINE",
"184 195 LINE",
"192 195 LINE",
"203 230 LINE",
"304 547 LINE",
"402 547 LINE",
"197 0 LINE"
);
}
);
width = 294;
}
);
unicode = 0076;
},
{
glyphname = w;
lastChange = "2012-08-26 16:25:31 +0000";
layers = (
{
anchors = (
{
name = top;
position = "{221, 547}";
}
);
layerId = "E10EC336-1202-48FF-9A55-15876E80CDFD";
name = Regular;
paths = (
{
closed = 1;
nodes = (
"267 0 LINE",
"283 261 LINE",
"285 292 LINE",
"281 292 LINE",
"269 261 LINE",
"175 0 LINE",
"91 0 LINE",
"126 547 LINE",
"218 547 LINE",
"189 261 LINE",
"186 230 LINE",
"192 230 LINE",
"204 261 LINE",
"307 547 LINE",
"367 547 LINE",
"348 261 LINE",
"346 230 LINE",
"352 230 LINE",
"363 261 LINE",
"456 547 LINE",
"548 547 LINE",
"351 0 LINE"
);
}
);
width = 442;
}
);
unicode = 0077;
},
{
glyphname = x;
lastChange = "2012-08-26 16:25:30 +0000";
layers = (
{
layerId = "E10EC336-1202-48FF-9A55-15876E80CDFD";
name = Regular;
paths = (
{
closed = 1;
nodes = (
"161 282 LINE",
"132 547 LINE",
"227 547 LINE",
"236 419 LINE",
"235 404 LINE",
"237 404 LINE",
"244 419 LINE",
"307 547 LINE",
"402 547 LINE",
"259 282 LINE",
"294 0 LINE",
"196 0 LINE",
"184 138 LINE",
"184 153 LINE",
"182 153 LINE",
"176 138 LINE",
"106 0 LINE",
"8 0 LINE"
);
}
);
width = 302;
}
);
unicode = 0078;
},
{
glyphname = y;
lastChange = "2012-08-26 16:25:31 +0000";
layers = (
{
anchors = (
{
name = top;
position = "{155, 547}";
}
);
layerId = "E10EC336-1202-48FF-9A55-15876E80CDFD";
name = Regular;
paths = (
{
closed = 1;
nodes = (
"-6 -104 LINE",
"-5 -105 OFFCURVE",
"-3 -105 OFFCURVE",
"0 -105 CURVE",
"4 -106 OFFCURVE",
"28 -108 OFFCURVE",
"47 -96 CURVE SMOOTH",
"65 -85 OFFCURVE",
"80 -68 OFFCURVE",
"91 -46 CURVE",
"96 -37 OFFCURVE",
"99 -27 OFFCURVE",
"101 -16 CURVE",
"128 547 LINE",
"227 547 LINE",
"195 211 LINE",
"191 183 LINE",
"195 183 LINE",
"203 211 LINE",
"315 547 LINE",
"414 547 LINE",
"192 -41 LINE SMOOTH",
"177 -80 OFFCURVE",
"156 -118 OFFCURVE",
"125 -147 CURVE SMOOTH",
"94 -176 OFFCURVE",
"59 -196 OFFCURVE",
"19 -196 CURVE SMOOTH",
"7 -196 LINE SMOOTH",
"-1 -196 OFFCURVE",
"-13 -195 OFFCURVE",
"-25 -194 CURVE"
);
}
);
width = 310;
}
);
unicode = 0079;
},
{
glyphname = ydieresis;
lastChange = "2012-08-26 16:25:30 +0000";
layers = (
{
layerId = "E10EC336-1202-48FF-9A55-15876E80CDFD";
name = Regular;
paths = (
{
closed = 1;
nodes = (
"194 735 LINE",
"287 735 LINE",
"266 637 LINE",
"173 637 LINE"
);
},
{
closed = 1;
nodes = (
"335 735 LINE",
"428 735 LINE",
"407 637 LINE",
"314 637 LINE"
);
},
{
closed = 1;
nodes = (
"-6 -104 LINE",
"-5 -105 OFFCURVE",
"-3 -105 OFFCURVE",
"0 -105 CURVE",
"4 -106 OFFCURVE",
"28 -108 OFFCURVE",
"47 -96 CURVE SMOOTH",
"65 -85 OFFCURVE",
"80 -68 OFFCURVE",
"91 -46 CURVE",
"96 -37 OFFCURVE",
"99 -27 OFFCURVE",
"101 -16 CURVE",
"128 547 LINE",
"227 547 LINE",
"195 211 LINE",
"191 183 LINE",
"195 183 LINE",
"203 211 LINE",
"315 547 LINE",
"414 547 LINE",
"192 -41 LINE SMOOTH",
"177 -80 OFFCURVE",
"156 -118 OFFCURVE",
"125 -147 CURVE SMOOTH",
"94 -176 OFFCURVE",
"59 -196 OFFCURVE",
"19 -196 CURVE SMOOTH",
"7 -196 LINE SMOOTH",
"-1 -196 OFFCURVE",
"-13 -195 OFFCURVE",
"-25 -194 CURVE"
);
}
);
width = 310;
}
);
unicode = 00FF;
},
{
glyphname = z;
lastChange = "2012-08-26 16:25:31 +0000";
layers = (
{
anchors = (
{
name = top;
position = "{130, 547}";
}
);
layerId = "E10EC336-1202-48FF-9A55-15876E80CDFD";
name = Regular;
paths = (
{
closed = 1;
nodes = (
"23 82 LINE",
"241 455 LINE",
"124 455 LINE",
"144 547 LINE",
"368 547 LINE",
"350 465 LINE",
"132 92 LINE",
"271 92 LINE",
"252 0 LINE",
"6 0 LINE"
);
}
);
width = 260;
}
);
unicode = 007A;
},
{
glyphname = fi;
lastChange = "2012-08-26 16:25:30 +0000";
layers = (
{
layerId = "E10EC336-1202-48FF-9A55-15876E80CDFD";
name = Regular;
paths = (
{
closed = 1;
nodes = (
"236 0 LINE",
"332 456 LINE",
"258 456 LINE",
"162 0 LINE",
"61 0 LINE",
"157 456 LINE",
"106 456 LINE",
"126 547 LINE",
"177 547 LINE",
"180 562 LINE",
"187 590 OFFCURVE",
"195 635 OFFCURVE",
"219 674 CURVE SMOOTH",
"242 713 OFFCURVE",
"278 742 OFFCURVE",
"342 742 CURVE SMOOTH",
"361 742 OFFCURVE",
"379 741 OFFCURVE",
"391 738 CURVE",
"394 737 OFFCURVE",
"398 737 OFFCURVE",
"402 737 CURVE",
"406 736 OFFCURVE",
"410 736 OFFCURVE",
"413 735 CURVE",
"394 645 LINE",
"389 646 OFFCURVE",
"376 649 OFFCURVE",
"364 650 CURVE",
"357 651 OFFCURVE",
"350 651 OFFCURVE",
"341 651 CURVE SMOOTH",
"318 651 OFFCURVE",
"305 635 OFFCURVE",
"296 616 CURVE",
"291 607 OFFCURVE",
"288 597 OFFCURVE",
"286 586 CURVE SMOOTH",
"285 581 OFFCURVE",
"284 576 OFFCURVE",
"283 572 CURVE SMOOTH",
"282 568 OFFCURVE",
"282 564 OFFCURVE",
"281 561 CURVE",
"278 547 LINE",
"453 547 LINE",
"337 0 LINE"
);
}
);
width = 377;
}
);
unicode = FB01;
},
{
glyphname = fl;
lastChange = "2012-08-26 16:25:30 +0000";
layers = (
{
layerId = "E10EC336-1202-48FF-9A55-15876E80CDFD";
name = Regular;
paths = (
{
closed = 1;
nodes = (
"236 0 LINE",
"373 649 LINE",
"365 650 OFFCURVE",
"356 651 OFFCURVE",
"341 651 CURVE SMOOTH",
"318 651 OFFCURVE",
"305 635 OFFCURVE",
"296 616 CURVE",
"291 607 OFFCURVE",
"288 597 OFFCURVE",
"286 586 CURVE SMOOTH",
"285 581 OFFCURVE",
"284 576 OFFCURVE",
"283 572 CURVE SMOOTH",
"282 568 OFFCURVE",
"282 564 OFFCURVE",
"281 561 CURVE",
"278 547 LINE",
"329 547 LINE",
"309 456 LINE",
"258 456 LINE",
"162 0 LINE",
"61 0 LINE",
"157 456 LINE",
"106 456 LINE",
"126 547 LINE",
"177 547 LINE",
"180 562 LINE",
"187 590 OFFCURVE",
"195 635 OFFCURVE",
"219 674 CURVE SMOOTH",
"242 713 OFFCURVE",
"278 742 OFFCURVE",
"342 742 CURVE SMOOTH",
"361 742 OFFCURVE",
"379 741 OFFCURVE",
"391 738 CURVE",
"394 737 OFFCURVE",
"398 737 OFFCURVE",
"402 737 CURVE",
"406 736 OFFCURVE",
"410 736 OFFCURVE",
"413 735 CURVE",
"493 735 LINE",
"337 0 LINE"
);
}
);
width = 377;
}
);
unicode = FB02;
},
{
glyphname = zero;
lastChange = "2012-08-26 16:25:30 +0000";
layers = (
{
layerId = "E10EC336-1202-48FF-9A55-15876E80CDFD";
name = Regular;
paths = (
{
closed = 1;
nodes = (
"353 151 LINE",
"345 121 OFFCURVE",
"333 94 OFFCURVE",
"318 71 CURVE",
"303 51 OFFCURVE",
"286 32 OFFCURVE",
"263 17 CURVE",
"239 0 OFFCURVE",
"210 -8 OFFCURVE",
"175 -8 CURVE SMOOTH",
"140 -8 OFFCURVE",
"114 0 OFFCURVE",
"96 17 CURVE SMOOTH",
"79 32 OFFCURVE",
"70 51 OFFCURVE",
"66 71 CURVE",
"59 94 OFFCURVE",
"59 120 OFFCURVE",
"65 151 CURVE SMOOTH",
"157 584 LINE SMOOTH",
"164 613 OFFCURVE",
"175 639 OFFCURVE",
"191 663 CURVE",
"206 683 OFFCURVE",
"222 703 OFFCURVE",
"245 718 CURVE SMOOTH",
"268 733 OFFCURVE",
"298 743 OFFCURVE",
"334 743 CURVE SMOOTH",
"370 743 OFFCURVE",
"395 733 OFFCURVE",
"412 718 CURVE SMOOTH",
"429 703 OFFCURVE",
"439 683 OFFCURVE",
"443 663 CURVE",
"450 641 OFFCURVE",
"450 615 OFFCURVE",
"445 584 CURVE"
);
},
{
closed = 1;
nodes = (
"337 584 LINE SMOOTH",
"341 604 OFFCURVE",
"339 619 OFFCURVE",
"332 630 CURVE",
"328 635 OFFCURVE",
"321 638 OFFCURVE",
"312 638 CURVE SMOOTH",
"293 638 OFFCURVE",
"281 624 OFFCURVE",
"274 611 CURVE SMOOTH",
"270 603 OFFCURVE",
"267 594 OFFCURVE",
"265 584 CURVE SMOOTH",
"173 151 LINE",
"168 132 OFFCURVE",
"170 116 OFFCURVE",
"178 105 CURVE",
"182 100 OFFCURVE",
"188 97 OFFCURVE",
"197 97 CURVE SMOOTH",
"216 97 OFFCURVE",
"228 109 OFFCURVE",
"235 124 CURVE SMOOTH",
"238 130 OFFCURVE",
"242 139 OFFCURVE",
"245 151 CURVE"
);
}
);
width = 354;
}
);
unicode = 0030;
},
{
glyphname = one;
lastChange = "2012-08-26 16:25:30 +0000";
layers = (
{
layerId = "E10EC336-1202-48FF-9A55-15876E80CDFD";
name = Regular;
paths = (
{
closed = 1;
nodes = (
"134 576 LINE",
"149 645 LINE",
"196 654 OFFCURVE",
"227 677 OFFCURVE",
"251 697 CURVE",
"263 709 OFFCURVE",
"274 722 OFFCURVE",
"283 735 CURVE",
"348 735 LINE",
"192 0 LINE",
"84 0 LINE",
"206 576 LINE"
);
}
);
width = 232;
}
);
unicode = 0031;
},
{
glyphname = two;
lastChange = "2012-08-26 16:25:30 +0000";
layers = (
{
layerId = "E10EC336-1202-48FF-9A55-15876E80CDFD";
name = Regular;
paths = (
{
closed = 1;
nodes = (
"136 502 LINE",
"147 553 LINE SMOOTH",
"158 602 OFFCURVE",
"175 650 OFFCURVE",
"203 685 CURVE SMOOTH",
"232 720 OFFCURVE",
"271 743 OFFCURVE",
"331 743 CURVE SMOOTH",
"387 743 OFFCURVE",
"419 722 OFFCURVE",
"434 690 CURVE",
"441 673 OFFCURVE",
"445 654 OFFCURVE",
"445 632 CURVE SMOOTH",
"445 609 OFFCURVE",
"442 585 OFFCURVE",
"437 560 CURVE SMOOTH",
"421 484 OFFCURVE",
"374 397 OFFCURVE",
"321 313 CURVE SMOOTH",
"266 229 OFFCURVE",
"210 154 OFFCURVE",
"171 107 CURVE",
"342 107 LINE",
"320 0 LINE",
"27 0 LINE",
"49 107 LINE",
"93 158 OFFCURVE",
"133 210 OFFCURVE",
"172 262 CURVE SMOOTH",
"205 307 OFFCURVE",
"236 355 OFFCURVE",
"265 407 CURVE SMOOTH",
"293 458 OFFCURVE",
"316 508 OFFCURVE",
"327 553 CURVE",
"331 573 OFFCURVE",
"335 596 OFFCURVE",
"334 613 CURVE",
"331 630 OFFCURVE",
"326 643 OFFCURVE",
"310 643 CURVE SMOOTH",
"295 643 OFFCURVE",
"284 632 OFFCURVE",
"275 616 CURVE",
"267 599 OFFCURVE",
"260 578 OFFCURVE",
"255 553 CURVE SMOOTH",
"244 502 LINE"
);
}
);
width = 357;
}
);
unicode = 0032;
},
{
glyphname = three;
lastChange = "2012-08-26 16:25:30 +0000";
layers = (
{
layerId = "E10EC336-1202-48FF-9A55-15876E80CDFD";
name = Regular;
paths = (
{
closed = 1;
nodes = (
"182 332 LINE",
"201 422 LINE",
"248 425 OFFCURVE",
"270 434 OFFCURVE",
"283 455 CURVE",
"296 474 OFFCURVE",
"300 501 OFFCURVE",
"304 521 CURVE SMOOTH",
"306 531 OFFCURVE",
"308 542 OFFCURVE",
"311 553 CURVE SMOOTH",
"316 574 OFFCURVE",
"320 597 OFFCURVE",
"320 616 CURVE SMOOTH",
"320 635 OFFCURVE",
"314 648 OFFCURVE",
"297 648 CURVE SMOOTH",
"284 648 OFFCURVE",
"275 642 OFFCURVE",
"267 623 CURVE SMOOTH",
"258 603 OFFCURVE",
"250 572 OFFCURVE",
"239 523 CURVE",
"133 523 LINE",
"141 564 OFFCURVE",
"154 620 OFFCURVE",
"182 665 CURVE SMOOTH",
"209 709 OFFCURVE",
"249 743 OFFCURVE",
"317 743 CURVE SMOOTH",
"385 743 OFFCURVE",
"412 708 OFFCURVE",
"423 671 CURVE SMOOTH",
"428 652 OFFCURVE",
"429 633 OFFCURVE",
"428 618 CURVE SMOOTH",
"427 602 OFFCURVE",
"425 589 OFFCURVE",
"424 585 CURVE",
"401 476 OFFCURVE",
"371 424 OFFCURVE",
"331 391 CURVE",
"329 390 LINE",
"350 370 OFFCURVE",
"361 341 OFFCURVE",
"362 306 CURVE SMOOTH",
"363 270 OFFCURVE",
"357 231 OFFCURVE",
"348 188 CURVE",
"348 186 OFFCURVE",
"346 179 OFFCURVE",
"343 167 CURVE SMOOTH",
"338 146 OFFCURVE",
"326 115 OFFCURVE",
"307 83 CURVE SMOOTH",
"288 51 OFFCURVE",
"263 22 OFFCURVE",
"228 5 CURVE SMOOTH",
"211 -4 OFFCURVE",
"190 -8 OFFCURVE",
"167 -8 CURVE SMOOTH",
"99 -8 OFFCURVE",
"71 26 OFFCURVE",
"62 71 CURVE",
"59 82 OFFCURVE",
"58 93 OFFCURVE",
"58 106 CURVE SMOOTH",
"58 130 OFFCURVE",
"60 155 OFFCURVE",
"65 179 CURVE",
"67 191 OFFCURVE",
"69 202 OFFCURVE",
"71 212 CURVE",
"177 212 LINE",
"166 163 OFFCURVE",
"162 132 OFFCURVE",
"165 113 CURVE",
"166 93 OFFCURVE",
"174 87 OFFCURVE",
"187 87 CURVE SMOOTH",
"204 87 OFFCURVE",
"216 99 OFFCURVE",
"224 118 CURVE",
"227 127 OFFCURVE",
"230 137 OFFCURVE",
"233 148 CURVE SMOOTH",
"238 169 OFFCURVE",
"244 192 OFFCURVE",
"248 213 CURVE SMOOTH",
"250 224 OFFCURVE",
"252 234 OFFCURVE",
"255 243 CURVE",
"263 279 OFFCURVE",
"261 304 OFFCURVE",
"241 319 CURVE SMOOTH",
"230 327 OFFCURVE",
"214 331 OFFCURVE",
"191 332 CURVE"
);
}
);
width = 335;
}
);
unicode = 0033;
},
{
glyphname = four;
lastChange = "2012-08-26 16:25:30 +0000";
layers = (
{
layerId = "E10EC336-1202-48FF-9A55-15876E80CDFD";
name = Regular;
paths = (
{
closed = 1;
nodes = (
"213 160 LINE",
"46 160 LINE",
"66 255 LINE",
"326 735 LINE",
"434 735 LINE",
"332 255 LINE",
"382 255 LINE",
"362 160 LINE",
"312 160 LINE",
"278 0 LINE",
"179 0 LINE"
);
},
{
closed = 1;
nodes = (
"158 255 LINE",
"233 255 LINE",
"286 507 LINE",
"280 507 LINE",
"270 485 LINE"
);
}
);
width = 334;
}
);
unicode = 0034;
},
{
glyphname = five;
lastChange = "2012-08-26 16:25:30 +0000";
layers = (
{
layerId = "E10EC336-1202-48FF-9A55-15876E80CDFD";
name = Regular;
paths = (
{
closed = 1;
nodes = (
"283 348 LINE SMOOTH",
"290 379 OFFCURVE",
"284 402 OFFCURVE",
"261 402 CURVE SMOOTH",
"249 402 OFFCURVE",
"238 393 OFFCURVE",
"227 382 CURVE",
"216 370 OFFCURVE",
"210 356 OFFCURVE",
"207 348 CURVE",
"116 348 LINE",
"199 735 LINE",
"460 735 LINE",
"437 628 LINE",
"269 628 LINE",
"236 475 LINE",
"251 484 OFFCURVE",
"265 492 OFFCURVE",
"281 497 CURVE",
"289 500 OFFCURVE",
"297 501 OFFCURVE",
"304 500 CURVE",
"360 500 OFFCURVE",
"383 468 OFFCURVE",
"392 433 CURVE SMOOTH",
"400 398 OFFCURVE",
"394 360 OFFCURVE",
"391 348 CURVE",
"357 184 LINE SMOOTH",
"349 149 OFFCURVE",
"337 102 OFFCURVE",
"310 63 CURVE SMOOTH",
"282 23 OFFCURVE",
"240 -8 OFFCURVE",
"175 -8 CURVE SMOOTH",
"107 -8 OFFCURVE",
"80 23 OFFCURVE",
"71 67 CURVE",
"60 110 OFFCURVE",
"70 165 OFFCURVE",
"81 214 CURVE",
"189 214 LINE",
"183 185 LINE SMOOTH",
"174 146 OFFCURVE",
"171 121 OFFCURVE",
"173 108 CURVE SMOOTH",
"175 93 OFFCURVE",
"182 86 OFFCURVE",
"195 86 CURVE SMOOTH",
"218 86 OFFCURVE",
"228 112 OFFCURVE",
"237 137 CURVE",
"241 150 OFFCURVE",
"245 165 OFFCURVE",
"249 184 CURVE SMOOTH"
);
}
);
width = 344;
}
);
unicode = 0035;
},
{
glyphname = six;
lastChange = "2012-08-26 16:25:30 +0000";
layers = (
{
layerId = "E10EC336-1202-48FF-9A55-15876E80CDFD";
name = Regular;
paths = (
{
closed = 1;
nodes = (
"346 151 LINE SMOOTH",
"342 134 OFFCURVE",
"332 94 OFFCURVE",
"305 59 CURVE SMOOTH",
"278 23 OFFCURVE",
"236 -8 OFFCURVE",
"171 -8 CURVE SMOOTH",
"104 -8 OFFCURVE",
"76 23 OFFCURVE",
"65 59 CURVE SMOOTH",
"53 94 OFFCURVE",
"60 134 OFFCURVE",
"64 151 CURVE SMOOTH",
"152 569 LINE",
"159 594 OFFCURVE",
"168 639 OFFCURVE",
"195 676 CURVE SMOOTH",
"222 712 OFFCURVE",
"262 743 OFFCURVE",
"330 743 CURVE SMOOTH",
"398 743 OFFCURVE",
"426 712 OFFCURVE",
"437 676 CURVE SMOOTH",
"448 639 OFFCURVE",
"441 594 OFFCURVE",
"434 569 CURVE",
"425 523 LINE",
"317 523 LINE",
"328 572 OFFCURVE",
"333 604 OFFCURVE",
"333 623 CURVE SMOOTH",
"333 640 OFFCURVE",
"325 649 OFFCURVE",
"310 649 CURVE SMOOTH",
"297 649 OFFCURVE",
"287 643 OFFCURVE",
"280 630 CURVE SMOOTH",
"272 616 OFFCURVE",
"265 596 OFFCURVE",
"260 569 CURVE SMOOTH",
"233 438 LINE",
"254 449 OFFCURVE",
"271 456 OFFCURVE",
"290 456 CURVE SMOOTH",
"346 456 OFFCURVE",
"370 427 OFFCURVE",
"379 394 CURVE SMOOTH",
"388 361 OFFCURVE",
"382 321 OFFCURVE",
"377 301 CURVE"
);
},
{
closed = 1;
nodes = (
"165 119 LINE",
"164 115 OFFCURVE",
"164 106 OFFCURVE",
"168 99 CURVE SMOOTH",
"172 92 OFFCURVE",
"179 86 OFFCURVE",
"191 86 CURVE SMOOTH",
"214 86 OFFCURVE",
"228 110 OFFCURVE",
"231 119 CURVE",
"278 339 LINE",
"279 348 OFFCURVE",
"275 372 OFFCURVE",
"252 372 CURVE SMOOTH",
"229 372 OFFCURVE",
"216 353 OFFCURVE",
"212 342 CURVE"
);
}
);
width = 342;
}
);
unicode = 0036;
},
{
glyphname = seven;
lastChange = "2012-08-26 16:25:30 +0000";
layers = (
{
layerId = "E10EC336-1202-48FF-9A55-15876E80CDFD";
name = Regular;
paths = (
{
closed = 1;
nodes = (
"299 628 LINE",
"137 628 LINE",
"160 735 LINE",
"432 735 LINE",
"409 627 LINE",
"168 0 LINE",
"56 0 LINE"
);
}
);
width = 288;
}
);
unicode = 0037;
},
{
glyphname = eight;
lastChange = "2012-08-26 16:25:30 +0000";
layers = (
{
layerId = "E10EC336-1202-48FF-9A55-15876E80CDFD";
name = Regular;
paths = (
{
closed = 1;
nodes = (
"347 157 LINE",
"346 154 OFFCURVE",
"344 147 OFFCURVE",
"342 138 CURVE",
"337 119 OFFCURVE",
"326 94 OFFCURVE",
"309 68 CURVE SMOOTH",
"292 42 OFFCURVE",
"265 18 OFFCURVE",
"230 3 CURVE SMOOTH",
"212 -4 OFFCURVE",
"191 -8 OFFCURVE",
"168 -8 CURVE SMOOTH",
"121 -8 OFFCURVE",
"92 8 OFFCURVE",
"76 31 CURVE SMOOTH",
"60 54 OFFCURVE",
"54 81 OFFCURVE",
"54 106 CURVE SMOOTH",
"54 130 OFFCURVE",
"56 150 OFFCURVE",
"59 157 CURVE",
"77 243 LINE SMOOTH",
"89 299 OFFCURVE",
"120 353 OFFCURVE",
"164 388 CURVE",
"137 421 OFFCURVE",
"132 472 OFFCURVE",
"143 523 CURVE SMOOTH",
"156 585 LINE SMOOTH",
"157 590 OFFCURVE",
"161 601 OFFCURVE",
"166 618 CURVE SMOOTH",
"176 652 OFFCURVE",
"203 692 OFFCURVE",
"245 721 CURVE SMOOTH",
"266 736 OFFCURVE",
"293 743 OFFCURVE",
"327 743 CURVE SMOOTH",
"395 743 OFFCURVE",
"421 708 OFFCURVE",
"432 671 CURVE SMOOTH",
"437 652 OFFCURVE",
"437 633 OFFCURVE",
"437 618 CURVE",
"436 602 OFFCURVE",
"433 589 OFFCURVE",
"432 585 CURVE",
"419 523 LINE SMOOTH",
"408 472 OFFCURVE",
"380 421 OFFCURVE",
"340 388 CURVE",
"371 353 OFFCURVE",
"377 299 OFFCURVE",
"365 243 CURVE SMOOTH"
);
},
{
closed = 1;
nodes = (
"325 582 OFFCURVE",
"328 606 OFFCURVE",
"329 623 CURVE",
"329 640 OFFCURVE",
"322 648 OFFCURVE",
"307 648 CURVE SMOOTH",
"283 648 OFFCURVE",
"275 622 OFFCURVE",
"267 593 CURVE SMOOTH",
"258 564 OFFCURVE",
"250 530 OFFCURVE",
"246 499 CURVE SMOOTH",
"241 468 OFFCURVE",
"233 436 OFFCURVE",
"262 436 CURVE SMOOTH",
"290 436 OFFCURVE",
"298 469 OFFCURVE",
"306 497 CURVE",
"309 511 OFFCURVE",
"313 528 OFFCURVE",
"318 547 CURVE"
);
},
{
closed = 1;
nodes = (
"260 244 OFFCURVE",
"264 277 OFFCURVE",
"267 298 CURVE",
"267 319 OFFCURVE",
"258 330 OFFCURVE",
"240 330 CURVE SMOOTH",
"201 330 OFFCURVE",
"196 291 OFFCURVE",
"187 256 CURVE SMOOTH",
"178 221 OFFCURVE",
"170 184 OFFCURVE",
"166 152 CURVE SMOOTH",
"162 120 OFFCURVE",
"160 91 OFFCURVE",
"189 91 CURVE SMOOTH",
"226 91 OFFCURVE",
"232 127 OFFCURVE",
"240 154 CURVE SMOOTH",
"244 167 OFFCURVE",
"248 183 OFFCURVE",
"251 200 CURVE SMOOTH"
);
}
);
width = 340;
}
);
unicode = 0038;
},
{
glyphname = nine;
lastChange = "2012-08-26 16:25:30 +0000";
layers = (
{
layerId = "E10EC336-1202-48FF-9A55-15876E80CDFD";
name = Regular;
paths = (
{
closed = 1;
nodes = (
"152 584 LINE",
"155 601 OFFCURVE",
"165 641 OFFCURVE",
"192 677 CURVE SMOOTH",
"219 712 OFFCURVE",
"258 743 OFFCURVE",
"326 743 CURVE SMOOTH",
"391 743 OFFCURVE",
"421 712 OFFCURVE",
"432 677 CURVE SMOOTH",
"444 641 OFFCURVE",
"437 601 OFFCURVE",
"434 584 CURVE",
"345 166 LINE",
"338 139 OFFCURVE",
"329 96 OFFCURVE",
"302 60 CURVE SMOOTH",
"275 23 OFFCURVE",
"235 -8 OFFCURVE",
"167 -8 CURVE SMOOTH",
"99 -8 OFFCURVE",
"71 23 OFFCURVE",
"60 60 CURVE SMOOTH",
"49 96 OFFCURVE",
"56 139 OFFCURVE",
"63 166 CURVE",
"73 212 LINE",
"181 212 LINE",
"170 163 OFFCURVE",
"164 131 OFFCURVE",
"164 112 CURVE SMOOTH",
"164 95 OFFCURVE",
"172 86 OFFCURVE",
"187 86 CURVE SMOOTH",
"200 86 OFFCURVE",
"210 92 OFFCURVE",
"218 105 CURVE SMOOTH",
"225 117 OFFCURVE",
"231 137 OFFCURVE",
"237 166 CURVE SMOOTH",
"266 304 LINE",
"245 293 OFFCURVE",
"227 286 OFFCURVE",
"208 286 CURVE SMOOTH",
"152 286 OFFCURVE",
"128 315 OFFCURVE",
"119 348 CURVE SMOOTH",
"110 381 OFFCURVE",
"117 421 OFFCURVE",
"121 441 CURVE SMOOTH"
);
},
{
closed = 1;
nodes = (
"332 616 LINE",
"333 625 OFFCURVE",
"331 649 OFFCURVE",
"306 649 CURVE SMOOTH",
"283 649 OFFCURVE",
"269 625 OFFCURVE",
"266 616 CURVE",
"221 403 LINE",
"218 394 OFFCURVE",
"224 370 OFFCURVE",
"247 370 CURVE SMOOTH",
"270 370 OFFCURVE",
"283 389 OFFCURVE",
"287 400 CURVE"
);
}
);
width = 342;
}
);
unicode = 0039;
},
{
glyphname = asterisk;
lastChange = "2012-08-26 16:25:30 +0000";
layers = (
{
layerId = "E10EC336-1202-48FF-9A55-15876E80CDFD";
name = Regular;
paths = (
{
closed = 1;
nodes = (
"284 735 LINE",
"359 735 LINE",
"331 649 LINE",
"419 683 LINE",
"424 611 LINE",
"337 594 LINE",
"379 527 LINE",
"306 488 LINE",
"284 562 LINE",
"231 488 LINE",
"176 527 LINE",
"246 594 LINE",
"165 611 LINE",
"202 683 LINE",
"274 649 LINE"
);
}
);
width = 331;
}
);
unicode = 002A;
},
{
glyphname = backslash;
lastChange = "2012-08-26 16:25:30 +0000";
layers = (
{
layerId = "E10EC336-1202-48FF-9A55-15876E80CDFD";
name = Regular;
paths = (
{
closed = 1;
nodes = (
"364 -88 LINE",
"282 -88 LINE",
"179 826 LINE",
"258 826 LINE"
);
}
);
width = 387;
}
);
unicode = 005C;
},
{
glyphname = bullet;
lastChange = "2012-08-26 16:25:30 +0000";
layers = (
{
layerId = "E10EC336-1202-48FF-9A55-15876E80CDFD";
name = Regular;
paths = (
{
closed = 1;
nodes = (
"131 432 OFFCURVE",
"152 462 OFFCURVE",
"179 485 CURVE SMOOTH",
"206 508 OFFCURVE",
"238 520 OFFCURVE",
"273 520 CURVE SMOOTH",
"306 520 OFFCURVE",
"333 508 OFFCURVE",
"352 485 CURVE",
"388 438 OFFCURVE",
"368 380 OFFCURVE",
"349 351 CURVE SMOOTH",
"330 322 OFFCURVE",
"303 298 OFFCURVE",
"271 286 CURVE SMOOTH",
"254 279 OFFCURVE",
"238 276 OFFCURVE",
"221 276 CURVE SMOOTH",
"186 276 OFFCURVE",
"159 289 OFFCURVE",
"142 312 CURVE",
"123 335 OFFCURVE",
"117 364 OFFCURVE",
"124 399 CURVE SMOOTH"
);
}
);
width = 324;
}
);
unicode = 2022;
},
{
glyphname = colon;
lastChange = "2012-08-26 16:25:30 +0000";
layers = (
{
layerId = "E10EC336-1202-48FF-9A55-15876E80CDFD";
name = Regular;
paths = (
{
closed = 1;
nodes = (
"152 547 LINE",
"257 547 LINE",
"233 436 LINE",
"128 436 LINE"
);
},
{
closed = 1;
nodes = (
"59 111 LINE",
"164 111 LINE",
"141 0 LINE",
"36 0 LINE"
);
}
);
width = 177;
}
);
unicode = 003A;
},
{
glyphname = comma;
lastChange = "2012-08-26 16:25:30 +0000";
layers = (
{
layerId = "E10EC336-1202-48FF-9A55-15876E80CDFD";
name = Regular;
paths = (
{
closed = 1;
nodes = (
"127 0 LINE",
"44 -130 LINE",
"-5 -130 LINE",
"57 0 LINE",
"22 0 LINE",
"45 111 LINE",
"150 111 LINE"
);
}
);
width = 151;
}
);
unicode = 002C;
},
{
glyphname = ellipsis;
lastChange = "2012-08-26 16:25:30 +0000";
layers = (
{
layerId = "E10EC336-1202-48FF-9A55-15876E80CDFD";
name = Regular;
paths = (
{
closed = 1;
nodes = (
"49 111 LINE",
"154 111 LINE",
"131 0 LINE",
"26 0 LINE"
);
},
{
closed = 1;
nodes = (
"206 111 LINE",
"311 111 LINE",
"288 0 LINE",
"183 0 LINE"
);
},
{
closed = 1;
nodes = (
"363 111 LINE",
"468 111 LINE",
"445 0 LINE",
"340 0 LINE"
);
}
);
width = 471;
}
);
unicode = 2026;
},
{
glyphname = exclam;
lastChange = "2012-08-26 16:25:30 +0000";
layers = (
{
layerId = "E10EC336-1202-48FF-9A55-15876E80CDFD";
name = Regular;
paths = (
{
closed = 1;
nodes = (
"192 735 LINE",
"309 735 LINE",
"168 198 LINE",
"105 198 LINE"
);
},
{
closed = 1;
nodes = (
"65 111 LINE",
"170 111 LINE",
"147 0 LINE",
"42 0 LINE"
);
}
);
width = 189;
}
);
unicode = 0021;
},
{
glyphname = exclamdown;
lastChange = "2012-08-26 16:25:30 +0000";
layers = (
{
layerId = "E10EC336-1202-48FF-9A55-15876E80CDFD";
name = Regular;
paths = (
{
closed = 1;
nodes = (
"158 547 LINE",
"263 547 LINE",
"239 436 LINE",
"134 436 LINE"
);
},
{
closed = 1;
nodes = (
"137 349 LINE",
"200 349 LINE",
"113 -188 LINE",
"-3 -188 LINE"
);
}
);
width = 189;
}
);
unicode = 00A1;
},
{
glyphname = numbersign;
lastChange = "2012-08-26 16:25:30 +0000";
layers = (
{
layerId = "E10EC336-1202-48FF-9A55-15876E80CDFD";
name = Regular;
paths = (
{
closed = 1;
nodes = (
"102 309 LINE",
"199 309 LINE",
"244 435 LINE",
"148 435 LINE",
"181 530 LINE",
"277 530 LINE",
"349 735 LINE",
"445 735 LINE",
"373 530 LINE",
"500 530 LINE",
"572 735 LINE",
"668 735 LINE",
"596 530 LINE",
"690 530 LINE",
"657 435 LINE",
"563 435 LINE",
"518 309 LINE",
"611 309 LINE",
"578 214 LINE",
"485 214 LINE",
"411 0 LINE",
"315 0 LINE",
"389 214 LINE",
"262 214 LINE",
"188 0 LINE",
"92 0 LINE",
"166 214 LINE",
"69 214 LINE"
);
},
{
closed = 1;
nodes = (
"295 309 LINE",
"422 309 LINE",
"467 435 LINE",
"340 435 LINE"
);
}
);
width = 602;
}
);
unicode = 0023;
},
{
glyphname = period;
lastChange = "2012-08-26 16:25:30 +0000";
layers = (
{
layerId = "E10EC336-1202-48FF-9A55-15876E80CDFD";
name = Regular;
paths = (
{
closed = 1;
nodes = (
"49 111 LINE",
"154 111 LINE",
"131 0 LINE",
"26 0 LINE"
);
}
);
width = 157;
}
);
unicode = 002E;
},
{
glyphname = periodcentered;
lastChange = "2012-08-26 16:25:30 +0000";
layers = (
{
layerId = "E10EC336-1202-48FF-9A55-15876E80CDFD";
name = Regular;
paths = (
{
closed = 1;
nodes = (
"90 428 LINE",
"195 428 LINE",
"172 317 LINE",
"67 317 LINE"
);
}
);
width = 105;
}
);
unicode = 00B7;
},
{
glyphname = question;
lastChange = "2012-08-26 16:25:30 +0000";
layers = (
{
layerId = "E10EC336-1202-48FF-9A55-15876E80CDFD";
name = Regular;
paths = (
{
closed = 1;
nodes = (
"145 198 LINE",
"171 323 LINE SMOOTH",
"182 376 OFFCURVE",
"201 419 OFFCURVE",
"221 455 CURVE SMOOTH",
"242 491 OFFCURVE",
"265 519 OFFCURVE",
"285 544 CURVE SMOOTH",
"304 567 OFFCURVE",
"317 586 OFFCURVE",
"323 599 CURVE SMOOTH",
"326 606 OFFCURVE",
"328 616 OFFCURVE",
"325 627 CURVE SMOOTH",
"322 638 OFFCURVE",
"315 645 OFFCURVE",
"300 645 CURVE SMOOTH",
"281 645 OFFCURVE",
"266 633 OFFCURVE",
"251 618 CURVE SMOOTH",
"236 602 OFFCURVE",
"225 583 OFFCURVE",
"221 574 CURVE",
"142 615 LINE",
"151 631 OFFCURVE",
"174 662 OFFCURVE",
"205 690 CURVE SMOOTH",
"236 717 OFFCURVE",
"275 740 OFFCURVE",
"322 739 CURVE SMOOTH",
"378 738 OFFCURVE",
"406 714 OFFCURVE",
"418 683 CURVE SMOOTH",
"429 652 OFFCURVE",
"426 619 OFFCURVE",
"422 599 CURVE SMOOTH",
"413 558 OFFCURVE",
"389 528 OFFCURVE",
"360 492 CURVE",
"352 481 OFFCURVE",
"345 471 OFFCURVE",
"334 460 CURVE",
"315 436 OFFCURVE",
"296 408 OFFCURVE",
"281 376 CURVE",
"274 359 OFFCURVE",
"268 342 OFFCURVE",
"264 323 CURVE SMOOTH",
"238 198 LINE"
);
},
{
closed = 1;
nodes = (
"120 111 LINE",
"225 111 LINE",
"202 0 LINE",
"97 0 LINE"
);
}
);
width = 315;
}
);
unicode = 003F;
},
{
glyphname = questiondown;
lastChange = "2012-08-26 16:25:30 +0000";
layers = (
{
layerId = "E10EC336-1202-48FF-9A55-15876E80CDFD";
name = Regular;
paths = (
{
closed = 1;
nodes = (
"310 436 LINE",
"205 436 LINE",
"229 547 LINE",
"334 547 LINE"
);
},
{
closed = 1;
nodes = (
"286 349 LINE",
"259 224 LINE SMOOTH",
"248 171 OFFCURVE",
"229 128 OFFCURVE",
"209 92 CURVE SMOOTH",
"188 56 OFFCURVE",
"165 28 OFFCURVE",
"145 3 CURVE SMOOTH",
"126 -20 OFFCURVE",
"113 -39 OFFCURVE",
"107 -52 CURVE",
"106 -55 OFFCURVE",
"105 -59 OFFCURVE",
"105 -64 CURVE SMOOTH",
"105 -73 OFFCURVE",
"107 -85 OFFCURVE",
"115 -92 CURVE",
"118 -96 OFFCURVE",
"124 -98 OFFCURVE",
"131 -98 CURVE SMOOTH",
"148 -98 OFFCURVE",
"165 -86 OFFCURVE",
"180 -70 CURVE SMOOTH",
"187 -63 OFFCURVE",
"193 -55 OFFCURVE",
"198 -47 CURVE SMOOTH",
"203 -39 OFFCURVE",
"207 -32 OFFCURVE",
"210 -27 CURVE",
"288 -68 LINE",
"277 -84 OFFCURVE",
"257 -115 OFFCURVE",
"226 -142 CURVE SMOOTH",
"195 -170 OFFCURVE",
"153 -193 OFFCURVE",
"109 -192 CURVE SMOOTH",
"53 -191 OFFCURVE",
"25 -166 OFFCURVE",
"14 -135 CURVE",
"8 -120 OFFCURVE",
"5 -104 OFFCURVE",
"5 -89 CURVE SMOOTH",
"5 -59 OFFCURVE",
"9 -29 OFFCURVE",
"32 4 CURVE SMOOTH",
"43 20 OFFCURVE",
"56 37 OFFCURVE",
"70 55 CURVE SMOOTH",
"74 60 OFFCURVE",
"78 66 OFFCURVE",
"83 71 CURVE SMOOTH",
"88 76 OFFCURVE",
"92 82 OFFCURVE",
"97 88 CURVE SMOOTH",
"116 111 OFFCURVE",
"134 139 OFFCURVE",
"149 172 CURVE SMOOTH",
"156 188 OFFCURVE",
"162 205 OFFCURVE",
"166 224 CURVE SMOOTH",
"193 349 LINE"
);
}
);
width = 315;
}
);
unicode = 00BF;
},
{
glyphname = quotedbl;
lastChange = "2012-08-26 16:34:16 +0000";
layers = (
{
layerId = "E10EC336-1202-48FF-9A55-15876E80CDFD";
name = Regular;
paths = (
{
closed = 1;
nodes = (
"163 465 LINE",
"205 734 LINE",
"310 734 LINE",
"238 465 LINE"
);
},
{
closed = 1;
nodes = (
"163 465 LINE",
"205 734 LINE",
"310 734 LINE",
"238 465 LINE"
);
},
{
closed = 1;
nodes = (
"295 465 LINE",
"337 734 LINE",
"442 734 LINE",
"370 465 LINE"
);
},
{
closed = 1;
nodes = (
"295 465 LINE",
"337 734 LINE",
"442 734 LINE",
"370 465 LINE"
);
}
);
width = 271;
}
);
unicode = 0022;
},
{
glyphname = quotesingle;
lastChange = "2012-08-26 16:28:28 +0000";
layers = (
{
layerId = "E10EC336-1202-48FF-9A55-15876E80CDFD";
name = Regular;
paths = (
{
closed = 1;
nodes = (
"142 466 LINE",
"184 735 LINE",
"289 735 LINE",
"217 466 LINE"
);
}
);
width = 151;
}
);
unicode = 0027;
},
{
glyphname = semicolon;
lastChange = "2012-08-26 16:25:30 +0000";
layers = (
{
layerId = "E10EC336-1202-48FF-9A55-15876E80CDFD";
name = Regular;
paths = (
{
closed = 1;
nodes = (
"152 547 LINE",
"257 547 LINE",
"233 436 LINE",
"128 436 LINE"
);
},
{
closed = 1;
nodes = (
"141 0 LINE",
"58 -130 LINE",
"8 -130 LINE",
"71 0 LINE",
"36 0 LINE",
"59 111 LINE",
"164 111 LINE"
);
}
);
width = 177;
}
);
unicode = 003B;
},
{
glyphname = slash;
lastChange = "2012-08-26 16:25:30 +0000";
layers = (
{
layerId = "E10EC336-1202-48FF-9A55-15876E80CDFD";
name = Regular;
paths = (
{
closed = 1;
nodes = (
"425 735 LINE",
"504 735 LINE",
"70 -72 LINE",
"-11 -72 LINE"
);
}
);
width = 352;
}
);
unicode = 002F;
},
{
glyphname = underscore;
lastChange = "2012-08-26 16:25:30 +0000";
layers = (
{
layerId = "E10EC336-1202-48FF-9A55-15876E80CDFD";
name = Regular;
paths = (
{
closed = 1;
nodes = (
"20 -75 LINE",
"539 -75 LINE",
"521 -159 LINE",
"2 -159 LINE"
);
}
);
width = 591;
}
);
unicode = 005F;
},
{
glyphname = braceleft;
lastChange = "2012-08-26 16:25:30 +0000";
layers = (
{
layerId = "E10EC336-1202-48FF-9A55-15876E80CDFD";
name = Regular;
paths = (
{
closed = 1;
nodes = (
"448 659 LINE",
"405 659 OFFCURVE",
"376 656 OFFCURVE",
"353 641 CURVE SMOOTH",
"330 626 OFFCURVE",
"318 603 OFFCURVE",
"309 563 CURVE SMOOTH",
"268 369 LINE SMOOTH",
"257 316 OFFCURVE",
"227 285 OFFCURVE",
"183 261 CURVE",
"218 236 OFFCURVE",
"233 205 OFFCURVE",
"222 153 CURVE SMOOTH",
"181 -41 LINE SMOOTH",
"172 -81 OFFCURVE",
"175 -104 OFFCURVE",
"191 -119 CURVE SMOOTH",
"207 -134 OFFCURVE",
"235 -137 OFFCURVE",
"278 -137 CURVE",
"261 -221 LINE",
"182 -222 OFFCURVE",
"131 -215 OFFCURVE",
"103 -188 CURVE SMOOTH",
"74 -161 OFFCURVE",
"69 -117 OFFCURVE",
"85 -41 CURVE SMOOTH",
"126 153 LINE",
"129 160 OFFCURVE",
"129 175 OFFCURVE",
"122 191 CURVE SMOOTH",
"115 206 OFFCURVE",
"103 220 OFFCURVE",
"76 221 CURVE",
"93 301 LINE",
"120 301 OFFCURVE",
"139 314 OFFCURVE",
"152 330 CURVE SMOOTH",
"158 337 OFFCURVE",
"163 345 OFFCURVE",
"166 353 CURVE",
"169 360 OFFCURVE",
"171 366 OFFCURVE",
"172 369 CURVE",
"213 563 LINE SMOOTH",
"229 639 OFFCURVE",
"254 683 OFFCURVE",
"293 710 CURVE SMOOTH",
"333 737 OFFCURVE",
"389 744 OFFCURVE",
"465 743 CURVE"
);
}
);
width = 336;
}
);
unicode = 007B;
},
{
glyphname = braceright;
lastChange = "2012-08-26 16:25:30 +0000";
layers = (
{
layerId = "E10EC336-1202-48FF-9A55-15876E80CDFD";
name = Regular;
paths = (
{
closed = 1;
nodes = (
"320 369 LINE",
"317 362 OFFCURVE",
"317 345 OFFCURVE",
"324 330 CURVE",
"329 314 OFFCURVE",
"342 301 OFFCURVE",
"369 301 CURVE",
"352 221 LINE",
"325 220 OFFCURVE",
"306 206 OFFCURVE",
"294 191 CURVE SMOOTH",
"282 175 OFFCURVE",
"277 160 OFFCURVE",
"274 153 CURVE",
"233 -41 LINE SMOOTH",
"217 -117 OFFCURVE",
"193 -161 OFFCURVE",
"154 -188 CURVE SMOOTH",
"114 -215 OFFCURVE",
"58 -222 OFFCURVE",
"-18 -221 CURVE",
"-1 -137 LINE",
"42 -137 OFFCURVE",
"70 -134 OFFCURVE",
"93 -119 CURVE SMOOTH",
"116 -104 OFFCURVE",
"128 -81 OFFCURVE",
"137 -41 CURVE SMOOTH",
"178 153 LINE SMOOTH",
"189 205 OFFCURVE",
"219 236 OFFCURVE",
"263 261 CURVE",
"228 285 OFFCURVE",
"213 316 OFFCURVE",
"224 369 CURVE SMOOTH",
"265 563 LINE SMOOTH",
"274 603 OFFCURVE",
"271 626 OFFCURVE",
"255 641 CURVE SMOOTH",
"239 656 OFFCURVE",
"211 659 OFFCURVE",
"168 659 CURVE",
"185 743 LINE",
"264 744 OFFCURVE",
"316 737 OFFCURVE",
"344 710 CURVE SMOOTH",
"373 683 OFFCURVE",
"377 639 OFFCURVE",
"361 563 CURVE SMOOTH"
);
}
);
width = 336;
}
);
unicode = 007D;
},
{
glyphname = bracketleft;
lastChange = "2012-08-26 16:25:30 +0000";
layers = (
{
layerId = "E10EC336-1202-48FF-9A55-15876E80CDFD";
name = Regular;
paths = (
{
closed = 1;
nodes = (
"370 639 LINE",
"271 639 LINE",
"134 -8 LINE",
"233 -8 LINE",
"212 -104 LINE",
"17 -104 LINE",
"196 735 LINE",
"391 735 LINE"
);
}
);
width = 263;
}
);
unicode = 005B;
},
{
glyphname = bracketright;
lastChange = "2012-08-26 16:25:30 +0000";
layers = (
{
layerId = "E10EC336-1202-48FF-9A55-15876E80CDFD";
name = Regular;
paths = (
{
closed = 1;
nodes = (
"184 735 LINE",
"379 735 LINE",
"200 -104 LINE",
"5 -104 LINE",
"26 -8 LINE",
"125 -8 LINE",
"262 639 LINE",
"163 639 LINE"
);
}
);
width = 263;
}
);
unicode = 005D;
},
{
glyphname = parenleft;
lastChange = "2012-08-26 16:25:30 +0000";
layers = (
{
layerId = "E10EC336-1202-48FF-9A55-15876E80CDFD";
name = Regular;
paths = (
{
closed = 1;
nodes = (
"410 735 LINE",
"346 666 OFFCURVE",
"298 589 OFFCURVE",
"251 486 CURVE SMOOTH",
"203 383 OFFCURVE",
"173 246 OFFCURVE",
"178 145 CURVE SMOOTH",
"182 44 OFFCURVE",
"198 -33 OFFCURVE",
"231 -104 CURVE",
"144 -145 LINE",
"108 -61 OFFCURVE",
"88 25 OFFCURVE",
"83 138 CURVE SMOOTH",
"80 193 OFFCURVE",
"85 252 OFFCURVE",
"98 315 CURVE SMOOTH",
"111 378 OFFCURVE",
"133 437 OFFCURVE",
"158 493 CURVE SMOOTH",
"183 548 OFFCURVE",
"211 596 OFFCURVE",
"238 639 CURVE SMOOTH",
"270 688 OFFCURVE",
"304 733 OFFCURVE",
"339 776 CURVE"
);
}
);
width = 274;
}
);
unicode = 0028;
},
{
glyphname = parenright;
lastChange = "2012-08-26 16:25:30 +0000";
layers = (
{
layerId = "E10EC336-1202-48FF-9A55-15876E80CDFD";
name = Regular;
paths = (
{
closed = 1;
nodes = (
"263 776 LINE",
"298 692 OFFCURVE",
"317 605 OFFCURVE",
"324 493 CURVE SMOOTH",
"327 436 OFFCURVE",
"322 377 OFFCURVE",
"308 315 CURVE SMOOTH",
"295 252 OFFCURVE",
"273 193 OFFCURVE",
"248 138 CURVE SMOOTH",
"223 82 OFFCURVE",
"195 32 OFFCURVE",
"168 -9 CURVE SMOOTH",
"137 -58 OFFCURVE",
"103 -103 OFFCURVE",
"68 -145 CURVE",
"-2 -104 LINE",
"59 -36 OFFCURVE",
"108 42 OFFCURVE",
"156 145 CURVE SMOOTH",
"180 196 OFFCURVE",
"199 251 OFFCURVE",
"212 315 CURVE SMOOTH",
"239 440 OFFCURVE",
"229 542 OFFCURVE",
"214 618 CURVE",
"203 661 OFFCURVE",
"191 700 OFFCURVE",
"176 735 CURVE"
);
}
);
width = 274;
}
);
unicode = 0029;
},
{
glyphname = emdash;
lastChange = "2012-08-26 16:25:30 +0000";
layers = (
{
layerId = "E10EC336-1202-48FF-9A55-15876E80CDFD";
name = Regular;
paths = (
{
closed = 1;
nodes = (
"123 412 LINE",
"526 412 LINE",
"506 317 LINE",
"103 317 LINE"
);
}
);
width = 475;
}
);
unicode = 2014;
},
{
glyphname = endash;
lastChange = "2012-08-26 16:25:30 +0000";
layers = (
{
layerId = "E10EC336-1202-48FF-9A55-15876E80CDFD";
name = Regular;
paths = (
{
closed = 1;
nodes = (
"123 412 LINE",
"445 412 LINE",
"425 317 LINE",
"103 317 LINE"
);
}
);
width = 394;
}
);
unicode = 2013;
},
{
glyphname = hyphen;
lastChange = "2012-08-26 16:25:30 +0000";
layers = (
{
layerId = "E10EC336-1202-48FF-9A55-15876E80CDFD";
name = Regular;
paths = (
{
closed = 1;
nodes = (
"103 317 LINE",
"248 317 LINE",
"228 222 LINE",
"83 222 LINE"
);
}
);
width = 217;
}
);
unicode = 002D;
},
{
glyphname = quotedblbase;
lastChange = "2012-08-26 16:25:30 +0000";
layers = (
{
layerId = "E10EC336-1202-48FF-9A55-15876E80CDFD";
name = Regular;
paths = (
{
closed = 1;
nodes = (
"131 0 LINE",
"48 -130 LINE",
"-1 -130 LINE",
"61 0 LINE",
"26 0 LINE",
"49 111 LINE",
"154 111 LINE"
);
},
{
closed = 1;
nodes = (
"279 0 LINE",
"196 -130 LINE",
"146 -130 LINE",
"209 0 LINE",
"174 0 LINE",
"197 111 LINE",
"302 111 LINE"
);
}
);
width = 305;
}
);
unicode = 201E;
},
{
glyphname = quotedblleft;
lastChange = "2012-08-26 16:25:30 +0000";
layers = (
{
layerId = "E10EC336-1202-48FF-9A55-15876E80CDFD";
name = Regular;
paths = (
{
closed = 1;
nodes = (
"154 605 LINE",
"237 735 LINE",
"287 735 LINE",
"224 605 LINE",
"259 605 LINE",
"236 494 LINE",
"131 494 LINE"
);
},
{
closed = 1;
nodes = (
"302 605 LINE",
"385 735 LINE",
"435 735 LINE",
"372 605 LINE",
"407 605 LINE",
"384 494 LINE",
"279 494 LINE"
);
}
);
width = 305;
}
);
unicode = 201C;
},
{
glyphname = quotedblright;
lastChange = "2012-08-26 16:25:30 +0000";
layers = (
{
layerId = "E10EC336-1202-48FF-9A55-15876E80CDFD";
name = Regular;
paths = (
{
closed = 1;
nodes = (
"263 624 LINE",
"181 494 LINE",
"131 494 LINE",
"193 624 LINE",
"158 624 LINE",
"182 735 LINE",
"287 735 LINE"
);
},
{
closed = 1;
nodes = (
"411 624 LINE",
"329 494 LINE",
"279 494 LINE",
"341 624 LINE",
"306 624 LINE",
"330 735 LINE",
"435 735 LINE"
);
}
);
width = 305;
}
);
unicode = 201D;
},
{
glyphname = quoteleft;
lastChange = "2012-08-26 16:25:30 +0000";
layers = (
{
layerId = "E10EC336-1202-48FF-9A55-15876E80CDFD";
name = Regular;
paths = (
{
closed = 1;
nodes = (
"152 605 LINE",
"235 735 LINE",
"285 735 LINE",
"222 605 LINE",
"257 605 LINE",
"234 494 LINE",
"129 494 LINE"
);
}
);
width = 151;
}
);
unicode = 2018;
},
{
glyphname = quoteright;
lastChange = "2012-08-26 16:25:30 +0000";
layers = (
{
layerId = "E10EC336-1202-48FF-9A55-15876E80CDFD";
name = Regular;
paths = (
{
closed = 1;
nodes = (
"259 624 LINE",
"177 494 LINE",
"127 494 LINE",
"189 624 LINE",
"154 624 LINE",
"178 735 LINE",
"283 735 LINE"
);
}
);
width = 151;
}
);
unicode = 2019;
},
{
glyphname = quotesinglbase;
lastChange = "2012-08-26 16:25:30 +0000";
layers = (
{
layerId = "E10EC336-1202-48FF-9A55-15876E80CDFD";
name = Regular;
paths = (
{
closed = 1;
nodes = (
"127 0 LINE",
"44 -130 LINE",
"-5 -130 LINE",
"57 0 LINE",
"22 0 LINE",
"45 111 LINE",
"150 111 LINE"
);
}
);
width = 151;
}
);
unicode = 201A;
},
{
glyphname = Euro;
lastChange = "2012-08-26 16:25:30 +0000";
layers = (
{
layerId = "E10EC336-1202-48FF-9A55-15876E80CDFD";
name = Regular;
paths = (
{
closed = 1;
nodes = (
"125 468 LINE",
"177 468 LINE",
"202 584 LINE SMOOTH",
"209 613 OFFCURVE",
"220 639 OFFCURVE",
"236 663 CURVE",
"251 683 OFFCURVE",
"267 703 OFFCURVE",
"290 718 CURVE SMOOTH",
"313 733 OFFCURVE",
"343 743 OFFCURVE",
"379 743 CURVE SMOOTH",
"415 743 OFFCURVE",
"440 733 OFFCURVE",
"457 718 CURVE SMOOTH",
"474 703 OFFCURVE",
"484 683 OFFCURVE",
"488 663 CURVE",
"495 641 OFFCURVE",
"495 615 OFFCURVE",
"490 584 CURVE",
"481 543 LINE",
"380 543 LINE",
"389 584 LINE SMOOTH",
"393 603 OFFCURVE",
"391 619 OFFCURVE",
"382 630 CURVE SMOOTH",
"378 635 OFFCURVE",
"370 638 OFFCURVE",
"359 638 CURVE SMOOTH",
"340 638 OFFCURVE",
"328 624 OFFCURVE",
"320 611 CURVE",
"317 604 OFFCURVE",
"313 595 OFFCURVE",
"310 584 CURVE",
"285 468 LINE",
"399 468 LINE",
"385 401 LINE",
"271 401 LINE",
"256 334 LINE",
"370 334 LINE",
"356 267 LINE",
"242 267 LINE",
"218 151 LINE",
"215 132 OFFCURVE",
"217 116 OFFCURVE",
"225 105 CURVE",
"229 100 OFFCURVE",
"235 97 OFFCURVE",
"244 97 CURVE SMOOTH",
"267 97 OFFCURVE",
"279 109 OFFCURVE",
"287 124 CURVE SMOOTH",
"290 130 OFFCURVE",
"294 139 OFFCURVE",
"297 151 CURVE",
"305 192 LINE",
"406 192 LINE",
"398 151 LINE",
"390 121 OFFCURVE",
"378 94 OFFCURVE",
"363 71 CURVE",
"348 51 OFFCURVE",
"331 32 OFFCURVE",
"308 17 CURVE",
"284 0 OFFCURVE",
"255 -8 OFFCURVE",
"220 -8 CURVE SMOOTH",
"185 -8 OFFCURVE",
"159 0 OFFCURVE",
"141 17 CURVE SMOOTH",
"124 32 OFFCURVE",
"115 51 OFFCURVE",
"111 71 CURVE",
"104 94 OFFCURVE",
"104 120 OFFCURVE",
"110 151 CURVE SMOOTH",
"134 267 LINE",
"82 267 LINE",
"96 334 LINE",
"148 334 LINE",
"163 401 LINE",
"111 401 LINE"
);
}
);
width = 397;
}
);
unicode = 20AC;
},
{
glyphname = cent;
lastChange = "2012-08-26 16:25:30 +0000";
layers = (
{
layerId = "E10EC336-1202-48FF-9A55-15876E80CDFD";
name = Regular;
paths = (
{
closed = 1;
nodes = (
"356 765 LINE",
"331 646 LINE",
"391 635 OFFCURVE",
"412 593 OFFCURVE",
"391 492 CURVE SMOOTH",
"382 449 LINE",
"290 449 LINE",
"304 515 LINE SMOOTH",
"311 548 OFFCURVE",
"300 559 OFFCURVE",
"277 559 CURVE SMOOTH",
"250 559 OFFCURVE",
"237 535 OFFCURVE",
"233 515 CURVE SMOOTH",
"170 220 LINE SMOOTH",
"166 200 OFFCURVE",
"169 176 OFFCURVE",
"196 176 CURVE SMOOTH",
"219 176 OFFCURVE",
"234 187 OFFCURVE",
"241 220 CURVE SMOOTH",
"257 296 LINE",
"349 296 LINE",
"338 243 LINE SMOOTH",
"315 139 OFFCURVE",
"276 97 OFFCURVE",
"212 88 CURVE",
"181 -60 LINE",
"121 -60 LINE",
"152 87 LINE",
"93 96 OFFCURVE",
"61 140 OFFCURVE",
"84 248 CURVE SMOOTH",
"135 487 LINE SMOOTH",
"158 594 OFFCURVE",
"208 638 OFFCURVE",
"271 647 CURVE",
"296 765 LINE"
);
}
);
width = 311;
}
);
unicode = 00A2;
},
{
glyphname = dollar;
lastChange = "2012-08-26 16:25:30 +0000";
layers = (
{
layerId = "E10EC336-1202-48FF-9A55-15876E80CDFD";
name = Regular;
paths = (
{
closed = 1;
nodes = (
"368 795 LINE",
"356 734 LINE",
"395 730 OFFCURVE",
"417 712 OFFCURVE",
"430 687 CURVE SMOOTH",
"442 662 OFFCURVE",
"444 629 OFFCURVE",
"441 596 CURVE",
"345 584 LINE",
"348 617 OFFCURVE",
"344 646 OFFCURVE",
"313 645 CURVE SMOOTH",
"297 645 OFFCURVE",
"285 635 OFFCURVE",
"276 620 CURVE SMOOTH",
"267 605 OFFCURVE",
"259 586 OFFCURVE",
"255 566 CURVE",
"248 538 OFFCURVE",
"254 509 OFFCURVE",
"265 482 CURVE SMOOTH",
"276 454 OFFCURVE",
"289 426 OFFCURVE",
"304 401 CURVE SMOOTH",
"308 394 OFFCURVE",
"312 386 OFFCURVE",
"316 378 CURVE",
"319 370 OFFCURVE",
"323 362 OFFCURVE",
"328 353 CURVE",
"344 318 OFFCURVE",
"357 282 OFFCURVE",
"362 243 CURVE SMOOTH",
"365 223 OFFCURVE",
"362 202 OFFCURVE",
"358 181 CURVE SMOOTH",
"349 137 OFFCURVE",
"334 95 OFFCURVE",
"307 63 CURVE SMOOTH",
"280 30 OFFCURVE",
"247 6 OFFCURVE",
"200 1 CURVE",
"177 -105 LINE",
"117 -105 LINE",
"140 3 LINE",
"97 11 OFFCURVE",
"74 33 OFFCURVE",
"61 64 CURVE",
"49 96 OFFCURVE",
"47 133 OFFCURVE",
"55 175 CURVE",
"150 181 LINE",
"146 157 OFFCURVE",
"146 134 OFFCURVE",
"153 118 CURVE SMOOTH",
"160 101 OFFCURVE",
"171 90 OFFCURVE",
"194 90 CURVE SMOOTH",
"211 90 OFFCURVE",
"224 101 OFFCURVE",
"235 118 CURVE SMOOTH",
"255 150 OFFCURVE",
"264 194 OFFCURVE",
"260 223 CURVE",
"257 237 OFFCURVE",
"253 251 OFFCURVE",
"248 265 CURVE",
"245 272 OFFCURVE",
"242 279 OFFCURVE",
"239 286 CURVE SMOOTH",
"236 293 OFFCURVE",
"233 299 OFFCURVE",
"230 306 CURVE",
"215 333 OFFCURVE",
"201 357 OFFCURVE",
"185 392 CURVE SMOOTH",
"168 427 OFFCURVE",
"155 463 OFFCURVE",
"151 503 CURVE SMOOTH",
"147 543 OFFCURVE",
"157 582 OFFCURVE",
"171 618 CURVE SMOOTH",
"185 653 OFFCURVE",
"207 684 OFFCURVE",
"239 707 CURVE SMOOTH",
"255 718 OFFCURVE",
"274 726 OFFCURVE",
"295 731 CURVE",
"308 795 LINE"
);
}
);
width = 338;
}
);
unicode = 0024;
},
{
glyphname = sterling;
lastChange = "2012-08-26 16:25:30 +0000";
layers = (
{
layerId = "E10EC336-1202-48FF-9A55-15876E80CDFD";
name = Regular;
paths = (
{
closed = 1;
nodes = (
"365 547 LINE",
"370 571 OFFCURVE",
"372 595 OFFCURVE",
"368 614 CURVE SMOOTH",
"364 633 OFFCURVE",
"351 643 OFFCURVE",
"329 643 CURVE SMOOTH",
"313 643 OFFCURVE",
"300 632 OFFCURVE",
"289 616 CURVE SMOOTH",
"278 600 OFFCURVE",
"272 580 OFFCURVE",
"268 561 CURVE SMOOTH",
"256 508 OFFCURVE",
"262 452 OFFCURVE",
"267 396 CURVE",
"267 384 LINE",
"370 384 LINE",
"356 317 LINE",
"271 317 LINE",
"274 250 OFFCURVE",
"264 222 OFFCURVE",
"247 183 CURVE SMOOTH",
"238 164 OFFCURVE",
"227 144 OFFCURVE",
"214 125 CURVE",
"226 119 OFFCURVE",
"236 113 OFFCURVE",
"244 107 CURVE",
"251 101 OFFCURVE",
"261 97 OFFCURVE",
"273 96 CURVE",
"283 97 OFFCURVE",
"293 105 OFFCURVE",
"304 118 CURVE SMOOTH",
"315 131 OFFCURVE",
"324 155 OFFCURVE",
"333 189 CURVE",
"422 178 LINE",
"387 54 OFFCURVE",
"324 -8 OFFCURVE",
"260 -8 CURVE SMOOTH",
"236 -8 OFFCURVE",
"216 5 OFFCURVE",
"195 17 CURVE SMOOTH",
"175 29 OFFCURVE",
"156 42 OFFCURVE",
"137 42 CURVE SMOOTH",
"118 42 OFFCURVE",
"102 29 OFFCURVE",
"90 17 CURVE SMOOTH",
"82 9 OFFCURVE",
"76 1 OFFCURVE",
"71 -8 CURVE",
"8 31 LINE",
"29 64 OFFCURVE",
"55 91 OFFCURVE",
"84 113 CURVE SMOOTH",
"100 125 OFFCURVE",
"116 132 OFFCURVE",
"133 135 CURVE",
"152 166 OFFCURVE",
"165 204 OFFCURVE",
"172 232 CURVE",
"177 257 OFFCURVE",
"178 286 OFFCURVE",
"175 317 CURVE",
"83 317 LINE",
"97 384 LINE",
"169 384 LINE",
"168 394 LINE SMOOTH",
"163 458 OFFCURVE",
"157 520 OFFCURVE",
"166 561 CURVE SMOOTH",
"174 602 OFFCURVE",
"192 648 OFFCURVE",
"223 683 CURVE SMOOTH",
"254 718 OFFCURVE",
"292 742 OFFCURVE",
"348 743 CURVE SMOOTH",
"415 744 OFFCURVE",
"449 719 OFFCURVE",
"466 683 CURVE SMOOTH",
"482 646 OFFCURVE",
"480 596 OFFCURVE",
"469 547 CURVE"
);
}
);
width = 399;
}
);
unicode = 00A3;
},
{
glyphname = yen;
lastChange = "2012-08-26 16:25:30 +0000";
layers = (
{
layerId = "E10EC336-1202-48FF-9A55-15876E80CDFD";
name = Regular;
paths = (
{
closed = 1;
nodes = (
"85 233 LINE",
"171 233 LINE",
"185 300 LINE",
"99 300 LINE",
"114 367 LINE",
"186 367 LINE",
"168 735 LINE",
"274 735 LINE",
"278 500 LINE",
"279 493 LINE",
"281 493 LINE",
"286 500 LINE",
"390 735 LINE",
"496 735 LINE",
"322 367 LINE",
"394 367 LINE",
"379 300 LINE",
"293 300 LINE",
"279 233 LINE",
"365 233 LINE",
"351 166 LINE",
"265 166 LINE",
"230 0 LINE",
"122 0 LINE",
"157 166 LINE",
"71 166 LINE"
);
}
);
width = 352;
}
);
unicode = 00A5;
},
{
glyphname = asciitilde;
lastChange = "2012-08-26 16:25:30 +0000";
layers = (
{
layerId = "E10EC336-1202-48FF-9A55-15876E80CDFD";
name = Regular;
paths = (
{
closed = 1;
nodes = (
"195 660 LINE",
"226 716 OFFCURVE",
"263 755 OFFCURVE",
"311 787 CURVE",
"336 802 OFFCURVE",
"362 810 OFFCURVE",
"391 810 CURVE SMOOTH",
"420 810 OFFCURVE",
"443 803 OFFCURVE",
"463 794 CURVE",
"472 789 OFFCURVE",
"481 784 OFFCURVE",
"490 778 CURVE",
"498 772 OFFCURVE",
"506 766 OFFCURVE",
"515 760 CURVE",
"538 741 OFFCURVE",
"562 725 OFFCURVE",
"593 725 CURVE SMOOTH",
"624 725 OFFCURVE",
"652 746 OFFCURVE",
"672 769 CURVE SMOOTH",
"684 782 OFFCURVE",
"694 797 OFFCURVE",
"705 814 CURVE",
"765 786 LINE",
"730 729 OFFCURVE",
"696 689 OFFCURVE",
"649 658 CURVE SMOOTH",
"626 643 OFFCURVE",
"600 635 OFFCURVE",
"573 635 CURVE SMOOTH",
"517 635 OFFCURVE",
"486 659 OFFCURVE",
"451 684 CURVE",
"427 703 OFFCURVE",
"403 720 OFFCURVE",
"372 720 CURVE SMOOTH",
"337 720 OFFCURVE",
"308 699 OFFCURVE",
"287 676 CURVE SMOOTH",
"275 663 OFFCURVE",
"264 649 OFFCURVE",
"255 632 CURVE"
);
}
);
width = 625;
}
);
unicode = 007E;
},
{
glyphname = equal;
lastChange = "2012-08-26 16:25:30 +0000";
layers = (
{
layerId = "E10EC336-1202-48FF-9A55-15876E80CDFD";
name = Regular;
paths = (
{
closed = 1;
nodes = (
"143 506 LINE",
"588 506 LINE",
"570 422 LINE",
"125 422 LINE"
);
},
{
closed = 1;
nodes = (
"103 317 LINE",
"548 317 LINE",
"530 233 LINE",
"85 233 LINE"
);
}
);
width = 517;
}
);
unicode = 003D;
},
{
glyphname = greater;
lastChange = "2012-08-26 16:25:30 +0000";
layers = (
{
layerId = "E10EC336-1202-48FF-9A55-15876E80CDFD";
name = Regular;
paths = (
{
closed = 1;
nodes = (
"548 317 LINE",
"54 85 LINE",
"74 182 LINE",
"452 356 LINE",
"148 530 LINE",
"169 627 LINE",
"564 395 LINE"
);
}
);
width = 517;
}
);
unicode = 003E;
},
{
glyphname = less;
lastChange = "2012-08-26 16:25:30 +0000";
layers = (
{
layerId = "E10EC336-1202-48FF-9A55-15876E80CDFD";
name = Regular;
paths = (
{
closed = 1;
nodes = (
"119 395 LINE",
"614 627 LINE",
"593 530 LINE",
"215 356 LINE",
"519 182 LINE",
"499 85 LINE",
"103 317 LINE"
);
}
);
width = 517;
}
);
unicode = 003C;
},
{
glyphname = percent;
lastChange = "2012-08-26 16:25:30 +0000";
layers = (
{
layerId = "E10EC336-1202-48FF-9A55-15876E80CDFD";
name = Regular;
paths = (
{
closed = 1;
nodes = (
"276 445 LINE SMOOTH",
"268 412 OFFCURVE",
"251 389 OFFCURVE",
"228 372 CURVE",
"217 363 OFFCURVE",
"201 359 OFFCURVE",
"181 359 CURVE SMOOTH",
"141 359 OFFCURVE",
"128 379 OFFCURVE",
"121 402 CURVE SMOOTH",
"117 414 OFFCURVE",
"117 428 OFFCURVE",
"121 445 CURVE SMOOTH",
"166 658 LINE SMOOTH",
"173 690 OFFCURVE",
"190 711 OFFCURVE",
"215 730 CURVE",
"226 739 OFFCURVE",
"242 743 OFFCURVE",
"262 743 CURVE SMOOTH",
"301 743 OFFCURVE",
"313 721 OFFCURVE",
"320 700 CURVE SMOOTH",
"324 689 OFFCURVE",
"324 675 OFFCURVE",
"321 658 CURVE SMOOTH"
);
},
{
closed = 1;
nodes = (
"77 0 LINE",
"503 735 LINE",
"567 735 LINE",
"144 0 LINE"
);
},
{
closed = 1;
nodes = (
"261 658 LINE SMOOTH",
"263 667 OFFCURVE",
"262 674 OFFCURVE",
"259 681 CURVE",
"258 684 OFFCURVE",
"255 685 OFFCURVE",
"250 685 CURVE SMOOTH",
"239 685 OFFCURVE",
"235 678 OFFCURVE",
"230 671 CURVE",
"227 666 OFFCURVE",
"226 661 OFFCURVE",
"226 658 CURVE",
"181 445 LINE",
"178 434 OFFCURVE",
"176 418 OFFCURVE",
"193 418 CURVE SMOOTH",
"208 418 OFFCURVE",
"213 434 OFFCURVE",
"216 445 CURVE"
);
},
{
closed = 1;
nodes = (
"479 77 LINE SMOOTH",
"471 44 OFFCURVE",
"454 22 OFFCURVE",
"431 5 CURVE",
"420 -4 OFFCURVE",
"404 -8 OFFCURVE",
"384 -8 CURVE SMOOTH",
"344 -8 OFFCURVE",
"331 13 OFFCURVE",
"324 34 CURVE SMOOTH",
"320 46 OFFCURVE",
"320 60 OFFCURVE",
"324 77 CURVE SMOOTH",
"369 290 LINE SMOOTH",
"376 322 OFFCURVE",
"393 344 OFFCURVE",
"418 363 CURVE",
"429 372 OFFCURVE",
"445 376 OFFCURVE",
"465 376 CURVE SMOOTH",
"504 376 OFFCURVE",
"516 354 OFFCURVE",
"523 333 CURVE SMOOTH",
"527 321 OFFCURVE",
"527 307 OFFCURVE",
"524 290 CURVE SMOOTH"
);
},
{
closed = 1;
nodes = (
"464 290 LINE SMOOTH",
"466 299 OFFCURVE",
"465 306 OFFCURVE",
"462 313 CURVE",
"461 316 OFFCURVE",
"458 317 OFFCURVE",
"453 317 CURVE SMOOTH",
"442 317 OFFCURVE",
"437 310 OFFCURVE",
"433 303 CURVE SMOOTH",
"430 298 OFFCURVE",
"429 293 OFFCURVE",
"429 290 CURVE",
"384 77 LINE",
"381 68 OFFCURVE",
"382 60 OFFCURVE",
"386 54 CURVE",
"387 51 OFFCURVE",
"391 49 OFFCURVE",
"396 49 CURVE SMOOTH",
"401 49 OFFCURVE",
"404 51 OFFCURVE",
"407 54 CURVE",
"411 60 OFFCURVE",
"418 68 OFFCURVE",
"419 77 CURVE"
);
}
);
width = 489;
}
);
unicode = 0025;
},
{
glyphname = plus;
lastChange = "2012-08-26 16:25:30 +0000";
layers = (
{
layerId = "E10EC336-1202-48FF-9A55-15876E80CDFD";
name = Regular;
paths = (
{
closed = 1;
nodes = (
"121 401 LINE",
"302 401 LINE",
"338 570 LINE",
"422 570 LINE",
"386 401 LINE",
"567 401 LINE",
"549 317 LINE",
"368 317 LINE",
"332 148 LINE",
"248 148 LINE",
"284 317 LINE",
"103 317 LINE"
);
}
);
width = 518;
}
);
unicode = 002B;
},
{
glyphname = ampersand;
lastChange = "2012-08-26 16:25:30 +0000";
layers = (
{
layerId = "E10EC336-1202-48FF-9A55-15876E80CDFD";
name = Regular;
paths = (
{
closed = 1;
nodes = (
"464 319 LINE",
"461 306 OFFCURVE",
"451 277 OFFCURVE",
"438 245 CURVE",
"423 213 OFFCURVE",
"405 176 OFFCURVE",
"382 144 CURVE",
"391 132 OFFCURVE",
"398 123 OFFCURVE",
"405 118 CURVE",
"411 111 OFFCURVE",
"416 108 OFFCURVE",
"419 107 CURVE",
"395 -8 LINE",
"392 -8 OFFCURVE",
"387 -7 OFFCURVE",
"382 -4 CURVE",
"357 7 OFFCURVE",
"324 36 OFFCURVE",
"307 60 CURVE",
"263 19 OFFCURVE",
"215 -8 OFFCURVE",
"170 -8 CURVE SMOOTH",
"127 -8 OFFCURVE",
"94 10 OFFCURVE",
"74 41 CURVE SMOOTH",
"55 72 OFFCURVE",
"47 110 OFFCURVE",
"56 154 CURVE SMOOTH",
"75 238 OFFCURVE",
"129 303 OFFCURVE",
"185 367 CURVE",
"165 439 OFFCURVE",
"162 506 OFFCURVE",
"178 583 CURVE",
"193 643 OFFCURVE",
"218 685 OFFCURVE",
"261 718 CURVE SMOOTH",
"282 735 OFFCURVE",
"310 743 OFFCURVE",
"344 743 CURVE SMOOTH",
"377 743 OFFCURVE",
"401 733 OFFCURVE",
"417 718 CURVE SMOOTH",
"432 703 OFFCURVE",
"439 683 OFFCURVE",
"442 663 CURVE SMOOTH",
"449 616 OFFCURVE",
"443 554 OFFCURVE",
"390 482 CURVE SMOOTH",
"363 446 OFFCURVE",
"331 409 OFFCURVE",
"294 371 CURVE",
"311 298 OFFCURVE",
"324 260 OFFCURVE",
"337 232 CURVE",
"358 269 OFFCURVE",
"375 318 OFFCURVE",
"382 335 CURVE"
);
},
{
closed = 1;
nodes = (
"356 613 OFFCURVE",
"355 633 OFFCURVE",
"348 646 CURVE SMOOTH",
"344 653 OFFCURVE",
"337 657 OFFCURVE",
"326 657 CURVE SMOOTH",
"305 657 OFFCURVE",
"291 639 OFFCURVE",
"283 620 CURVE",
"272 597 OFFCURVE",
"266 561 OFFCURVE",
"267 524 CURVE SMOOTH",
"267 505 OFFCURVE",
"270 486 OFFCURVE",
"274 463 CURVE",
"306 500 OFFCURVE",
"341 547 OFFCURVE",
"349 586 CURVE"
);
},
{
closed = 1;
nodes = (
"246 171 OFFCURVE",
"229 215 OFFCURVE",
"210 272 CURVE",
"183 240 OFFCURVE",
"168 195 OFFCURVE",
"161 156 CURVE SMOOTH",
"154 117 OFFCURVE",
"167 86 OFFCURVE",
"195 86 CURVE SMOOTH",
"222 86 OFFCURVE",
"241 104 OFFCURVE",
"265 128 CURVE"
);
}
);
width = 417;
}
);
unicode = 0026;
},
{
glyphname = at;
lastChange = "2012-08-26 16:25:30 +0000";
layers = (
{
layerId = "E10EC336-1202-48FF-9A55-15876E80CDFD";
name = Regular;
paths = (
{
closed = 1;
nodes = (
"439 195 LINE",
"359 195 LINE",
"355 222 LINE",
"344 209 OFFCURVE",
"334 201 OFFCURVE",
"319 194 CURVE",
"310 191 OFFCURVE",
"302 189 OFFCURVE",
"293 189 CURVE SMOOTH",
"240 189 OFFCURVE",
"229 226 OFFCURVE",
"240 273 CURVE SMOOTH",
"290 510 LINE SMOOTH",
"299 555 OFFCURVE",
"326 593 OFFCURVE",
"379 593 CURVE SMOOTH",
"398 593 OFFCURVE",
"410 584 OFFCURVE",
"417 576 CURVE",
"421 571 OFFCURVE",
"424 567 OFFCURVE",
"427 560 CURVE",
"431 582 LINE",
"434 593 OFFCURVE",
"434 612 OFFCURVE",
"423 629 CURVE SMOOTH",
"412 645 OFFCURVE",
"392 659 OFFCURVE",
"355 659 CURVE SMOOTH",
"318 659 OFFCURVE",
"293 645 OFFCURVE",
"274 629 CURVE",
"257 612 OFFCURVE",
"248 593 OFFCURVE",
"245 582 CURVE",
"153 148 LINE",
"150 136 OFFCURVE",
"151 117 OFFCURVE",
"162 102 CURVE SMOOTH",
"173 86 OFFCURVE",
"193 73 OFFCURVE",
"230 73 CURVE SMOOTH",
"273 73 OFFCURVE",
"298 84 OFFCURVE",
"319 104 CURVE",
"384 62 LINE",
"349 26 OFFCURVE",
"297 -8 OFFCURVE",
"213 -8 CURVE SMOOTH",
"140 -8 OFFCURVE",
"100 20 OFFCURVE",
"80 53 CURVE SMOOTH",
"59 86 OFFCURVE",
"58 125 OFFCURVE",
"63 148 CURVE SMOOTH",
"155 582 LINE SMOOTH",
"160 606 OFFCURVE",
"178 646 OFFCURVE",
"213 681 CURVE SMOOTH",
"248 716 OFFCURVE",
"299 743 OFFCURVE",
"372 743 CURVE SMOOTH",
"445 743 OFFCURVE",
"485 716 OFFCURVE",
"506 681 CURVE SMOOTH",
"526 646 OFFCURVE",
"526 606 OFFCURVE",
"521 582 CURVE SMOOTH"
);
},
{
closed = 1;
nodes = (
"414 502 LINE SMOOTH",
"418 519 OFFCURVE",
"412 528 OFFCURVE",
"396 528 CURVE SMOOTH",
"381 528 OFFCURVE",
"371 519 OFFCURVE",
"367 502 CURVE SMOOTH",
"320 280 LINE SMOOTH",
"316 263 OFFCURVE",
"322 254 OFFCURVE",
"337 254 CURVE SMOOTH",
"354 254 OFFCURVE",
"364 263 OFFCURVE",
"367 280 CURVE SMOOTH"
);
}
);
width = 426;
}
);
unicode = 0040;
},
{
glyphname = bar;
lastChange = "2012-08-26 16:25:30 +0000";
layers = (
{
layerId = "E10EC336-1202-48FF-9A55-15876E80CDFD";
name = Regular;
paths = (
{
closed = 1;
nodes = (
"-13 -250 LINE",
"215 826 LINE",
"309 826 LINE",
"80 -250 LINE"
);
}
);
width = 174;
}
);
unicode = 007C;
},
{
glyphname = copyright;
lastChange = "2012-08-26 16:25:30 +0000";
layers = (
{
layerId = "E10EC336-1202-48FF-9A55-15876E80CDFD";
name = Regular;
paths = (
{
closed = 1;
nodes = (
"127 471 OFFCURVE",
"187 565 OFFCURVE",
"270 633 CURVE SMOOTH",
"354 701 OFFCURVE",
"454 743 OFFCURVE",
"558 743 CURVE SMOOTH",
"662 743 OFFCURVE",
"748 701 OFFCURVE",
"801 633 CURVE SMOOTH",
"856 565 OFFCURVE",
"878 471 OFFCURVE",
"855 367 CURVE SMOOTH",
"832 263 OFFCURVE",
"772 170 OFFCURVE",
"688 102 CURVE SMOOTH",
"605 34 OFFCURVE",
"503 -8 OFFCURVE",
"399 -8 CURVE SMOOTH",
"295 -8 OFFCURVE",
"212 34 OFFCURVE",
"157 102 CURVE SMOOTH",
"104 170 OFFCURVE",
"81 263 OFFCURVE",
"104 367 CURVE SMOOTH"
);
},
{
closed = 1;
nodes = (
"143 279 OFFCURVE",
"161 203 OFFCURVE",
"208 144 CURVE SMOOTH",
"255 85 OFFCURVE",
"323 50 OFFCURVE",
"411 50 CURVE SMOOTH",
"499 50 OFFCURVE",
"585 85 OFFCURVE",
"656 144 CURVE SMOOTH",
"727 203 OFFCURVE",
"778 279 OFFCURVE",
"797 367 CURVE SMOOTH",
"816 455 OFFCURVE",
"798 533 OFFCURVE",
"751 592 CURVE SMOOTH",
"706 651 OFFCURVE",
"634 685 OFFCURVE",
"546 685 CURVE SMOOTH",
"458 685 OFFCURVE",
"375 651 OFFCURVE",
"303 592 CURVE SMOOTH",
"232 533 OFFCURVE",
"181 455 OFFCURVE",
"162 367 CURVE SMOOTH"
);
},
{
closed = 1;
nodes = (
"555 299 LINE",
"542 238 LINE",
"521 169 OFFCURVE",
"477 142 OFFCURVE",
"430 142 CURVE SMOOTH",
"382 142 OFFCURVE",
"364 166 OFFCURVE",
"357 190 CURVE",
"352 205 OFFCURVE",
"352 221 OFFCURVE",
"356 238 CURVE SMOOTH",
"411 497 LINE SMOOTH",
"419 533 OFFCURVE",
"438 558 OFFCURVE",
"467 578 CURVE SMOOTH",
"482 588 OFFCURVE",
"501 593 OFFCURVE",
"526 593 CURVE SMOOTH",
"573 593 OFFCURVE",
"588 569 OFFCURVE",
"595 545 CURVE SMOOTH",
"599 530 OFFCURVE",
"600 514 OFFCURVE",
"597 497 CURVE",
"584 436 LINE",
"517 436 LINE",
"530 497 LINE",
"533 508 OFFCURVE",
"532 516 OFFCURVE",
"527 523 CURVE",
"524 526 OFFCURVE",
"519 528 OFFCURVE",
"513 528 CURVE SMOOTH",
"501 528 OFFCURVE",
"493 520 OFFCURVE",
"488 512 CURVE SMOOTH",
"485 507 OFFCURVE",
"483 502 OFFCURVE",
"482 497 CURVE SMOOTH",
"427 238 LINE",
"425 226 OFFCURVE",
"427 217 OFFCURVE",
"432 212 CURVE",
"434 209 OFFCURVE",
"438 207 OFFCURVE",
"444 207 CURVE SMOOTH",
"457 207 OFFCURVE",
"465 214 OFFCURVE",
"470 222 CURVE SMOOTH",
"473 227 OFFCURVE",
"475 233 OFFCURVE",
"475 238 CURVE",
"488 299 LINE"
);
}
);
width = 803;
}
);
unicode = 00A9;
},
{
glyphname = registered;
lastChange = "2012-08-26 16:25:30 +0000";
layers = (
{
layerId = "E10EC336-1202-48FF-9A55-15876E80CDFD";
name = Regular;
paths = (
{
closed = 1;
nodes = (
"127 471 OFFCURVE",
"187 565 OFFCURVE",
"270 633 CURVE SMOOTH",
"354 701 OFFCURVE",
"454 743 OFFCURVE",
"558 743 CURVE SMOOTH",
"662 743 OFFCURVE",
"748 701 OFFCURVE",
"801 633 CURVE SMOOTH",
"856 565 OFFCURVE",
"878 471 OFFCURVE",
"855 367 CURVE SMOOTH",
"832 263 OFFCURVE",
"772 170 OFFCURVE",
"688 102 CURVE SMOOTH",
"605 34 OFFCURVE",
"503 -8 OFFCURVE",
"399 -8 CURVE SMOOTH",
"295 -8 OFFCURVE",
"212 34 OFFCURVE",
"157 102 CURVE SMOOTH",
"104 170 OFFCURVE",
"81 263 OFFCURVE",
"104 367 CURVE SMOOTH"
);
},
{
closed = 1;
nodes = (
"143 279 OFFCURVE",
"161 203 OFFCURVE",
"208 144 CURVE SMOOTH",
"255 85 OFFCURVE",
"323 50 OFFCURVE",
"411 50 CURVE SMOOTH",
"499 50 OFFCURVE",
"585 85 OFFCURVE",
"656 144 CURVE SMOOTH",
"727 203 OFFCURVE",
"778 279 OFFCURVE",
"797 367 CURVE SMOOTH",
"816 455 OFFCURVE",
"798 533 OFFCURVE",
"751 592 CURVE SMOOTH",
"706 651 OFFCURVE",
"634 685 OFFCURVE",
"546 685 CURVE SMOOTH",
"458 685 OFFCURVE",
"375 651 OFFCURVE",
"303 592 CURVE SMOOTH",
"232 533 OFFCURVE",
"181 455 OFFCURVE",
"162 367 CURVE SMOOTH"
);
},
{
closed = 1;
nodes = (
"524 582 LINE SMOOTH",
"604 582 OFFCURVE",
"627 536 OFFCURVE",
"610 456 CURVE SMOOTH",
"601 413 OFFCURVE",
"591 381 OFFCURVE",
"544 348 CURVE",
"555 153 LINE",
"481 153 LINE",
"473 331 LINE",
"446 331 LINE",
"408 153 LINE",
"337 153 LINE",
"428 582 LINE"
);
},
{
closed = 1;
nodes = (
"486 519 LINE",
"459 393 LINE",
"481 393 LINE SMOOTH",
"502 393 OFFCURVE",
"517 400 OFFCURVE",
"526 413 CURVE",
"535 425 OFFCURVE",
"539 440 OFFCURVE",
"542 455 CURVE SMOOTH",
"545 470 OFFCURVE",
"548 486 OFFCURVE",
"544 498 CURVE",
"541 510 OFFCURVE",
"529 519 OFFCURVE",
"508 519 CURVE SMOOTH"
);
}
);
width = 803;
}
);
unicode = 00AE;
},
{
glyphname = trademark;
lastChange = "2012-08-26 16:25:30 +0000";
layers = (
{
layerId = "E10EC336-1202-48FF-9A55-15876E80CDFD";
name = Regular;
paths = (
{
closed = 1;
nodes = (
"181 684 LINE",
"192 735 LINE",
"349 735 LINE",
"338 684 LINE",
"287 684 LINE",
"227 401 LINE",
"172 401 LINE",
"232 684 LINE"
);
},
{
closed = 1;
nodes = (
"389 401 LINE",
"396 620 LINE",
"350 401 LINE",
"300 401 LINE",
"371 735 LINE",
"438 735 LINE",
"438 579 LINE",
"441 579 LINE",
"507 735 LINE",
"574 735 LINE",
"503 401 LINE",
"452 401 LINE",
"498 620 LINE",
"414 401 LINE"
);
}
);
width = 458;
}
);
unicode = 2122;
},
{
glyphname = asciicircum;
lastChange = "2012-08-26 16:25:30 +0000";
layers = (
{
layerId = "E10EC336-1202-48FF-9A55-15876E80CDFD";
name = Regular;
paths = (
{
closed = 1;
nodes = (
"482 735 LINE",
"595 395 LINE",
"498 395 LINE",
"409 660 LINE",
"206 395 LINE",
"109 395 LINE",
"368 735 LINE"
);
}
);
width = 538;
}
);
unicode = 005E;
},
{
glyphname = acute;
lastChange = "2012-08-26 16:25:31 +0000";
layers = (
{
anchors = (
{
name = _top;
position = "{423, 547}";
}
);
layerId = "E10EC336-1202-48FF-9A55-15876E80CDFD";
name = Regular;
paths = (
{
closed = 1;
nodes = (
"511 727 LINE",
"413 637 LINE",
"335 637 LINE",
"406 727 LINE"
);
}
);
width = 500;
}
);
unicode = 00B4;
},
{
glyphname = breve;
lastChange = "2012-08-26 16:25:31 +0000";
layers = (
{
anchors = (
{
name = _top;
position = "{395, 547}";
}
);
layerId = "E10EC336-1202-48FF-9A55-15876E80CDFD";
name = Regular;
paths = (
{
closed = 1;
nodes = (
"505 683 LINE",
"484 666 OFFCURVE",
"461 652 OFFCURVE",
"432 643 CURVE",
"419 638 OFFCURVE",
"403 636 OFFCURVE",
"385 636 CURVE SMOOTH",
"350 636 OFFCURVE",
"325 647 OFFCURVE",
"309 659 CURVE SMOOTH",
"299 666 OFFCURVE",
"291 674 OFFCURVE",
"285 683 CURVE",
"348 729 LINE",
"361 710 OFFCURVE",
"381 706 OFFCURVE",
"400 706 CURVE SMOOTH",
"419 706 OFFCURVE",
"432 710 OFFCURVE",
"445 717 CURVE SMOOTH",
"451 720 OFFCURVE",
"457 724 OFFCURVE",
"462 729 CURVE"
);
}
);
width = 500;
}
);
unicode = 02D8;
},
{
glyphname = caron;
lastChange = "2012-08-26 16:25:31 +0000";
layers = (
{
anchors = (
{
name = _top;
position = "{403.5, 547}";
}
);
layerId = "E10EC336-1202-48FF-9A55-15876E80CDFD";
name = Regular;
paths = (
{
closed = 1;
nodes = (
"331 637 LINE",
"281 727 LINE",
"373 727 LINE",
"396 692 LINE",
"434 727 LINE",
"526 727 LINE",
"438 637 LINE"
);
}
);
width = 499;
}
);
unicode = 02C7;
},
{
glyphname = cedilla;
lastChange = "2012-08-26 16:25:31 +0000";
layers = (
{
anchors = (
{
name = _bottom;
position = "{229.5, 0}";
}
);
layerId = "E10EC336-1202-48FF-9A55-15876E80CDFD";
name = Regular;
paths = (
{
closed = 1;
nodes = (
"265 -123 LINE",
"230 -188 LINE",
"179 -188 LINE",
"212 -123 LINE",
"181 -123 LINE",
"196 -54 LINE",
"280 -54 LINE"
);
}
);
width = 500;
}
);
unicode = 00B8;
},
{
glyphname = circumflex;
lastChange = "2012-08-26 16:25:31 +0000";
layers = (
{
anchors = (
{
name = _top;
position = "{384.5, 547}";
}
);
layerId = "E10EC336-1202-48FF-9A55-15876E80CDFD";
name = Regular;
paths = (
{
closed = 1;
nodes = (
"457 727 LINE",
"507 637 LINE",
"415 637 LINE",
"391 672 LINE",
"354 637 LINE",
"262 637 LINE",
"350 727 LINE"
);
}
);
width = 499;
}
);
unicode = 02C6;
},
{
glyphname = dieresis;
lastChange = "2012-08-26 16:25:31 +0000";
layers = (
{
anchors = (
{
name = _top;
position = "{395.5, 547}";
}
);
layerId = "E10EC336-1202-48FF-9A55-15876E80CDFD";
name = Regular;
paths = (
{
closed = 1;
nodes = (
"289 735 LINE",
"382 735 LINE",
"361 637 LINE",
"268 637 LINE"
);
},
{
closed = 1;
nodes = (
"430 735 LINE",
"523 735 LINE",
"502 637 LINE",
"409 637 LINE"
);
}
);
width = 500;
}
);
unicode = 00A8;
},
{
glyphname = dotaccent;
lastChange = "2012-08-26 16:25:31 +0000";
layers = (
{
anchors = (
{
name = _top;
position = "{394.5, 547}";
}
);
layerId = "E10EC336-1202-48FF-9A55-15876E80CDFD";
name = Regular;
paths = (
{
closed = 1;
nodes = (
"355 735 LINE",
"456 735 LINE",
"434 634 LINE",
"333 634 LINE"
);
}
);
width = 499;
}
);
unicode = 02D9;
},
{
glyphname = grave;
lastChange = "2012-08-26 16:25:31 +0000";
layers = (
{
anchors = (
{
name = _top;
position = "{366, 547}";
}
);
layerId = "E10EC336-1202-48FF-9A55-15876E80CDFD";
name = Regular;
paths = (
{
closed = 1;
nodes = (
"402 727 LINE",
"435 637 LINE",
"357 637 LINE",
"297 727 LINE"
);
}
);
width = 500;
}
);
unicode = 0060;
},
{
glyphname = hungarumlaut;
lastChange = "2012-08-26 16:25:31 +0000";
layers = (
{
anchors = (
{
name = _top;
position = "{402, 547}";
}
);
layerId = "E10EC336-1202-48FF-9A55-15876E80CDFD";
name = Regular;
paths = (
{
closed = 1;
nodes = (
"416 727 LINE",
"318 637 LINE",
"240 637 LINE",
"311 727 LINE"
);
},
{
closed = 1;
nodes = (
"564 727 LINE",
"466 637 LINE",
"388 637 LINE",
"459 727 LINE"
);
}
);
width = 500;
}
);
unicode = 02DD;
},
{
glyphname = macron;
lastChange = "2012-08-26 16:25:31 +0000";
layers = (
{
anchors = (
{
name = _top;
position = "{394.5, 547}";
}
);
layerId = "E10EC336-1202-48FF-9A55-15876E80CDFD";
name = Regular;
paths = (
{
closed = 1;
nodes = (
"306 721 LINE",
"500 721 LINE",
"483 642 LINE",
"289 642 LINE"
);
}
);
width = 500;
}
);
unicode = 00AF;
},
{
glyphname = ogonek;
lastChange = "2012-08-26 16:25:31 +0000";
layers = (
{
anchors = (
{
name = _ogonek;
position = "{307, 10}";
}
);
layerId = "E10EC336-1202-48FF-9A55-15876E80CDFD";
name = Regular;
paths = (
{
closed = 1;
nodes = (
"284 0 LINE",
"263 -15 OFFCURVE",
"247 -31 OFFCURVE",
"235 -50 CURVE SMOOTH",
"228 -61 OFFCURVE",
"223 -72 OFFCURVE",
"221 -83 CURVE SMOOTH",
"218 -98 OFFCURVE",
"223 -106 OFFCURVE",
"231 -112 CURVE SMOOTH",
"239 -118 OFFCURVE",
"251 -121 OFFCURVE",
"263 -121 CURVE SMOOTH",
"280 -121 OFFCURVE",
"294 -117 OFFCURVE",
"307 -112 CURVE",
"284 -179 LINE",
"261 -186 OFFCURVE",
"249 -188 OFFCURVE",
"232 -188 CURVE SMOOTH",
"167 -188 OFFCURVE",
"137 -148 OFFCURVE",
"148 -103 CURVE SMOOTH",
"155 -75 OFFCURVE",
"175 -50 OFFCURVE",
"196 -31 CURVE",
"207 -20 OFFCURVE",
"221 -9 OFFCURVE",
"236 0 CURVE"
);
}
);
width = 500;
}
);
unicode = 02DB;
},
{
glyphname = ring;
lastChange = "2012-08-26 16:25:31 +0000";
layers = (
{
anchors = (
{
name = _top;
position = "{396.52264616647983, 547}";
}
);
layerId = "E10EC336-1202-48FF-9A55-15876E80CDFD";
name = Regular;
paths = (
{
closed = 1;
nodes = (
"331 735 OFFCURVE",
"371 764 OFFCURVE",
"412 764 CURVE SMOOTH",
"453 764 OFFCURVE",
"480 735 OFFCURVE",
"471 694 CURVE SMOOTH",
"462 653 OFFCURVE",
"423 624 OFFCURVE",
"382 624 CURVE SMOOTH",
"341 624 OFFCURVE",
"313 653 OFFCURVE",
"322 694 CURVE SMOOTH"
);
},
{
closed = 1;
nodes = (
"356 675 OFFCURVE",
"371 659 OFFCURVE",
"390 659 CURVE SMOOTH",
"409 659 OFFCURVE",
"430 675 OFFCURVE",
"434 694 CURVE SMOOTH",
"438 713 OFFCURVE",
"423 729 OFFCURVE",
"404 729 CURVE SMOOTH",
"385 729 OFFCURVE",
"364 713 OFFCURVE",
"360 694 CURVE SMOOTH"
);
}
);
width = 499;
}
);
unicode = 02DA;
},
{
glyphname = tilde;
lastChange = "2012-08-26 16:25:31 +0000";
layers = (
{
anchors = (
{
name = _top;
position = "{394.5, 547}";
}
);
layerId = "E10EC336-1202-48FF-9A55-15876E80CDFD";
name = Regular;
paths = (
{
closed = 1;
nodes = (
"304 711 LINE",
"315 718 OFFCURVE",
"327 723 OFFCURVE",
"340 727 CURVE SMOOTH",
"346 729 OFFCURVE",
"353 730 OFFCURVE",
"361 730 CURVE SMOOTH",
"375 730 OFFCURVE",
"389 727 OFFCURVE",
"403 722 CURVE",
"417 715 OFFCURVE",
"431 712 OFFCURVE",
"445 711 CURVE",
"460 711 OFFCURVE",
"471 715 OFFCURVE",
"483 719 CURVE SMOOTH",
"486 720 OFFCURVE",
"489 722 OFFCURVE",
"492 723 CURVE SMOOTH",
"495 724 OFFCURVE",
"498 726 OFFCURVE",
"501 727 CURVE",
"485 653 LINE",
"476 646 OFFCURVE",
"464 640 OFFCURVE",
"449 637 CURVE",
"442 635 OFFCURVE",
"435 634 OFFCURVE",
"428 634 CURVE SMOOTH",
"413 634 OFFCURVE",
"399 637 OFFCURVE",
"387 643 CURVE",
"375 648 OFFCURVE",
"361 652 OFFCURVE",
"344 653 CURVE",
"329 653 OFFCURVE",
"317 649 OFFCURVE",
"306 645 CURVE SMOOTH",
"303 644 OFFCURVE",
"300 642 OFFCURVE",
"297 641 CURVE SMOOTH",
"294 640 OFFCURVE",
"291 638 OFFCURVE",
"288 637 CURVE"
);
}
);
width = 500;
}
);
unicode = 02DC;
},
{
glyphname = A;
lastChange = "2012-08-26 16:25:31 +0000";
layers = (
{
anchors = (
{
name = ogonek;
position = "{337, 10}";
},
{
name = top;
position = "{187, 735}";
}
);
layerId = "E10EC336-1202-48FF-9A55-15876E80CDFD";
name = Regular;
paths = (
{
closed = 1;
nodes = (
"10 0 LINE",
"277 735 LINE",
"409 735 LINE",
"364 0 LINE",
"259 0 LINE",
"270 150 LINE",
"166 150 LINE",
"115 0 LINE"
);
},
{
closed = 1;
nodes = (
"298 496 LINE",
"299 515 LINE",
"293 515 LINE",
"286 496 LINE",
"206 264 LINE",
"280 264 LINE"
);
}
);
width = 374;
}
);
unicode = 0041;
},
{
glyphname = Aacute;
lastChange = "2012-08-26 16:25:30 +0000";
layers = (
{
layerId = "E10EC336-1202-48FF-9A55-15876E80CDFD";
name = Regular;
paths = (
{
closed = 1;
nodes = (
"489 890 LINE",
"391 800 LINE",
"313 800 LINE",
"384 890 LINE"
);
},
{
closed = 1;
nodes = (
"10 0 LINE",
"277 735 LINE",
"409 735 LINE",
"364 0 LINE",
"259 0 LINE",
"270 150 LINE",
"166 150 LINE",
"115 0 LINE"
);
},
{
closed = 1;
nodes = (
"298 496 LINE",
"299 515 LINE",
"293 515 LINE",
"286 496 LINE",
"206 264 LINE",
"280 264 LINE"
);
}
);
width = 374;
}
);
unicode = 00C1;
},
{
glyphname = Amacron;
lastChange = "2012-08-26 16:25:30 +0000";
layers = (
{
layerId = "E10EC336-1202-48FF-9A55-15876E80CDFD";
name = Regular;
paths = (
{
closed = 1;
nodes = (
"284 909 LINE",
"478 909 LINE",
"461 830 LINE",
"267 830 LINE"
);
},
{
closed = 1;
nodes = (
"10 0 LINE",
"277 735 LINE",
"409 735 LINE",
"364 0 LINE",
"259 0 LINE",
"270 150 LINE",
"166 150 LINE",
"115 0 LINE"
);
},
{
closed = 1;
nodes = (
"298 496 LINE",
"299 515 LINE",
"293 515 LINE",
"286 496 LINE",
"206 264 LINE",
"280 264 LINE"
);
}
);
width = 374;
}
);
unicode = 0100;
},
{
glyphname = Aogonek;
lastChange = "2012-08-26 16:25:30 +0000";
layers = (
{
layerId = "E10EC336-1202-48FF-9A55-15876E80CDFD";
name = Regular;
paths = (
{
closed = 1;
nodes = (
"317 0 LINE",
"296 -15 OFFCURVE",
"280 -31 OFFCURVE",
"268 -50 CURVE SMOOTH",
"261 -61 OFFCURVE",
"256 -72 OFFCURVE",
"254 -83 CURVE SMOOTH",
"251 -98 OFFCURVE",
"256 -106 OFFCURVE",
"264 -112 CURVE SMOOTH",
"272 -118 OFFCURVE",
"284 -121 OFFCURVE",
"296 -121 CURVE SMOOTH",
"313 -121 OFFCURVE",
"327 -117 OFFCURVE",
"340 -112 CURVE",
"317 -179 LINE",
"294 -186 OFFCURVE",
"282 -188 OFFCURVE",
"265 -188 CURVE SMOOTH",
"200 -188 OFFCURVE",
"170 -148 OFFCURVE",
"181 -103 CURVE SMOOTH",
"188 -75 OFFCURVE",
"208 -50 OFFCURVE",
"229 -31 CURVE",
"240 -20 OFFCURVE",
"254 -9 OFFCURVE",
"269 0 CURVE",
"259 0 LINE",
"270 150 LINE",
"166 150 LINE",
"115 0 LINE",
"10 0 LINE",
"277 735 LINE",
"409 735 LINE",
"364 0 LINE"
);
},
{
closed = 1;
nodes = (
"280 264 LINE",
"298 496 LINE",
"299 515 LINE",
"293 515 LINE",
"286 496 LINE",
"206 264 LINE"
);
}
);
width = 374;
}
);
unicode = 0104;
},
{
glyphname = Cacute;
lastChange = "2012-08-26 16:25:30 +0000";
layers = (
{
layerId = "E10EC336-1202-48FF-9A55-15876E80CDFD";
name = Regular;
paths = (
{
closed = 1;
nodes = (
"447 915 LINE",
"349 825 LINE",
"271 825 LINE",
"342 915 LINE"
);
},
{
closed = 1;
nodes = (
"374 252 LINE",
"353 151 LINE",
"345 121 OFFCURVE",
"333 94 OFFCURVE",
"318 71 CURVE",
"303 51 OFFCURVE",
"286 32 OFFCURVE",
"263 17 CURVE",
"239 0 OFFCURVE",
"210 -8 OFFCURVE",
"175 -8 CURVE SMOOTH",
"140 -8 OFFCURVE",
"114 0 OFFCURVE",
"96 17 CURVE SMOOTH",
"79 32 OFFCURVE",
"70 51 OFFCURVE",
"66 71 CURVE",
"59 94 OFFCURVE",
"59 120 OFFCURVE",
"65 151 CURVE SMOOTH",
"157 584 LINE SMOOTH",
"164 613 OFFCURVE",
"175 639 OFFCURVE",
"191 663 CURVE",
"206 683 OFFCURVE",
"222 703 OFFCURVE",
"245 718 CURVE SMOOTH",
"268 733 OFFCURVE",
"298 743 OFFCURVE",
"334 743 CURVE SMOOTH",
"370 743 OFFCURVE",
"395 733 OFFCURVE",
"412 718 CURVE SMOOTH",
"429 703 OFFCURVE",
"439 683 OFFCURVE",
"443 663 CURVE",
"450 641 OFFCURVE",
"450 615 OFFCURVE",
"445 584 CURVE",
"423 483 LINE",
"322 483 LINE",
"344 584 LINE SMOOTH",
"348 603 OFFCURVE",
"346 619 OFFCURVE",
"337 630 CURVE SMOOTH",
"333 635 OFFCURVE",
"325 638 OFFCURVE",
"314 638 CURVE SMOOTH",
"295 638 OFFCURVE",
"283 624 OFFCURVE",
"275 611 CURVE",
"272 604 OFFCURVE",
"268 595 OFFCURVE",
"265 584 CURVE",
"173 151 LINE",
"170 132 OFFCURVE",
"172 116 OFFCURVE",
"180 105 CURVE",
"184 100 OFFCURVE",
"190 97 OFFCURVE",
"199 97 CURVE SMOOTH",
"222 97 OFFCURVE",
"234 109 OFFCURVE",
"242 124 CURVE SMOOTH",
"245 130 OFFCURVE",
"249 139 OFFCURVE",
"252 151 CURVE",
"273 252 LINE"
);
}
);
width = 346;
}
);
unicode = 0106;
},
{
glyphname = Ccaron;
lastChange = "2012-08-26 16:25:30 +0000";
layers = (
{
layerId = "E10EC336-1202-48FF-9A55-15876E80CDFD";
name = Regular;
paths = (
{
closed = 1;
nodes = (
"296 825 LINE",
"246 915 LINE",
"338 915 LINE",
"361 880 LINE",
"399 915 LINE",
"491 915 LINE",
"403 825 LINE"
);
},
{
closed = 1;
nodes = (
"374 252 LINE",
"353 151 LINE",
"345 121 OFFCURVE",
"333 94 OFFCURVE",
"318 71 CURVE",
"303 51 OFFCURVE",
"286 32 OFFCURVE",
"263 17 CURVE",
"239 0 OFFCURVE",
"210 -8 OFFCURVE",
"175 -8 CURVE SMOOTH",
"140 -8 OFFCURVE",
"114 0 OFFCURVE",
"96 17 CURVE SMOOTH",
"79 32 OFFCURVE",
"70 51 OFFCURVE",
"66 71 CURVE",
"59 94 OFFCURVE",
"59 120 OFFCURVE",
"65 151 CURVE SMOOTH",
"157 584 LINE SMOOTH",
"164 613 OFFCURVE",
"175 639 OFFCURVE",
"191 663 CURVE",
"206 683 OFFCURVE",
"222 703 OFFCURVE",
"245 718 CURVE SMOOTH",
"268 733 OFFCURVE",
"298 743 OFFCURVE",
"334 743 CURVE SMOOTH",
"370 743 OFFCURVE",
"395 733 OFFCURVE",
"412 718 CURVE SMOOTH",
"429 703 OFFCURVE",
"439 683 OFFCURVE",
"443 663 CURVE",
"450 641 OFFCURVE",
"450 615 OFFCURVE",
"445 584 CURVE",
"423 483 LINE",
"322 483 LINE",
"344 584 LINE SMOOTH",
"348 603 OFFCURVE",
"346 619 OFFCURVE",
"337 630 CURVE SMOOTH",
"333 635 OFFCURVE",
"325 638 OFFCURVE",
"314 638 CURVE SMOOTH",
"295 638 OFFCURVE",
"283 624 OFFCURVE",
"275 611 CURVE",
"272 604 OFFCURVE",
"268 595 OFFCURVE",
"265 584 CURVE",
"173 151 LINE",
"170 132 OFFCURVE",
"172 116 OFFCURVE",
"180 105 CURVE",
"184 100 OFFCURVE",
"190 97 OFFCURVE",
"199 97 CURVE SMOOTH",
"222 97 OFFCURVE",
"234 109 OFFCURVE",
"242 124 CURVE SMOOTH",
"245 130 OFFCURVE",
"249 139 OFFCURVE",
"252 151 CURVE",
"273 252 LINE"
);
}
);
width = 346;
}
);
unicode = 010C;
},
{
glyphname = Ccircumflex;
lastChange = "2012-08-26 16:25:30 +0000";
layers = (
{
layerId = "E10EC336-1202-48FF-9A55-15876E80CDFD";
name = Regular;
paths = (
{
closed = 1;
nodes = (
"422 915 LINE",
"472 825 LINE",
"380 825 LINE",
"356 860 LINE",
"319 825 LINE",
"227 825 LINE",
"315 915 LINE"
);
},
{
closed = 1;
nodes = (
"374 252 LINE",
"353 151 LINE",
"345 121 OFFCURVE",
"333 94 OFFCURVE",
"318 71 CURVE",
"303 51 OFFCURVE",
"286 32 OFFCURVE",
"263 17 CURVE",
"239 0 OFFCURVE",
"210 -8 OFFCURVE",
"175 -8 CURVE SMOOTH",
"140 -8 OFFCURVE",
"114 0 OFFCURVE",
"96 17 CURVE SMOOTH",
"79 32 OFFCURVE",
"70 51 OFFCURVE",
"66 71 CURVE",
"59 94 OFFCURVE",
"59 120 OFFCURVE",
"65 151 CURVE SMOOTH",
"157 584 LINE SMOOTH",
"164 613 OFFCURVE",
"175 639 OFFCURVE",
"191 663 CURVE",
"206 683 OFFCURVE",
"222 703 OFFCURVE",
"245 718 CURVE SMOOTH",
"268 733 OFFCURVE",
"298 743 OFFCURVE",
"334 743 CURVE SMOOTH",
"370 743 OFFCURVE",
"395 733 OFFCURVE",
"412 718 CURVE SMOOTH",
"429 703 OFFCURVE",
"439 683 OFFCURVE",
"443 663 CURVE",
"450 641 OFFCURVE",
"450 615 OFFCURVE",
"445 584 CURVE",
"423 483 LINE",
"322 483 LINE",
"344 584 LINE SMOOTH",
"348 603 OFFCURVE",
"346 619 OFFCURVE",
"337 630 CURVE SMOOTH",
"333 635 OFFCURVE",
"325 638 OFFCURVE",
"314 638 CURVE SMOOTH",
"295 638 OFFCURVE",
"283 624 OFFCURVE",
"275 611 CURVE",
"272 604 OFFCURVE",
"268 595 OFFCURVE",
"265 584 CURVE",
"173 151 LINE",
"170 132 OFFCURVE",
"172 116 OFFCURVE",
"180 105 CURVE",
"184 100 OFFCURVE",
"190 97 OFFCURVE",
"199 97 CURVE SMOOTH",
"222 97 OFFCURVE",
"234 109 OFFCURVE",
"242 124 CURVE SMOOTH",
"245 130 OFFCURVE",
"249 139 OFFCURVE",
"252 151 CURVE",
"273 252 LINE"
);
}
);
width = 346;
}
);
unicode = 0108;
},
{
glyphname = Cdotaccent;
lastChange = "2012-08-26 16:25:30 +0000";
layers = (
{
layerId = "E10EC336-1202-48FF-9A55-15876E80CDFD";
name = Regular;
paths = (
{
closed = 1;
nodes = (
"320 923 LINE",
"421 923 LINE",
"399 822 LINE",
"298 822 LINE"
);
},
{
closed = 1;
nodes = (
"374 252 LINE",
"353 151 LINE",
"345 121 OFFCURVE",
"333 94 OFFCURVE",
"318 71 CURVE",
"303 51 OFFCURVE",
"286 32 OFFCURVE",
"263 17 CURVE",
"239 0 OFFCURVE",
"210 -8 OFFCURVE",
"175 -8 CURVE SMOOTH",
"140 -8 OFFCURVE",
"114 0 OFFCURVE",
"96 17 CURVE SMOOTH",
"79 32 OFFCURVE",
"70 51 OFFCURVE",
"66 71 CURVE",
"59 94 OFFCURVE",
"59 120 OFFCURVE",
"65 151 CURVE SMOOTH",
"157 584 LINE SMOOTH",
"164 613 OFFCURVE",
"175 639 OFFCURVE",
"191 663 CURVE",
"206 683 OFFCURVE",
"222 703 OFFCURVE",
"245 718 CURVE SMOOTH",
"268 733 OFFCURVE",
"298 743 OFFCURVE",
"334 743 CURVE SMOOTH",
"370 743 OFFCURVE",
"395 733 OFFCURVE",
"412 718 CURVE SMOOTH",
"429 703 OFFCURVE",
"439 683 OFFCURVE",
"443 663 CURVE",
"450 641 OFFCURVE",
"450 615 OFFCURVE",
"445 584 CURVE",
"423 483 LINE",
"322 483 LINE",
"344 584 LINE SMOOTH",
"348 603 OFFCURVE",
"346 619 OFFCURVE",
"337 630 CURVE SMOOTH",
"333 635 OFFCURVE",
"325 638 OFFCURVE",
"314 638 CURVE SMOOTH",
"295 638 OFFCURVE",
"283 624 OFFCURVE",
"275 611 CURVE",
"272 604 OFFCURVE",
"268 595 OFFCURVE",
"265 584 CURVE",
"173 151 LINE",
"170 132 OFFCURVE",
"172 116 OFFCURVE",
"180 105 CURVE",
"184 100 OFFCURVE",
"190 97 OFFCURVE",
"199 97 CURVE SMOOTH",
"222 97 OFFCURVE",
"234 109 OFFCURVE",
"242 124 CURVE SMOOTH",
"245 130 OFFCURVE",
"249 139 OFFCURVE",
"252 151 CURVE",
"273 252 LINE"
);
}
);
width = 346;
}
);
unicode = 010A;
},
{
glyphname = Eth;
lastChange = "2012-08-26 16:25:30 +0000";
layers = (
{
layerId = "E10EC336-1202-48FF-9A55-15876E80CDFD";
name = Regular;
paths = (
{
closed = 1;
nodes = (
"101 431 LINE",
"131 431 LINE",
"196 735 LINE",
"281 735 LINE SMOOTH",
"381 735 OFFCURVE",
"429 715 OFFCURVE",
"448 659 CURVE",
"464 603 OFFCURVE",
"449 512 OFFCURVE",
"418 367 CURVE SMOOTH",
"387 223 OFFCURVE",
"364 132 OFFCURVE",
"324 76 CURVE SMOOTH",
"283 20 OFFCURVE",
"225 0 OFFCURVE",
"125 0 CURVE SMOOTH",
"40 0 LINE",
"108 320 LINE",
"78 320 LINE"
);
},
{
closed = 1;
nodes = (
"239 431 LINE",
"280 431 LINE",
"257 320 LINE",
"216 320 LINE",
"170 108 LINE",
"207 108 OFFCURVE",
"229 112 OFFCURVE",
"248 148 CURVE SMOOTH",
"265 181 OFFCURVE",
"279 240 OFFCURVE",
"289 288 CURVE SMOOTH",
"294 311 OFFCURVE",
"299 338 OFFCURVE",
"306 368 CURVE SMOOTH",
"312 398 OFFCURVE",
"318 425 OFFCURVE",
"323 449 CURVE SMOOTH",
"333 496 OFFCURVE",
"345 552 OFFCURVE",
"341 588 CURVE SMOOTH",
"338 623 OFFCURVE",
"318 627 OFFCURVE",
"281 627 CURVE"
);
}
);
width = 372;
}
);
unicode = 00D0;
},
{
glyphname = Dcaron;
lastChange = "2012-08-26 16:25:30 +0000";
layers = (
{
layerId = "E10EC336-1202-48FF-9A55-15876E80CDFD";
name = Regular;
paths = (
{
closed = 1;
nodes = (
"309 825 LINE",
"259 915 LINE",
"351 915 LINE",
"374 880 LINE",
"412 915 LINE",
"504 915 LINE",
"416 825 LINE"
);
},
{
closed = 1;
nodes = (
"40 0 LINE",
"196 735 LINE",
"281 735 LINE SMOOTH",
"381 735 OFFCURVE",
"429 715 OFFCURVE",
"448 659 CURVE",
"464 603 OFFCURVE",
"449 512 OFFCURVE",
"418 367 CURVE SMOOTH",
"387 223 OFFCURVE",
"364 132 OFFCURVE",
"324 76 CURVE SMOOTH",
"283 20 OFFCURVE",
"225 0 OFFCURVE",
"125 0 CURVE SMOOTH"
);
},
{
closed = 1;
nodes = (
"170 108 LINE",
"207 108 OFFCURVE",
"229 112 OFFCURVE",
"248 148 CURVE SMOOTH",
"265 181 OFFCURVE",
"279 240 OFFCURVE",
"289 288 CURVE SMOOTH",
"294 311 OFFCURVE",
"299 338 OFFCURVE",
"306 368 CURVE SMOOTH",
"312 398 OFFCURVE",
"318 425 OFFCURVE",
"323 449 CURVE SMOOTH",
"333 496 OFFCURVE",
"345 552 OFFCURVE",
"341 588 CURVE SMOOTH",
"338 623 OFFCURVE",
"318 627 OFFCURVE",
"281 627 CURVE"
);
}
);
width = 372;
}
);
unicode = 010E;
},
{
glyphname = Dcroat;
lastChange = "2012-08-26 16:25:30 +0000";
layers = (
{
layerId = "E10EC336-1202-48FF-9A55-15876E80CDFD";
name = Regular;
paths = (
{
closed = 1;
nodes = (
"281 735 LINE SMOOTH",
"381 735 OFFCURVE",
"429 715 OFFCURVE",
"448 659 CURVE",
"464 603 OFFCURVE",
"449 512 OFFCURVE",
"418 367 CURVE SMOOTH",
"387 223 OFFCURVE",
"364 132 OFFCURVE",
"324 76 CURVE SMOOTH",
"283 20 OFFCURVE",
"225 0 OFFCURVE",
"125 0 CURVE SMOOTH",
"40 0 LINE",
"110 331 LINE",
"51 331 LINE",
"68 410 LINE",
"127 410 LINE",
"196 735 LINE"
);
},
{
closed = 1;
nodes = (
"170 108 LINE",
"207 108 OFFCURVE",
"229 112 OFFCURVE",
"248 148 CURVE SMOOTH",
"265 181 OFFCURVE",
"279 240 OFFCURVE",
"289 288 CURVE SMOOTH",
"294 311 OFFCURVE",
"299 338 OFFCURVE",
"306 368 CURVE SMOOTH",
"312 398 OFFCURVE",
"318 425 OFFCURVE",
"323 449 CURVE SMOOTH",
"333 496 OFFCURVE",
"345 552 OFFCURVE",
"341 588 CURVE SMOOTH",
"338 623 OFFCURVE",
"318 627 OFFCURVE",
"281 627 CURVE",
"235 410 LINE",
"262 410 LINE",
"245 331 LINE",
"218 331 LINE"
);
}
);
width = 372;
}
);
unicode = 0110;
},
{
glyphname = Ebreve;
lastChange = "2012-08-26 16:25:30 +0000";
layers = (
{
layerId = "E10EC336-1202-48FF-9A55-15876E80CDFD";
name = Regular;
paths = (
{
closed = 1;
nodes = (
"450 871 LINE",
"429 854 OFFCURVE",
"406 840 OFFCURVE",
"377 831 CURVE",
"364 826 OFFCURVE",
"348 824 OFFCURVE",
"330 824 CURVE SMOOTH",
"295 824 OFFCURVE",
"270 835 OFFCURVE",
"254 847 CURVE SMOOTH",
"244 854 OFFCURVE",
"236 862 OFFCURVE",
"230 871 CURVE",
"293 917 LINE",
"306 898 OFFCURVE",
"326 894 OFFCURVE",
"345 894 CURVE SMOOTH",
"364 894 OFFCURVE",
"377 898 OFFCURVE",
"390 905 CURVE SMOOTH",
"396 908 OFFCURVE",
"402 912 OFFCURVE",
"407 917 CURVE"
);
},
{
closed = 1;
nodes = (
"196 735 LINE",
"443 735 LINE",
"419 624 LINE",
"280 624 LINE",
"239 431 LINE",
"339 431 LINE",
"314 313 LINE",
"214 313 LINE",
"171 111 LINE",
"310 111 LINE",
"287 0 LINE",
"40 0 LINE"
);
}
);
width = 307;
}
);
unicode = 0114;
},
{
glyphname = Ecaron;
lastChange = "2012-08-26 16:25:30 +0000";
layers = (
{
layerId = "E10EC336-1202-48FF-9A55-15876E80CDFD";
name = Regular;
paths = (
{
closed = 1;
nodes = (
"276 825 LINE",
"226 915 LINE",
"318 915 LINE",
"341 880 LINE",
"379 915 LINE",
"471 915 LINE",
"383 825 LINE"
);
},
{
closed = 1;
nodes = (
"196 735 LINE",
"443 735 LINE",
"419 624 LINE",
"280 624 LINE",
"239 431 LINE",
"339 431 LINE",
"314 313 LINE",
"214 313 LINE",
"171 111 LINE",
"310 111 LINE",
"287 0 LINE",
"40 0 LINE"
);
}
);
width = 307;
}
);
unicode = 011A;
},
{
glyphname = Edotaccent;
lastChange = "2012-08-26 16:25:30 +0000";
layers = (
{
layerId = "E10EC336-1202-48FF-9A55-15876E80CDFD";
name = Regular;
paths = (
{
closed = 1;
nodes = (
"300 923 LINE",
"401 923 LINE",
"379 822 LINE",
"278 822 LINE"
);
},
{
closed = 1;
nodes = (
"196 735 LINE",
"443 735 LINE",
"419 624 LINE",
"280 624 LINE",
"239 431 LINE",
"339 431 LINE",
"314 313 LINE",
"214 313 LINE",
"171 111 LINE",
"310 111 LINE",
"287 0 LINE",
"40 0 LINE"
);
}
);
width = 307;
}
);
unicode = 0116;
},
